<?xml version="1.0" standalone="no"?>
<!DOCTYPE svg PUBLIC "-//W3C//DTD SVG 1.1//EN" "http://www.w3.org/Graphics/SVG/1.1/DTD/svg11.dtd" >
<svg xmlns="http://www.w3.org/2000/svg" xmlns:xlink="http://www.w3.org/1999/xlink" version="1.1">
<metadata>
Created by FontForge 20161003 at Fri Jul 28 03:09:35 2017
 By www-data
Copyright (c) 2012 by Fontfabric LLC. All rights reserved. Vi?t ho'a b?i STYLEno.1 Fonts
</metadata>
<defs>
<font id="SVN-NexaBold" horiz-adv-x="636" >
  <font-face 
    font-family="SVN-Nexa"
    font-weight="700"
    font-stretch="normal"
    units-per-em="1000"
    panose-1="2 0 5 0 0 0 0 0 0 0"
    ascent="800"
    descent="-200"
    x-height="493"
    cap-height="700"
    bbox="-157 -294 1082.5 1070.26"
    underline-thickness="50"
    underline-position="-100"
    unicode-range="U+0020-FB02"
  />
<missing-glyph horiz-adv-x="648" 
d="M37 0v700h538v-700h-538zM127 448h21c0 96 85 116 152 116c73 0 166 -19 166 -118c0 -74 -37 -96 -76 -104c-96 -27 -115 -65 -115 -157h22c0 99 10 111 94 135c43 10 95 33 95 126c0 111 -98 139 -186 139c-84 0 -173 -34 -173 -137zM270 119c0 -27 41 -27 41 0
c0 25 -41 25 -41 0z" />
    <glyph glyph-name=".notdef" horiz-adv-x="648" 
d="M37 0v700h538v-700h-538zM127 448h21c0 96 85 116 152 116c73 0 166 -19 166 -118c0 -74 -37 -96 -76 -104c-96 -27 -115 -65 -115 -157h22c0 99 10 111 94 135c43 10 95 33 95 126c0 111 -98 139 -186 139c-84 0 -173 -34 -173 -137zM270 119c0 -27 41 -27 41 0
c0 25 -41 25 -41 0z" />
    <glyph glyph-name=".null" horiz-adv-x="0" 
 />
    <glyph glyph-name="CR" horiz-adv-x="352" 
 />
    <glyph glyph-name="space" unicode=" " horiz-adv-x="249" 
 />
    <glyph glyph-name="space" unicode="&#xa0;" horiz-adv-x="249" 
 />
    <glyph glyph-name="uni00AD" unicode="&#xad;" horiz-adv-x="0" 
 />
    <glyph glyph-name="space.003" horiz-adv-x="261" 
 />
    <glyph glyph-name="exclam" unicode="!" horiz-adv-x="272" 
d="M82 702h108v-527h-108v527zM69 61c0 87 132 87 132 0s-132 -87 -132 0z" />
    <glyph glyph-name="quotedbl" unicode="&#x22;" horiz-adv-x="404" 
d="M70 699h95v-265h-95v265zM239 699h95v-265h-95v265z" />
    <glyph glyph-name="numbersign" unicode="#" horiz-adv-x="683" 
d="M252 700h112l-38 -155h132l39 155h111l-38 -155h76v-96h-100l-54 -207h83v-98h-105l-35 -144h-112l35 144h-133l-35 -144h-111l35 144h-77v98h101l53 208h-83v95h106zM442 456h-145l-56 -220h145z" />
    <glyph glyph-name="dollar" unicode="$" horiz-adv-x="680" 
d="M609 594l-90 -48c-29 50 -104 79 -174 79c-84 0 -172 -32 -172 -110c0 -72 83 -86 176 -99c143 -21 295 -54 295 -215c0 -135 -119 -204 -242 -212v-100h-106v96c-101 8 -216 53 -261 156l95 50c31 -68 129 -106 212 -106c89 0 186 25 186 116c0 75 -91 100 -190 113
c-138 19 -277 43 -277 200c0 132 119 189 235 202v90h107v-90c86 -11 158 -37 206 -122z" />
    <glyph glyph-name="percent" unicode="%" horiz-adv-x="743" 
d="M193 709c209 0 210 -304 0 -304c-209 0 -209 304 0 304zM550 702h99l-452 -702h-100zM192 635c-104 0 -105 -155 2 -155c105 0 102 155 -2 155zM550 297c209 0 210 -304 0 -304c-209 0 -209 304 0 304zM549 223c-104 0 -105 -155 2 -155c105 0 102 155 -2 155z" />
    <glyph glyph-name="ampersand" unicode="&#x26;" horiz-adv-x="703" 
d="M482 313h-162c-107 0 -157 -58 -157 -108c0 -77 70 -114 161 -114c56 0 158 26 158 108v114zM587 313v-114c0 -51 18 -93 69 -93v-108c-52 -3 -109 16 -128 91c-43 -67 -117 -100 -209 -100c-145 0 -266 73 -266 217c0 65 50 131 116 152c-63 25 -98 86 -98 147
c0 139 125 204 258 204c118 0 248 -43 248 -192h-105c0 76 -69 97 -146 97c-110 0 -146 -58 -146 -109c0 -80 90 -103 146 -103h320v-89h-59z" />
    <glyph glyph-name="quotesingle" unicode="'" horiz-adv-x="232" 
d="M69 700h94v-265h-94v265z" />
    <glyph glyph-name="parenleft" unicode="(" horiz-adv-x="346" 
d="M272 763l52 -71c-117 -89 -175 -227 -176 -372c0 -153 57 -282 176 -373l-56 -77c-149 99 -224 271 -227 436c-3 174 73 353 231 457z" />
    <glyph glyph-name="parenright" unicode=")" horiz-adv-x="345" 
d="M21 701l53 71c158 -105 233 -284 230 -456c-3 -166 -76 -339 -227 -437l-54 78c119 92 175 219 174 372c0 145 -59 283 -176 372z" />
    <glyph glyph-name="asterisk" unicode="*" horiz-adv-x="398" 
d="M321 479l-65 -48l-57 84l-58 -84l-65 48l64 76l-91 20l24 79l89 -33l-4 91h81l-8 -92l95 34l22 -79l-93 -20z" />
    <glyph glyph-name="plus" unicode="+" horiz-adv-x="501" 
d="M44 394h154v154h103v-154h155v-96h-155v-156h-103v156h-154v96z" />
    <glyph glyph-name="comma" unicode="," horiz-adv-x="246" 
d="M186 46c0 -16 -7 -26 -45 -142h-62l22 95c-25 5 -42 22 -42 50c0 76 127 80 127 -3z" />
    <glyph glyph-name="hyphen" unicode="-" horiz-adv-x="494" 
d="M65 243v93h364v-93h-364z" />
    <glyph glyph-name="period" unicode="." horiz-adv-x="243" 
d="M58 55c0 84 127 84 127 0c0 -85 -127 -85 -127 0z" />
    <glyph glyph-name="slash" unicode="/" horiz-adv-x="495" 
d="M368 764h102l-344 -846h-101z" />
    <glyph glyph-name="zero" unicode="0" horiz-adv-x="700" 
d="M169 411v-122c0 -266 362 -267 362 0v122c0 261 -362 265 -362 0zM57 289v122c0 405 586 405 586 0v-122c0 -405 -586 -405 -586 0z" />
    <glyph glyph-name="one" unicode="1" horiz-adv-x="435" 
d="M51 0v93h126v470l-120 -34v98l231 73v-607h122v-93h-359z" />
    <glyph glyph-name="two" unicode="2" horiz-adv-x="675" 
d="M173 501h-112c11 160 153 208 285 208c131 0 271 -52 271 -213c0 -168 -136 -212 -277 -212c-69 0 -174 -16 -174 -107v-72h451v-105h-559v177c0 160 145 206 281 206c63 0 168 20 168 111c0 87 -76 115 -161 118c-81 0 -170 -29 -173 -111z" />
    <glyph glyph-name="three" unicode="3" horiz-adv-x="674" 
d="M338 313h-111v92h104c87 0 163 32 163 99c0 48 -41 106 -160 106c-69 0 -162 -22 -162 -100h-111c0 150 148 200 274 200c140 0 270 -69 270 -206c0 -68 -42 -126 -109 -145c83 -23 125 -80 125 -153c0 -156 -145 -216 -289 -216c-130 0 -283 51 -283 208h113
c0 -84 106 -107 171 -107c87 0 171 38 171 114c0 50 -35 108 -166 108z" />
    <glyph glyph-name="four" unicode="4" horiz-adv-x="662" 
d="M406 699h129v-456h83v-104h-83v-139h-111v139h-388l-14 101zM147 243h277v326z" />
    <glyph glyph-name="five" unicode="5" horiz-adv-x="655" 
d="M572 699v-105h-393v-148h158c159 0 274 -72 274 -223c0 -148 -122 -230 -274 -230c-146 0 -283 50 -283 213h112c0 -88 98 -108 170 -108c85 0 163 40 163 125c0 80 -69 119 -162 119h-267v357h502z" />
    <glyph glyph-name="six" unicode="6" horiz-adv-x="693" 
d="M180 493v-127c37 56 116 80 178 80c139 0 285 -60 285 -228c0 -156 -146 -228 -286 -228c-141 0 -288 72 -288 230v272c0 149 143 220 284 220c149 0 277 -60 280 -199h-110c-3 67 -82 102 -167 102s-176 -37 -176 -122zM357 91c87 0 174 36 174 127
c0 86 -81 130 -173 130s-177 -43 -177 -130c0 -88 86 -127 176 -127z" />
    <glyph glyph-name="seven" unicode="7" horiz-adv-x="562" 
d="M220 0h-129l309 593h-369v107h513l7 -64z" />
    <glyph glyph-name="eight" unicode="8" horiz-adv-x="703" 
d="M351 317c-82 0 -182 -33 -182 -114c0 -69 81 -116 182 -116s182 44 182 116c0 81 -97 114 -182 114zM52 204c1 65 45 130 120 157c-65 31 -102 80 -102 144c0 142 136 208 280 208s285 -66 285 -208c0 -59 -38 -113 -106 -140c75 -27 121 -97 121 -161
c3 -160 -144 -220 -300 -220c-150 0 -301 59 -298 220zM184 508c3 -73 87 -108 167 -108c81 0 167 35 167 108c3 72 -81 111 -168 111c-96 0 -166 -46 -166 -111z" />
    <glyph glyph-name="nine" unicode="9" horiz-adv-x="694" 
d="M515 209v127c-38 -56 -116 -81 -179 -81c-139 0 -285 60 -285 229c0 156 146 228 286 228s288 -74 288 -230v-272c0 -149 -142 -220 -283 -220c-149 0 -282 59 -285 199h113c0 -67 87 -102 171 -102c73 0 174 42 174 122zM337 611c-88 0 -175 -36 -175 -127
c0 -88 83 -130 174 -130s177 43 177 130c0 88 -88 127 -176 127z" />
    <glyph glyph-name="colon" unicode=":" horiz-adv-x="256" 
d="M65 55c0 83 126 83 126 0s-126 -83 -126 0zM65 347c0 84 126 84 126 0c0 -83 -126 -83 -126 0z" />
    <glyph glyph-name="semicolon" unicode=";" horiz-adv-x="262" 
d="M69 347c0 84 126 84 126 0c0 -83 -126 -83 -126 0zM193 46c0 -16 -6 -26 -44 -142h-63l22 95c-24 5 -41 22 -41 50c0 76 126 80 126 -3z" />
    <glyph glyph-name="less" unicode="&#x3c;" horiz-adv-x="388" 
d="M164 315l167 -156l-67 -72l-226 218v21l226 217l66 -71z" />
    <glyph glyph-name="equal" unicode="=" horiz-adv-x="563" 
d="M70 155v95h423v-95h-423zM70 374v96h423v-96h-423z" />
    <glyph glyph-name="greater" unicode="&#x3e;" horiz-adv-x="388" 
d="M56 154l168 161l-167 161l67 67l225 -217v-21l-225 -218z" />
    <glyph glyph-name="question" unicode="?" horiz-adv-x="606" 
d="M206 65c0 93 140 93 140 0c0 -92 -140 -92 -140 0zM143 494h-109c0 149 130 212 267 212c138 0 271 -58 268 -210c0 -142 -120 -161 -179 -196c-46 -22 -59 -47 -59 -114l-111 1c0 136 51 174 122 203c53 24 112 38 112 107c0 91 -83 111 -155 111
c-71 0 -156 -34 -156 -114z" />
    <glyph glyph-name="at" unicode="@" horiz-adv-x="914" 
d="M460 576c-173 0 -322 -119 -322 -317c0 -221 157 -307 318 -307c45 0 96 8 145 37l41 -70c-65 -39 -128 -50 -188 -50c-214 0 -407 128 -407 390c0 252 189 403 413 403c238 0 414 -133 414 -396c0 -152 -62 -251 -186 -251c-36 0 -75 27 -75 87
c-30 -62 -105 -92 -158 -92c-144 0 -255 104 -255 247c0 147 114 250 254 250c60 0 129 -36 155 -86l6 60l81 -10v-350c0 -16 5 -24 16 -24c53 0 74 81 74 169c0 223 -125 310 -326 310zM456 415c-97 0 -156 -72 -156 -157c0 -81 57 -156 156 -156c102 0 154 75 154 160
c0 81 -50 153 -154 153z" />
    <glyph glyph-name="A" unicode="A" horiz-adv-x="768" 
d="M640 0l-67 147h-379l-66 -147h-119l314 700h122l314 -700h-119zM532 249l-148 333l-148 -333h296z" />
    <glyph glyph-name="B" unicode="B" horiz-adv-x="716" 
d="M199 310v-206h210c61 0 148 21 148 97c0 75 -83 109 -147 109h-211zM199 599v-189h211c84 0 126 32 126 88c0 49 -43 101 -127 101h-210zM88 700h321c133 0 238 -60 238 -200c0 -60 -30 -112 -97 -139c84 -24 119 -108 119 -161c0 -153 -121 -200 -260 -200h-321v700z
" />
    <glyph glyph-name="C" unicode="C" horiz-adv-x="703" 
d="M600 167l77 -77c-72 -72 -164 -104 -263 -104c-253 0 -369 175 -369 359s118 367 369 367c95 0 184 -34 256 -106l-75 -72c-51 49 -116 72 -181 72c-179 0 -258 -131 -258 -260c0 -128 78 -255 258 -255c65 0 137 27 186 76z" />
    <glyph glyph-name="D" unicode="D" horiz-adv-x="750" 
d="M88 700h265c239 0 348 -171 351 -344c3 -177 -105 -356 -351 -356h-265v700zM199 593v-485h154c171 0 243 126 240 249c-3 117 -76 236 -240 236h-154z" />
    <glyph glyph-name="E" unicode="E" horiz-adv-x="661" 
d="M605 110v-110h-517v700h514v-109h-402v-189h386v-104h-386v-188h405z" />
    <glyph glyph-name="F" unicode="F" horiz-adv-x="626" 
d="M200 0h-112v699h495v-109h-383v-213h364v-104h-364v-273z" />
    <glyph glyph-name="G" unicode="G" horiz-adv-x="743" 
d="M672 611l-70 -72c-51 49 -124 75 -189 75c-165 0 -258 -123 -258 -271c0 -128 76 -252 258 -252c60 0 115 15 171 62v142h-195v100h299v-287c-71 -77 -156 -122 -275 -122c-256 0 -368 170 -368 357c0 203 129 374 368 374c93 0 187 -34 259 -106z" />
    <glyph glyph-name="H" unicode="H" horiz-adv-x="769" 
d="M681 0h-111v291h-370v-291h-112v700h112v-305h370v305h111v-700z" />
    <glyph glyph-name="I" unicode="I" horiz-adv-x="287" 
d="M199 0h-111v700h111v-700z" />
    <glyph glyph-name="J" unicode="J" horiz-adv-x="705" 
d="M290 700h337v-410c0 -180 -116 -303 -300 -303c-174 0 -299 109 -299 297h110c0 -124 66 -192 189 -192s188 82 188 198v306h-225v104z" />
    <glyph glyph-name="K" unicode="K" horiz-adv-x="648" 
d="M624 700v-4l-321 -334l349 -355v-7h-140l-312 319v-319h-112v700h112v-302l285 302h139z" />
    <glyph glyph-name="L" unicode="L" horiz-adv-x="587" 
d="M88 700h112v-596h369v-104h-481v700z" />
    <glyph glyph-name="M" unicode="M" horiz-adv-x="897" 
d="M697 -1v537l-238 -331h-24l-235 331v-537h-112v700h130l231 -328l230 328h130v-700h-112z" />
    <glyph glyph-name="N" unicode="N" horiz-adv-x="771" 
d="M174 700l397 -498v498h112v-700h-85l-397 494v-494h-113v700h86z" />
    <glyph glyph-name="O" unicode="O" horiz-adv-x="806" 
d="M405 713c239 0 356 -177 356 -366s-115 -362 -358 -362s-358 177 -358 361c0 213 149 367 360 367zM156 345c3 -124 73 -257 247 -257s247 124 247 257c0 129 -73 263 -245 266c-163 0 -249 -113 -249 -266z" />
    <glyph glyph-name="P" unicode="P" horiz-adv-x="691" 
d="M200 598v-280h212c185 0 183 280 0 280h-212zM412 215h-212v-215h-112v700c108 0 216 1 324 1c334 0 335 -486 0 -486z" />
    <glyph glyph-name="Q" unicode="Q" horiz-adv-x="806" 
d="M403 715c244 0 354 -177 357 -358c1 -83 -22 -166 -69 -231l84 -83l-78 -79l-86 84c-55 -39 -124 -59 -208 -59c-247 0 -359 178 -359 363c0 184 116 363 359 363zM403 613c-168 0 -251 -131 -248 -263c0 -128 83 -257 248 -257c169 0 249 136 246 267
c-3 125 -74 253 -246 253z" />
    <glyph glyph-name="R" unicode="R" horiz-adv-x="721" 
d="M680 20l12 -20h-131l-213 242h-148v-242h-112v701c109 0 217 -1 326 -1c162 0 247 -111 247 -229c0 -99 -52 -199 -190 -218zM414 598h-214v-254h213c92 0 134 58 134 125c0 63 -41 129 -133 129z" />
    <glyph glyph-name="S" unicode="S" horiz-adv-x="660" 
d="M591 602l-85 -57c-33 48 -100 77 -173 78c-94 0 -162 -38 -162 -106s78 -87 170 -100c144 -21 281 -59 281 -217c0 -157 -144 -216 -290 -216c-135 0 -237 41 -301 159l84 56c51 -85 137 -115 218 -115c84 0 177 27 177 116c0 76 -80 102 -179 115
c-139 19 -271 54 -271 204c0 145 143 201 270 201c101 0 202 -24 261 -118z" />
    <glyph glyph-name="T" unicode="T" horiz-adv-x="606" 
d="M247 0v599h-230v101h572v-101h-229v-599h-113z" />
    <glyph glyph-name="U" unicode="U" horiz-adv-x="752" 
d="M562 699h111v-409c0 -206 -136 -308 -305 -303c-156 3 -289 105 -289 303v409h111v-409c0 -126 74 -197 178 -200c112 -5 194 66 194 200v409z" />
    <glyph glyph-name="V" unicode="V" horiz-adv-x="721" 
d="M709 700l-290 -703h-117l-291 703h126l223 -569l224 569h125z" />
    <glyph glyph-name="W" unicode="W" horiz-adv-x="1074" 
d="M1056 700l-250 -701h-99l-93 247l-77 235l-77 -236l-92 -246h-98l-254 701h125l178 -539l181 539h72l185 -539l174 539h125z" />
    <glyph glyph-name="X" unicode="X" horiz-adv-x="653" 
d="M327 429l184 271h123v-5l-237 -340l247 -352v-3h-127l-190 277l-191 -277h-127v3l246 352l-236 340v5h123z" />
    <glyph glyph-name="Y" unicode="Y" horiz-adv-x="686" 
d="M149 700l193 -309l199 309h135v-5l-278 -408v-287h-112v287l-270 408v5h133z" />
    <glyph glyph-name="Z" unicode="Z" horiz-adv-x="609" 
d="M58 597v103h511v-51l-385 -542h385v-107h-543v63l378 534h-346z" />
    <glyph glyph-name="bracketleft" unicode="[" horiz-adv-x="341" 
d="M306 -176h-226v886h226v-93h-121v-699h121v-94z" />
    <glyph glyph-name="backslash" unicode="\" horiz-adv-x="502" 
d="M25 764h109l343 -846h-108z" />
    <glyph glyph-name="bracketright" unicode="]" horiz-adv-x="342" 
d="M262 -175h-226v94h121v699h-121v93h226v-886z" />
    <glyph glyph-name="asciicircum" unicode="^" horiz-adv-x="623" 
d="M42 345v5l231 351h70l237 -350l-1 -6h-113l-158 242l-158 -242h-108z" />
    <glyph glyph-name="underscore" unicode="_" horiz-adv-x="601" 
d="M65 -101v92h471v-92h-471z" />
    <glyph glyph-name="grave" unicode="`" horiz-adv-x="234" 
d="M2 698v4h124l74 -135v-5h-93z" />
    <glyph glyph-name="a" unicode="a" 
d="M463 415l3 78h100v-493h-98l-5 80c-32 -64 -110 -93 -170 -93c-144 0 -253 92 -253 260c0 165 114 257 255 257c71 0 137 -33 168 -89zM303 410c-88 0 -160 -63 -160 -163c0 -101 72 -164 160 -164c213 0 213 327 0 327z" />
    <glyph glyph-name="b" unicode="b" 
d="M337 407c-86 0 -158 -64 -158 -160c0 -97 71 -161 158 -161c85 0 156 61 156 161s-71 160 -156 160zM70 699h103v-283c32 59 113 88 173 88c142 0 250 -89 250 -257c0 -164 -109 -257 -252 -257c-67 0 -132 25 -171 88l-6 -78h-97v699z" />
    <glyph glyph-name="c" unicode="c" horiz-adv-x="509" 
d="M417 133l70 -69c-56 -55 -115 -77 -187 -77c-142 0 -260 88 -260 259s117 259 260 259c68 0 125 -21 178 -73l-66 -69c-31 31 -72 44 -111 44c-89 0 -158 -63 -158 -161c0 -104 72 -159 157 -159c43 0 85 13 117 46z" />
    <glyph glyph-name="d" unicode="d" 
d="M299 407c-88 0 -156 -60 -156 -160s68 -161 156 -161c85 0 157 64 157 161c0 96 -72 160 -157 160zM463 699h103v-699h-97l-6 78c-39 -63 -106 -88 -171 -88c-143 0 -252 93 -252 257c0 168 107 257 250 257c60 0 141 -29 173 -88v283z" />
    <glyph glyph-name="e" unicode="e" horiz-adv-x="582" 
d="M547 208h-400c9 -76 70 -124 161 -124c51 0 112 18 143 53l67 -65c-51 -57 -136 -84 -212 -84c-162 0 -266 103 -266 261c0 150 105 257 259 257c159 0 267 -98 248 -298zM149 295h299c-7 79 -62 119 -146 119c-76 0 -137 -40 -153 -119z" />
    <glyph glyph-name="f" unicode="f" horiz-adv-x="390" 
d="M226 0h-104v396h-94v91h94v36c0 123 77 187 178 187c43 0 84 -14 121 -39l-40 -77c-27 17 -48 26 -75 26c-47 0 -80 -30 -80 -97v-36h149v-91h-149v-396z" />
    <glyph glyph-name="g" unicode="g" horiz-adv-x="614" 
d="M440 474l54 66l75 -58l-59 -69c41 -48 60 -92 60 -153c0 -88 -43 -157 -131 -192c101 -35 130 -102 130 -161c0 -134 -132 -201 -264 -201c-160 0 -265 82 -260 219h103c-3 -76 75 -119 157 -119c76 0 157 32 157 101s-63 107 -155 107c-160 0 -267 92 -267 246
c0 165 134 248 267 248c41 0 99 -10 133 -34zM307 412c-84 0 -163 -49 -163 -152c0 -98 74 -151 163 -151c92 0 160 62 160 151c0 97 -75 152 -160 152z" />
    <glyph glyph-name="h" unicode="h" horiz-adv-x="599" 
d="M70 700h103v-280c43 60 100 80 160 80c140 0 203 -93 203 -234v-266h-103v265c0 93 -48 139 -124 139c-80 0 -136 -66 -136 -147v-257h-103v700z" />
    <glyph glyph-name="i" unicode="i" horiz-adv-x="243" 
d="M70 495h103v-495h-103v495zM58 638c0 84 128 84 128 0c0 -85 -128 -85 -128 0z" />
    <glyph glyph-name="j" unicode="j" horiz-adv-x="243" 
d="M70 495h103v-553c0 -125 -44 -189 -156 -189c-35 0 -69 8 -104 31l37 81c23 -11 44 -16 63 -15c49 1 57 35 57 92v553zM58 640c0 84 128 84 128 0c0 -85 -128 -85 -128 0z" />
    <glyph glyph-name="k" unicode="k" horiz-adv-x="514" 
d="M70 699h104v-408l183 202h125v-6l-213 -226l242 -254v-7h-126l-211 228v-228h-104v699z" />
    <glyph glyph-name="l" unicode="l" horiz-adv-x="251" 
d="M74 699h103v-699h-103v699z" />
    <glyph glyph-name="m" unicode="m" horiz-adv-x="907" 
d="M511 0h-104v271c0 73 -42 134 -115 134c-72 0 -119 -61 -119 -134v-271h-103v494h96l7 -66c28 55 86 74 138 74c64 0 125 -26 155 -99c40 73 101 98 169 98c137 0 209 -85 209 -228v-273h-104v273c0 73 -37 131 -109 131c-73 0 -120 -60 -120 -133v-271z" />
    <glyph glyph-name="n" unicode="n" horiz-adv-x="610" 
d="M548 0h-104v264c0 85 -48 142 -133 142c-83 0 -138 -67 -138 -148v-258h-103v494h94l6 -72c47 53 102 79 166 79c119 0 212 -84 212 -236v-265z" />
    <glyph glyph-name="o" unicode="o" horiz-adv-x="588" 
d="M293 503c152 0 256 -113 256 -257c0 -146 -100 -256 -256 -256c-155 0 -254 110 -254 256c0 144 101 257 254 257zM293 408c-93 0 -151 -75 -151 -162c0 -88 58 -160 151 -160c95 0 152 72 152 160c0 87 -61 162 -152 162z" />
    <glyph glyph-name="p" unicode="p" 
d="M337 89c91 0 156 65 156 157c0 93 -61 157 -156 157s-155 -69 -155 -157s64 -157 155 -157zM173 -229h-103v722h97l6 -80c39 60 107 90 174 90c148 0 249 -109 249 -257c0 -149 -96 -257 -249 -257c-60 0 -137 21 -174 83v-301z" />
    <glyph glyph-name="q" unicode="q" horiz-adv-x="637" 
d="M299 89c91 0 155 69 155 157s-60 157 -155 157s-155 -64 -155 -157c0 -92 64 -157 155 -157zM567 -229h-103v301c-37 -61 -114 -83 -174 -83c-154 0 -250 108 -250 257c0 148 101 257 250 257c67 0 134 -30 173 -90l6 80h98v-722z" />
    <glyph glyph-name="r" unicode="r" horiz-adv-x="440" 
d="M70 493h96l7 -65c36 63 92 76 145 76c48 0 94 -17 122 -42l-47 -90c-25 20 -48 30 -87 30c-71 0 -133 -44 -133 -135v-267h-103v493z" />
    <glyph glyph-name="s" unicode="s" horiz-adv-x="499" 
d="M443 440l-58 -68c-39 36 -81 46 -130 46c-64 1 -105 -20 -105 -59c1 -41 43 -56 107 -63c91 -8 209 -27 209 -155c0 -92 -83 -156 -210 -156c-80 0 -160 18 -225 91l54 73c47 -51 114 -72 173 -73c47 0 105 18 105 64c1 44 -41 61 -114 68c-92 8 -201 40 -201 148
c0 109 113 150 205 150c76 0 134 -17 190 -66z" />
    <glyph glyph-name="t" unicode="t" horiz-adv-x="407" 
d="M125 624l104 11v-143h144v-89h-145v-235c0 -52 23 -81 71 -81c20 0 43 6 63 17l30 -88c-35 -15 -64 -22 -99 -22c-108 -3 -168 57 -168 174v235h-95v89h95v132z" />
    <glyph glyph-name="u" unicode="u" horiz-adv-x="609" 
d="M62 493h103v-264c0 -84 47 -142 134 -142c81 0 137 66 137 149v257h103v-494h-93l-6 73c-48 -56 -101 -80 -170 -80c-121 0 -208 87 -208 236v265z" />
    <glyph glyph-name="v" unicode="v" horiz-adv-x="568" 
d="M437 494h113l-209 -496h-113l-210 496h114l66 -159l87 -229l78 209z" />
    <glyph glyph-name="w" unicode="w" horiz-adv-x="848" 
d="M380 494h89l118 -388l122 388h115l-173 -496h-120l-58 164l-48 172l-49 -172l-58 -164h-120l-174 496h116l122 -388z" />
    <glyph glyph-name="x" unicode="x" horiz-adv-x="514" 
d="M257 317l109 176h125v-3l-166 -239l177 -248v-3h-124l-121 179l-121 -179h-124v3l177 248l-166 239v3h124z" />
    <glyph glyph-name="y" unicode="y" horiz-adv-x="558" 
d="M427 493h115l-311 -722h-114l102 236l-197 486h120l85 -233l49 -140l53 138z" />
    <glyph glyph-name="z" unicode="z" horiz-adv-x="477" 
d="M47 493h389v-48l-248 -344h250v-101h-408v42l255 357h-238v94z" />
    <glyph glyph-name="braceleft" unicode="{" horiz-adv-x="344" 
d="M306 -63v-81c-147 -25 -201 36 -201 167v133c0 42 -9 92 -72 92v78c63 0 72 50 72 93v138c0 124 61 183 201 158v-79c-71 16 -94 -7 -94 -83v-134c0 -60 3 -110 -70 -132c73 -22 70 -73 70 -131v-138c0 -74 18 -92 94 -81z" />
    <glyph glyph-name="bar" unicode="|" horiz-adv-x="264" 
d="M183 740v-833h-102v833h102z" />
    <glyph glyph-name="braceright" unicode="}" horiz-adv-x="344" 
d="M38 -148v81c76 -11 94 7 94 82v137c0 58 -3 109 70 131c-73 22 -70 72 -70 132v134c0 76 -23 99 -94 83v80c140 25 201 -35 201 -158v-139c0 -43 7 -93 72 -93v-78c-65 0 -72 -50 -72 -92v-133c0 -131 -54 -192 -201 -167z" />
    <glyph glyph-name="asciitilde" unicode="~" horiz-adv-x="619" 
d="M481 367l77 -26c-29 -90 -97 -151 -194 -113c-46 16 -97 63 -139 68c-36 9 -71 -10 -91 -57l-71 28c31 93 99 128 170 115c67 -5 106 -54 157 -70c41 -16 71 2 91 55z" />
    <glyph glyph-name="Euro" unicode="&#x20ac;" horiz-adv-x="613" 
d="M546 108l31 -104c-39 -12 -81 -18 -122 -18c-204 0 -310 104 -345 251h-67v84h55v24c0 11 0 19 1 30h-56v85h69c34 143 146 252 343 252c37 0 72 -5 106 -15l-34 -100c-24 7 -48 9 -72 9c-123 0 -196 -58 -229 -146h239l-19 -85h-244c-1 -9 -1 -20 -1 -29
c0 -8 0 -18 1 -25h228l-17 -84h-189c31 -88 104 -146 231 -146c30 0 60 6 91 17z" />
    <glyph glyph-name="quotesinglbase" unicode="&#x201a;" horiz-adv-x="257" 
d="M33 -122l47 211h109l-73 -211h-83z" />
    <glyph glyph-name="florin" unicode="&#x192;" horiz-adv-x="459" 
d="M146 -2v398h-94v91h94v36c0 123 77 187 178 187c43 0 84 -14 121 -39l-40 -77c-27 17 -48 26 -75 26c-47 0 -80 -30 -80 -97v-36h149v-91h-149v-398c0 -123 -74 -187 -175 -187c-41 0 -71 11 -108 36l39 76c25 -17 37 -22 64 -22c47 0 76 30 76 97z" />
    <glyph glyph-name="quotedblbase" unicode="&#x201e;" horiz-adv-x="420" 
d="M33 -122l47 211h109l-73 -211h-83zM196 -122l47 211h109l-73 -211h-83z" />
    <glyph glyph-name="ellipsis" unicode="&#x2026;" horiz-adv-x="671" 
d="M58 55c0 84 127 84 127 0c0 -85 -127 -85 -127 0zM272 55c0 84 128 84 128 0c0 -85 -128 -85 -128 0zM486 55c0 84 127 84 127 0c0 -85 -127 -85 -127 0z" />
    <glyph glyph-name="dagger" unicode="&#x2020;" horiz-adv-x="581" 
d="M347 699v-189h200v-95h-200v-535h-113v535h-200v95h200v189h113z" />
    <glyph glyph-name="daggerdbl" unicode="&#x2021;" horiz-adv-x="621" 
d="M366 699v-188h201v-94h-201v-235h201v-94h-201v-215h-111v215h-201v94h201v235h-201v94h201v188h111z" />
    <glyph glyph-name="circumflex" unicode="&#x2c6;" horiz-adv-x="421" 
d="M172 711h60l147 -136v-6h-107l-70 60l-70 -60h-107v6z" />
    <glyph glyph-name="perthousand" unicode="&#x2030;" horiz-adv-x="1116" 
d="M196 709c210 0 209 -304 0 -304s-209 304 0 304zM553 702h99l-452 -702h-100zM195 635c-104 0 -105 -155 2 -155c105 0 102 155 -2 155zM553 297c210 0 211 -304 0 -304c-209 0 -209 304 0 304zM552 223c-104 0 -105 -155 2 -155c105 0 102 155 -2 155zM925 297
c210 0 210 -304 0 -304c-209 0 -209 304 0 304zM924 223c-104 0 -105 -155 2 -155c105 0 102 155 -2 155z" />
    <glyph glyph-name="Scaron" unicode="&#x160;" horiz-adv-x="660" 
d="M591 602l-85 -57c-33 48 -100 77 -173 78c-94 0 -162 -38 -162 -106s78 -87 170 -100c144 -21 281 -59 281 -217c0 -157 -144 -216 -290 -216c-135 0 -237 41 -301 159l84 56c51 -85 137 -115 218 -115c84 0 177 27 177 116c0 76 -80 102 -179 115
c-139 19 -271 54 -271 204c0 145 143 201 270 201c101 0 202 -24 261 -118zM159 910v6h106l72 -62l75 62h103v-6l-149 -137h-61z" />
    <glyph glyph-name="guilsinglleft" unicode="&#x2039;" horiz-adv-x="330" 
d="M38 297l139 220h111v-1l-138 -219c46 -75 92 -149 138 -222h-111z" />
    <glyph glyph-name="OE" unicode="&#x152;" horiz-adv-x="1008" 
d="M954 101v-101h-449c-30 -9 -64 -13 -103 -13c-240 0 -356 165 -356 366c0 203 118 359 356 359c39 0 75 -7 104 -12h444v-100h-342v-196h326v-100h-326v-203h346zM403 618c-165 0 -245 -120 -245 -267c0 -128 75 -258 224 -266c44 -4 85 0 123 13v502
c-29 12 -63 18 -102 18z" />
    <glyph glyph-name="Zcaron" unicode="&#x17d;" horiz-adv-x="609" 
d="M58 597v103h511v-51l-385 -542h385v-107h-543v63l378 534h-346zM145 910v6h106l72 -62l75 62h103v-6l-149 -137h-61z" />
    <glyph glyph-name="quoteleft" unicode="&#x2018;" horiz-adv-x="246" 
d="M203 701l-47 -210h-109l73 210h83z" />
    <glyph glyph-name="quoteright" unicode="&#x2019;" horiz-adv-x="242" 
d="M52 489l48 211h108l-73 -211h-83z" />
    <glyph glyph-name="quotedblleft" unicode="&#x201c;" horiz-adv-x="409" 
d="M365 699l-48 -211h-101l66 211h83zM207 699l-52 -211h-105l74 211h83z" />
    <glyph glyph-name="quotedblright" unicode="&#x201d;" horiz-adv-x="396" 
d="M52 491l48 209h101l-66 -209h-83zM211 491l47 209h102l-66 -209h-83z" />
    <glyph glyph-name="bullet" unicode="&#x2022;" horiz-adv-x="393" 
d="M197 193c-67 0 -116 44 -116 112s49 114 116 114c65 0 114 -46 114 -114s-49 -112 -114 -112z" />
    <glyph glyph-name="endash" unicode="&#x2013;" horiz-adv-x="596" 
d="M65 241v91h466v-91h-466z" />
    <glyph glyph-name="emdash" unicode="&#x2014;" horiz-adv-x="695" 
d="M65 241v92h565v-92h-565z" />
    <glyph glyph-name="tilde" unicode="&#x2dc;" horiz-adv-x="363" 
d="M89 607l-61 33c19 56 58 94 118 81c24 -7 45 -21 68 -29s51 -9 62 26l66 -25c-13 -80 -73 -96 -119 -85c-24 7 -45 21 -68 29s-50 5 -66 -30z" />
    <glyph glyph-name="trademark" unicode="&#x2122;" horiz-adv-x="811" 
d="M395 700h75l94 -120l96 120h74v-290h-79l3 173c-27 -35 -59 -72 -86 -107h-17l-85 111l3 -177h-78v290zM162 633h-100v67h275v-67h-98v-222h-77v222z" />
    <glyph glyph-name="scaron" unicode="&#x161;" horiz-adv-x="499" 
d="M443 440l-58 -68c-39 36 -81 46 -130 46c-64 1 -105 -20 -105 -59c1 -41 43 -56 107 -63c91 -8 209 -27 209 -155c0 -92 -83 -156 -210 -156c-80 0 -160 18 -225 91l54 73c47 -51 114 -72 173 -73c47 0 105 18 105 64c1 44 -41 61 -114 68c-92 8 -201 40 -201 148
c0 109 113 150 205 150c76 0 134 -17 190 -66zM96 690v6h96l65 -57l68 57h93v-6l-135 -124h-55z" />
    <glyph glyph-name="guilsinglright" unicode="&#x203a;" horiz-adv-x="331" 
d="M153 518l139 -220l-139 -222h-110l137 222l-137 219v1h110z" />
    <glyph glyph-name="oe" unicode="&#x153;" horiz-adv-x="971" 
d="M936 208h-396c8 -76 66 -124 157 -124c50 0 111 18 143 53l67 -65c-51 -56 -135 -84 -211 -84c-96 0 -169 41 -208 113c-43 -72 -106 -111 -195 -111c-155 0 -254 110 -254 256c0 145 101 258 254 258c87 0 161 -40 200 -112c31 65 105 113 196 113
c158 0 266 -96 247 -297zM293 408c-93 0 -151 -75 -151 -162c0 -88 58 -160 151 -160c96 0 151 72 151 160c0 87 -61 162 -151 162zM539 295h298c-7 79 -62 119 -145 119c-76 0 -137 -40 -153 -119z" />
    <glyph glyph-name="zcaron" unicode="&#x17e;" horiz-adv-x="477" 
d="M47 493h389v-48l-248 -344h250v-101h-408v42l255 357h-238v94zM89 694v6h95l65 -57l68 57h93v-6l-135 -124h-54z" />
    <glyph glyph-name="Ydieresis" unicode="&#x178;" horiz-adv-x="686" 
d="M149 700l193 -309l199 309h135v-5l-278 -408v-287h-112v287l-270 408v5h133zM166 831c0 77 119 77 119 0c0 -78 -119 -78 -119 0zM395 831c0 77 119 77 119 0c0 -78 -119 -78 -119 0z" />
    <glyph glyph-name="exclamdown" unicode="&#xa1;" horiz-adv-x="258" 
d="M185 -224h-111v526h111v-526zM198 432c0 -92 -139 -92 -139 0s139 92 139 0z" />
    <glyph glyph-name="cent" unicode="&#xa2;" horiz-adv-x="538" 
d="M482 428l-57 -72c-31 27 -77 42 -114 42c-86 0 -158 -56 -158 -163c0 -100 72 -163 158 -163c40 0 91 24 122 55l65 -75c-40 -39 -90 -63 -143 -71v-71h-97v72c-120 24 -207 106 -207 253c0 137 80 227 207 252v70h97v-69c48 -8 90 -28 127 -60z" />
    <glyph glyph-name="sterling" unicode="&#xa3;" horiz-adv-x="656" 
d="M223 487c0 -40 10 -78 18 -117h220v-94h-200c8 -55 -12 -135 -75 -175h417v-101h-545v105c75 39 96 100 91 171h-91v94h73c-9 35 -20 76 -20 115c0 144 100 225 251 225c133 0 232 -56 237 -204h-100c-5 76 -60 108 -137 108c-96 0 -139 -55 -139 -127z" />
    <glyph glyph-name="currency" unicode="&#xa4;" horiz-adv-x="613" 
d="M306 199c77 0 117 59 117 119c0 61 -40 120 -117 120c-74 0 -117 -59 -117 -120c0 -60 43 -119 117 -119zM203 136l-59 -59l-78 77l59 58c-39 68 -36 146 3 211l-62 59l78 78l58 -59c31 16 66 24 105 24c37 0 72 -8 103 -25l60 60l77 -78l-58 -58c37 -67 39 -148 0 -212
l58 -58l-76 -76l-60 58c-31 -16 -66 -23 -105 -23c-38 0 -72 8 -103 23z" />
    <glyph glyph-name="yen" unicode="&#xa5;" horiz-adv-x="719" 
d="M145 129v82h155v54h-155v83h114l-229 347v5h130l196 -309l205 309h129v-5l-236 -347h113v-83h-155v-54h155v-82h-155v-129h-112v129h-155z" />
    <glyph glyph-name="brokenbar" unicode="&#xa6;" horiz-adv-x="271" 
d="M189 341h-107v368h107v-368zM82 277h107v-367h-107v367z" />
    <glyph glyph-name="section" unicode="&#xa7;" horiz-adv-x="598" 
d="M54 78l68 70c47 -55 108 -74 176 -73c64 0 131 22 134 65c3 37 -59 53 -133 56c-114 3 -242 40 -237 149c0 37 32 87 90 105c-61 15 -86 63 -85 108c5 120 145 154 246 154c72 0 162 -18 213 -75l-68 -59c-44 35 -88 43 -148 44c-67 0 -134 -20 -134 -61
c0 -44 73 -58 128 -61c106 -3 249 -31 238 -155c-3 -47 -39 -83 -90 -96c60 -19 93 -67 90 -111c-5 -121 -158 -157 -248 -157c-95 0 -188 30 -240 97zM435 348c4 89 -266 98 -266 0c-2 -87 264 -87 266 0z" />
    <glyph glyph-name="dieresis" unicode="&#xa8;" horiz-adv-x="455" 
d="M53 661c0 82 124 82 124 0c0 -83 -124 -83 -124 0zM293 661c0 82 125 82 125 0c0 -83 -125 -83 -125 0z" />
    <glyph glyph-name="copyright" unicode="&#xa9;" horiz-adv-x="825" 
d="M415 717c232 0 361 -166 361 -365c0 -198 -129 -365 -361 -365s-366 167 -366 365c0 199 134 365 366 365zM430 159c-112 0 -201 72 -201 193c0 120 89 195 201 195c56 0 103 -22 142 -61l-57 -53c-24 23 -50 35 -85 35c-65 0 -119 -44 -119 -116c0 -69 55 -113 119 -113
c35 0 61 13 86 37l57 -55c-40 -39 -86 -62 -143 -62zM141 352c0 -157 103 -282 274 -282c172 0 269 125 269 282s-97 283 -269 283c-171 0 -274 -126 -274 -283z" />
    <glyph glyph-name="ordfeminine" unicode="&#xaa;" horiz-adv-x="493" 
d="M338 652l1 48h80v-323h-79l-2 51c-23 -39 -71 -60 -111 -60c-94 0 -166 60 -166 171c0 112 74 168 168 168c44 0 88 -20 109 -55zM236 632c-51 0 -91 -34 -91 -93c0 -57 40 -93 91 -93c121 0 121 186 0 186zM81 227v85h336v-85h-336z" />
    <glyph glyph-name="guillemotleft" unicode="&#xab;" horiz-adv-x="499" 
d="M38 297l139 220h111v-1l-138 -219c46 -75 92 -149 138 -222h-111zM208 297l139 220h110v-1l-137 -219l137 -222h-110z" />
    <glyph glyph-name="logicalnot" unicode="&#xac;" horiz-adv-x="528" 
d="M453 377v-220h-89v129h-294v91h383z" />
    <glyph glyph-name="registered" unicode="&#xae;" horiz-adv-x="823" 
d="M411 715c232 0 362 -167 362 -365s-130 -365 -362 -365c-231 0 -361 167 -361 365s130 365 361 365zM142 350c0 -157 98 -282 269 -282c172 0 269 125 269 282s-97 283 -269 283c-171 0 -269 -126 -269 -283zM490 302l98 -118v-18h-91l-96 122h-47v-122h-84v371h174
c162 0 183 -207 46 -235zM444 461h-90v-101h89c70 0 71 101 1 101z" />
    <glyph glyph-name="macron" unicode="&#xaf;" horiz-adv-x="426" 
d="M35 614v88h347v-88h-347z" />
    <glyph glyph-name="degree" unicode="&#xb0;" horiz-adv-x="345" 
d="M172 659c-78 0 -80 -113 0 -113c77 0 77 113 0 113zM173 723c164 0 166 -240 0 -240c-169 0 -165 240 0 240z" />
    <glyph glyph-name="plusminus" unicode="&#xb1;" horiz-adv-x="534" 
d="M67 326v97h150v152h99v-152h151v-97h-151v-152h-99v152h-150zM69 26v95h396v-95h-396z" />
    <glyph glyph-name="twosuperior" unicode="&#xb2;" horiz-adv-x="366" 
d="M117 663h-77c0 79 73 112 140 112c83 0 148 -31 148 -115c0 -162 -211 -75 -211 -164v-16h207v-76h-286v92c0 148 212 78 212 164c0 35 -28 47 -69 47c-33 0 -63 -11 -64 -44z" />
    <glyph glyph-name="threesuperior" unicode="&#xb3;" horiz-adv-x="372" 
d="M184 561h-56v61h52c39 0 67 7 68 44c0 15 -15 43 -67 43c-32 0 -65 -7 -72 -43h-69c0 78 74 109 142 109s144 -34 144 -110c0 -32 -18 -63 -50 -74c39 -11 59 -45 59 -76c0 -90 -83 -118 -155 -118c-68 0 -147 30 -147 113h81c7 -35 40 -42 69 -42c31 0 70 10 70 45
c0 23 -16 48 -69 48z" />
    <glyph glyph-name="acute" unicode="&#xb4;" horiz-adv-x="224" 
d="M205 699v-4l-105 -133h-93v5l74 132h124z" />
    <glyph glyph-name="mu" unicode="&#xb5;" horiz-adv-x="612" 
d="M557 0h-100l-10 71c-56 -99 -221 -108 -267 -1v-289h-103v714h109v-271c0 -181 260 -185 260 13v258h111v-495z" />
    <glyph glyph-name="paragraph" unicode="&#xb6;" horiz-adv-x="834" 
d="M384 596v-810h-111v393c-160 11 -240 137 -240 260c0 130 91 261 267 261h497v-104h-96v-810h-111v810h-206z" />
    <glyph glyph-name="periodcentered" unicode="&#xb7;" horiz-adv-x="262" 
d="M64 278c0 88 134 88 134 0s-134 -88 -134 0z" />
    <glyph glyph-name="cedilla" unicode="&#xb8;" horiz-adv-x="296" 
d="M30 -165l47 40c15 -23 41 -33 68 -34c27 0 49 8 56 31c11 38 -40 64 -88 40l-23 19l29 92h76l-15 -52c89 -3 111 -61 100 -112c-13 -61 -72 -90 -129 -89c-48 1 -96 22 -121 65z" />
    <glyph glyph-name="onesuperior" unicode="&#xb9;" horiz-adv-x="266" 
d="M36 404v68h63v209l-54 -13v67l132 33v-296h64v-68h-205z" />
    <glyph glyph-name="ordmasculine" unicode="&#xba;" horiz-adv-x="475" 
d="M80 236v77h317v-77h-317zM237 368c-98 0 -174 60 -174 171c0 109 75 168 174 168s175 -59 175 -168c0 -111 -76 -171 -175 -171zM237 446c51 0 91 36 91 93c0 59 -40 93 -91 93s-90 -34 -90 -93c0 -57 39 -93 90 -93z" />
    <glyph glyph-name="guillemotright" unicode="&#xbb;" horiz-adv-x="498" 
d="M320 519l139 -220l-139 -222h-110l137 222l-137 219v1h110zM153 519l139 -220l-139 -222h-111l138 222l-138 219v1h111z" />
    <glyph glyph-name="onequarter" unicode="&#xbc;" horiz-adv-x="774" 
d="M587 364h102v-227h49v-69h-49v-68h-77v68h-192l-4 66zM612 137v152l-113 -152h113zM229 -1h-92l383 707h93zM47 337v68h62v209l-53 -12v67l131 33v-297h65v-68h-205z" />
    <glyph glyph-name="onehalf" unicode="&#xbd;" horiz-adv-x="804" 
d="M556 256h-78c0 79 73 112 140 112c83 0 148 -31 148 -115c0 -159 -209 -72 -209 -164v-19h203v-73h-284v92c0 148 212 78 212 164c0 35 -28 47 -68 47c-33 0 -64 -11 -64 -44zM227 -2h-92l382 708h93zM45 338v68h62v209l-53 -13v67l131 33v-296h65v-68h-205z" />
    <glyph glyph-name="threequarters" unicode="&#xbe;" horiz-adv-x="800" 
d="M622 364h102v-227h42v-69h-42v-68h-77v68h-192l-4 66zM647 137v152l-113 -152h113zM184 506h-55v59h51c37 0 65 6 66 41c0 15 -14 43 -66 43c-31 0 -64 -7 -69 -42h-67c0 75 73 106 137 106c68 0 141 -34 141 -107c0 -31 -18 -62 -50 -71c37 -11 57 -45 57 -74
c0 -87 -81 -114 -149 -114c-67 0 -142 29 -142 109h78c7 -33 38 -41 66 -41c31 0 69 11 69 44c0 23 -16 47 -67 47zM274 -4h-92l383 710h93z" />
    <glyph glyph-name="questiondown" unicode="&#xbf;" horiz-adv-x="601" 
d="M397 443c0 -90 -139 -92 -139 1c0 91 139 93 139 -1zM570 14c0 -149 -130 -211 -268 -211s-271 55 -268 210c0 146 139 165 195 202c28 19 40 42 43 89v23c37 0 74 -1 111 -1c0 -138 -50 -177 -121 -206c-54 -27 -113 -40 -113 -109c0 -90 84 -109 154 -109
c72 0 150 34 153 113c39 0 75 -1 114 -1z" />
    <glyph glyph-name="Agrave" unicode="&#xc0;" horiz-adv-x="768" 
d="M640 0l-67 147h-379l-66 -147h-119l314 700h122l314 -700h-119zM532 249l-148 333l-148 -333h296zM245 879v4h124l74 -135v-5h-93z" />
    <glyph glyph-name="Aacute" unicode="&#xc1;" horiz-adv-x="768" 
d="M640 0l-67 147h-379l-66 -147h-119l314 700h122l314 -700h-119zM532 249l-148 333l-148 -333h296zM524 881v-4l-105 -133h-93v5l74 132h124z" />
    <glyph glyph-name="Acircumflex" unicode="&#xc2;" horiz-adv-x="768" 
d="M640 0l-67 147h-379l-66 -147h-119l314 700h122l314 -700h-119zM532 249l-148 333l-148 -333h296zM354 885h60l147 -136v-6h-107l-70 60l-70 -60h-107v6z" />
    <glyph glyph-name="Atilde" unicode="&#xc3;" horiz-adv-x="768" 
d="M640 0l-67 147h-379l-66 -147h-119l314 700h122l314 -700h-119zM532 249l-148 333l-148 -333h296zM287 740l-61 33c19 56 58 94 118 81c24 -7 45 -21 68 -29s51 -9 62 26l66 -25c-13 -80 -73 -96 -119 -85c-24 7 -45 21 -68 29s-50 5 -66 -30z" />
    <glyph glyph-name="Adieresis" unicode="&#xc4;" horiz-adv-x="768" 
d="M640 0l-67 147h-379l-66 -147h-119l314 700h122l314 -700h-119zM532 249l-148 333l-148 -333h296zM201 832c0 82 124 82 124 0c0 -83 -124 -83 -124 0zM441 832c0 82 125 82 125 0c0 -83 -125 -83 -125 0z" />
    <glyph glyph-name="Aring" unicode="&#xc5;" horiz-adv-x="768" 
d="M258 795c0 76 63 115 126 115c61 0 126 -39 126 -115c0 -49 -26 -83 -63 -100l312 -695h-122l-66 147h-375l-66 -147h-121l311 695c-37 17 -62 51 -62 100zM239 247h289l-76 174l-68 174l-70 -177zM383 849c-77 0 -77 -106 0 -106c80 0 78 106 0 106z" />
    <glyph glyph-name="AE" unicode="&#xc6;" horiz-adv-x="913" 
d="M859 101v-101h-421v168h-231l-103 -168h-126l440 700h436v-98h-314v-200h300v-98h-300v-203h319zM270 268h168v139l7 160h-1z" />
    <glyph glyph-name="Ccedilla" unicode="&#xc7;" horiz-adv-x="704" 
d="M267 -197l47 40c27 -43 111 -45 124 -3c11 34 -39 66 -88 41l-23 18l28 91c-212 24 -309 187 -309 355c0 184 118 367 369 367c95 0 184 -34 256 -106l-75 -72c-51 49 -116 72 -181 72c-179 0 -258 -131 -258 -260c0 -128 78 -255 258 -255c65 0 137 27 186 76l77 -77
c-68 -68 -155 -101 -248 -104l-13 -47c88 -3 112 -61 101 -112c-11 -47 -49 -75 -92 -84c-56 -13 -127 6 -159 60z" />
    <glyph glyph-name="Egrave" unicode="&#xc8;" horiz-adv-x="661" 
d="M605 110v-110h-517v700h514v-109h-402v-189h386v-104h-386v-188h405zM222 879v4h124l74 -135v-5h-93z" />
    <glyph glyph-name="Eacute" unicode="&#xc9;" horiz-adv-x="661" 
d="M605 110v-110h-517v700h514v-109h-402v-189h386v-104h-386v-188h405zM479 881v-4l-105 -133h-93v5l74 132h124z" />
    <glyph glyph-name="Ecircumflex" unicode="&#xca;" horiz-adv-x="661" 
d="M605 110v-110h-517v700h514v-109h-402v-189h386v-104h-386v-188h405zM319 885h60l147 -136v-6h-107l-70 60l-70 -60h-107v6z" />
    <glyph glyph-name="Edieresis" unicode="&#xcb;" horiz-adv-x="661" 
d="M605 110v-110h-517v700h514v-109h-402v-189h386v-104h-386v-188h405zM174 834c0 82 124 82 124 0c0 -83 -124 -83 -124 0zM414 834c0 82 125 82 125 0c0 -83 -125 -83 -125 0z" />
    <glyph glyph-name="Igrave" unicode="&#xcc;" horiz-adv-x="287" 
d="M199 0h-111v700h111v-700zM1 879v4h124l74 -135v-5h-93z" />
    <glyph glyph-name="Iacute" unicode="&#xcd;" horiz-adv-x="287" 
d="M199 0h-111v700h111v-700zM286 881v-4l-105 -133h-93v5l74 132h124z" />
    <glyph glyph-name="Icircumflex" unicode="&#xce;" horiz-adv-x="287" 
d="M199 0h-111v700h111v-700zM116 910h54l132 -135v-6h-96l-63 59l-62 -59h-97v6z" />
    <glyph glyph-name="Idieresis" unicode="&#xcf;" horiz-adv-x="287" 
d="M-18 831c0 82 124 82 124 0c0 -83 -124 -83 -124 0zM187 831c0 82 125 82 125 0c0 -83 -125 -83 -125 0zM199 0h-111v700h111v-700z" />
    <glyph glyph-name="Eth" unicode="&#xd0;" horiz-adv-x="758" 
d="M18 301v94h79v305h254c235 0 361 -158 361 -338c0 -189 -113 -362 -361 -362h-254v301h-79zM206 301v-197h145c171 0 250 114 250 255s-86 239 -250 239h-145v-203h142v-94h-142z" />
    <glyph glyph-name="Ntilde" unicode="&#xd1;" horiz-adv-x="771" 
d="M174 700l397 -498v498h112v-700h-85l-397 494v-494h-113v700h86zM290 773l-61 33c19 56 58 94 118 81c24 -7 45 -21 68 -29s51 -9 62 26l66 -25c-13 -80 -73 -96 -119 -85c-24 7 -45 21 -68 29s-50 5 -66 -30z" />
    <glyph glyph-name="Ograve" unicode="&#xd2;" horiz-adv-x="806" 
d="M405 713c239 0 356 -177 356 -366s-115 -362 -358 -362s-358 177 -358 361c0 213 149 367 360 367zM156 345c3 -124 73 -257 247 -257s247 124 247 257c0 129 -73 263 -245 266c-163 0 -249 -113 -249 -266zM284 879v4h124l74 -135v-5h-93z" />
    <glyph glyph-name="Oacute" unicode="&#xd3;" horiz-adv-x="806" 
d="M405 713c239 0 356 -177 356 -366s-115 -362 -358 -362s-358 177 -358 361c0 213 149 367 360 367zM156 345c3 -124 73 -257 247 -257s247 124 247 257c0 129 -73 263 -245 266c-163 0 -249 -113 -249 -266zM527 881v-4l-105 -133h-93v5l74 132h124z" />
    <glyph glyph-name="Ocircumflex" unicode="&#xd4;" horiz-adv-x="806" 
d="M405 713c239 0 356 -177 356 -366s-115 -362 -358 -362s-358 177 -358 361c0 213 149 367 360 367zM156 345c3 -124 73 -257 247 -257s247 124 247 257c0 129 -73 263 -245 266c-163 0 -249 -113 -249 -266zM375 885h60l147 -136v-6h-107l-70 60l-70 -60h-107v6z" />
    <glyph glyph-name="Otilde" unicode="&#xd5;" horiz-adv-x="806" 
d="M405 713c239 0 356 -177 356 -366s-115 -362 -358 -362s-358 177 -358 361c0 213 149 367 360 367zM156 345c3 -124 73 -257 247 -257s247 124 247 257c0 129 -73 263 -245 266c-163 0 -249 -113 -249 -266zM307 746l-61 33c19 56 58 94 118 81c24 -7 45 -21 68 -29
s51 -9 62 26l66 -25c-13 -80 -73 -96 -119 -85c-24 7 -45 21 -68 29s-50 5 -66 -30z" />
    <glyph glyph-name="Odieresis" unicode="&#xd6;" horiz-adv-x="806" 
d="M405 713c239 0 356 -177 356 -366s-115 -362 -358 -362s-358 177 -358 361c0 213 149 367 360 367zM156 345c3 -124 73 -257 247 -257s247 124 247 257c0 129 -73 263 -245 266c-163 0 -249 -113 -249 -266zM223 840c0 82 124 82 124 0c0 -83 -124 -83 -124 0zM463 840
c0 82 125 82 125 0c0 -83 -125 -83 -125 0z" />
    <glyph glyph-name="multiply" unicode="&#xd7;" horiz-adv-x="458" 
d="M129 488l102 -106l104 105l60 -59l-106 -108l112 -112l-65 -62l-110 111l-104 -106l-62 62l105 104l-105 104z" />
    <glyph glyph-name="Oslash" unicode="&#xd8;" horiz-adv-x="804" 
d="M404 713c55 0 102 -10 145 -27l46 79h109l-74 -126c88 -71 132 -180 132 -292c-3 -181 -115 -362 -358 -362c-55 0 -104 9 -147 26l-50 -85h-109l78 131c-87 68 -130 177 -130 289c0 184 118 367 358 367zM404 88c172 0 247 132 247 257c1 75 -24 150 -77 201l-262 -444
c28 -9 59 -14 92 -14zM404 611c-174 0 -250 -137 -247 -266c0 -72 25 -144 76 -192l261 442c-27 11 -55 16 -90 16z" />
    <glyph glyph-name="Ugrave" unicode="&#xd9;" horiz-adv-x="751" 
d="M561 699h111v-409c0 -206 -136 -308 -305 -303c-156 3 -289 105 -289 303v409h111v-409c0 -126 74 -197 178 -200c112 -5 194 66 194 200v409zM260 879v4h124l74 -135v-5h-93z" />
    <glyph glyph-name="Uacute" unicode="&#xda;" horiz-adv-x="751" 
d="M561 699h111v-409c0 -206 -136 -308 -305 -303c-156 3 -289 105 -289 303v409h111v-409c0 -126 74 -197 178 -200c112 -5 194 66 194 200v409zM504 881v-4l-105 -133h-93v5l74 132h124z" />
    <glyph glyph-name="Ucircumflex" unicode="&#xdb;" horiz-adv-x="751" 
d="M561 699h111v-409c0 -206 -136 -308 -305 -303c-156 3 -289 105 -289 303v409h111v-409c0 -126 74 -197 178 -200c112 -5 194 66 194 200v409zM343 922h60l147 -136v-6h-107l-70 60l-70 -60h-107v6z" />
    <glyph glyph-name="Udieresis" unicode="&#xdc;" horiz-adv-x="751" 
d="M561 699h111v-409c0 -206 -136 -308 -305 -303c-156 3 -289 105 -289 303v409h111v-409c0 -126 74 -197 178 -200c112 -5 194 66 194 200v409zM194 835c0 82 124 82 124 0c0 -83 -124 -83 -124 0zM434 835c0 82 125 82 125 0c0 -83 -125 -83 -125 0z" />
    <glyph glyph-name="Yacute" unicode="&#xdd;" horiz-adv-x="686" 
d="M149 700l193 -309l199 309h135v-5l-278 -408v-287h-112v287l-270 408v5h133zM467 881v-4l-105 -133h-93v5l74 132h124z" />
    <glyph glyph-name="Thorn" unicode="&#xde;" horiz-adv-x="690" 
d="M87 0l1 699h110v-116h214c332 0 332 -466 0 -466h-213v-117h-112zM199 480v-263h213c185 0 183 263 0 263h-213z" />
    <glyph glyph-name="germandbls" unicode="&#xdf;" horiz-adv-x="619" 
d="M241 4v95c144 -45 230 15 230 104c0 95 -88 136 -172 136h-57v98h53c53 0 127 17 127 82c3 75 -65 96 -120 96c-68 0 -116 -30 -120 -85c-2 -19 -3 -39 -3 -59v-187c0 -84 1 -203 1 -284h-110v515c0 132 116 196 230 196c120 0 231 -61 231 -192
c0 -59 -39 -114 -108 -129c115 -27 157 -111 157 -184c0 -188 -168 -250 -339 -202z" />
    <glyph glyph-name="agrave" unicode="&#xe0;" 
d="M463 415l3 78h100v-493h-98l-5 80c-32 -64 -110 -93 -170 -93c-144 0 -253 92 -253 260c0 165 114 257 255 257c71 0 137 -33 168 -89zM303 410c-88 0 -160 -63 -160 -163c0 -101 72 -164 160 -164c213 0 213 327 0 327zM195 673v4h124l74 -135v-5h-93z" />
    <glyph glyph-name="aacute" unicode="&#xe1;" 
d="M463 415l3 78h100v-493h-98l-5 80c-32 -64 -110 -93 -170 -93c-144 0 -253 92 -253 260c0 165 114 257 255 257c71 0 137 -33 168 -89zM303 410c-88 0 -160 -63 -160 -163c0 -101 72 -164 160 -164c213 0 213 327 0 327zM436 674v-4l-105 -133h-93v5l74 132h124z" />
    <glyph glyph-name="acircumflex" unicode="&#xe2;" 
d="M463 415l3 78h100v-493h-98l-5 80c-32 -64 -110 -93 -170 -93c-144 0 -253 92 -253 260c0 165 114 257 255 257c71 0 137 -33 168 -89zM303 410c-88 0 -160 -63 -160 -163c0 -101 72 -164 160 -164c213 0 213 327 0 327zM297 680h60l147 -136v-6h-107l-70 60l-70 -60
h-107v6z" />
    <glyph glyph-name="atilde" unicode="&#xe3;" 
d="M463 415l3 78h100v-493h-98l-5 80c-32 -64 -110 -93 -170 -93c-144 0 -253 92 -253 260c0 165 114 257 255 257c71 0 137 -33 168 -89zM303 410c-88 0 -160 -63 -160 -163c0 -101 72 -164 160 -164c213 0 213 327 0 327zM229 540l-61 33c19 56 58 94 118 81
c24 -7 45 -21 68 -29s51 -9 62 26l66 -25c-13 -80 -73 -96 -119 -85c-24 7 -45 21 -68 29s-50 5 -66 -30z" />
    <glyph glyph-name="adieresis" unicode="&#xe4;" 
d="M463 415l3 78h100v-493h-98l-5 80c-32 -64 -110 -93 -170 -93c-144 0 -253 92 -253 260c0 165 114 257 255 257c71 0 137 -33 168 -89zM303 410c-88 0 -160 -63 -160 -163c0 -101 72 -164 160 -164c213 0 213 327 0 327zM148 647c0 82 124 82 124 0
c0 -83 -124 -83 -124 0zM388 647c0 82 125 82 125 0c0 -83 -125 -83 -125 0z" />
    <glyph glyph-name="aring" unicode="&#xe5;" 
d="M463 415l3 78h100v-493h-98l-5 80c-32 -64 -110 -93 -170 -93c-144 0 -253 92 -253 260c0 165 114 257 255 257c71 0 137 -33 168 -89zM303 410c-88 0 -160 -63 -160 -163c0 -101 72 -164 160 -164c213 0 213 327 0 327zM191 656c0 72 59 109 124 109
c64 0 128 -37 128 -109s-59 -111 -127 -111c-67 0 -125 40 -125 111zM315 707c-76 0 -76 -100 0 -100c80 0 78 100 0 100z" />
    <glyph glyph-name="ae" unicode="&#xe6;" horiz-adv-x="1012" 
d="M973 208h-401c13 -83 82 -126 160 -126c56 0 115 17 150 53l62 -63c-60 -64 -136 -84 -212 -84c-79 0 -137 28 -173 83l-3 -71h-91l-1 78c-32 -63 -115 -91 -171 -91c-144 0 -253 89 -253 260c0 165 113 257 256 257c69 0 137 -33 169 -89l3 78h92v-72
c44 61 109 85 178 85c157 0 270 -111 235 -298zM304 410c-89 0 -160 -63 -160 -163c0 -101 71 -164 160 -164c219 0 219 327 0 327zM574 295h304c0 79 -59 119 -142 119c-75 0 -146 -41 -162 -119z" />
    <glyph glyph-name="ccedilla" unicode="&#xe7;" horiz-adv-x="512" 
d="M146 -186l46 40c29 -43 114 -56 130 -5c10 37 -49 63 -93 38l-23 18l27 90c-111 24 -193 107 -193 251c0 171 117 259 260 259c68 0 125 -21 178 -73l-66 -69c-31 31 -72 44 -111 44c-89 0 -158 -63 -158 -161c0 -104 72 -159 157 -159c43 0 85 13 117 46l70 -69
c-53 -53 -115 -77 -180 -77l-11 -40c88 0 111 -61 100 -109c-24 -113 -186 -119 -250 -24z" />
    <glyph glyph-name="egrave" unicode="&#xe8;" horiz-adv-x="582" 
d="M547 208h-400c9 -76 70 -124 161 -124c51 0 112 18 143 53l67 -65c-51 -57 -136 -84 -212 -84c-162 0 -266 103 -266 261c0 150 105 257 259 257c159 0 267 -98 248 -298zM149 295h299c-7 79 -62 119 -146 119c-76 0 -137 -40 -153 -119zM195 673v4h124l74 -135v-5h-93z
" />
    <glyph glyph-name="eacute" unicode="&#xe9;" horiz-adv-x="582" 
d="M547 208h-400c9 -76 70 -124 161 -124c51 0 112 18 143 53l67 -65c-51 -57 -136 -84 -212 -84c-162 0 -266 103 -266 261c0 150 105 257 259 257c159 0 267 -98 248 -298zM149 295h299c-7 79 -62 119 -146 119c-76 0 -137 -40 -153 -119zM404 674v-4l-105 -133h-93v5
l74 132h124z" />
    <glyph glyph-name="ecircumflex" unicode="&#xea;" horiz-adv-x="582" 
d="M547 208h-400c9 -76 70 -124 161 -124c51 0 112 18 143 53l67 -65c-51 -57 -136 -84 -212 -84c-162 0 -266 103 -266 261c0 150 105 257 259 257c159 0 267 -98 248 -298zM149 295h299c-7 79 -62 119 -146 119c-76 0 -137 -40 -153 -119zM269 680h60l147 -136v-6h-107
l-70 60l-70 -60h-107v6z" />
    <glyph glyph-name="edieresis" unicode="&#xeb;" horiz-adv-x="582" 
d="M132 644c0 82 124 82 124 0c0 -83 -124 -83 -124 0zM352 644c0 82 125 82 125 0c0 -83 -125 -83 -125 0zM547 208h-400c9 -76 70 -124 161 -124c51 0 112 18 143 53l67 -65c-51 -57 -136 -84 -212 -84c-162 0 -266 103 -266 261c0 150 105 257 259 257
c159 0 267 -98 248 -298zM149 295h299c-7 79 -62 119 -146 119c-76 0 -137 -40 -153 -119z" />
    <glyph glyph-name="igrave" unicode="&#xec;" horiz-adv-x="248" 
d="M178 0h-108v481h108v-481zM-23 673v4h124l74 -135v-5h-93z" />
    <glyph glyph-name="iacute" unicode="&#xed;" horiz-adv-x="248" 
d="M178 0h-108v481h108v-481zM268 674v-4l-105 -133h-93v5l74 132h124z" />
    <glyph glyph-name="icircumflex" unicode="&#xee;" horiz-adv-x="248" 
d="M95 711h53l128 -138v-6h-94l-61 58l-61 -58h-93v6zM178 0h-108v481h108v-481z" />
    <glyph glyph-name="idieresis" unicode="&#xef;" horiz-adv-x="248" 
d="M-25 647c0 82 124 82 124 0c0 -83 -124 -83 -124 0zM158 647c0 82 125 82 125 0c0 -83 -125 -83 -125 0zM178 0h-108v481h108v-481z" />
    <glyph glyph-name="eth" unicode="&#xf0;" horiz-adv-x="591" 
d="M294 84c100 0 148 77 148 155c0 77 -48 154 -148 154c-98 0 -148 -77 -148 -154c0 -78 50 -155 148 -155zM252 480c53 5 121 -5 161 -42c-19 53 -79 102 -111 118l-34 -41l-52 34l29 38c-25 15 -60 24 -87 28l20 85c48 -9 91 -22 128 -39l44 55l53 -38l-39 -48
c138 -103 184 -230 184 -379c0 -152 -94 -261 -254 -261c-170 0 -254 123 -254 248c0 114 70 223 212 242z" />
    <glyph glyph-name="ntilde" unicode="&#xf1;" horiz-adv-x="610" 
d="M548 0h-104v264c0 85 -48 142 -133 142c-83 0 -138 -67 -138 -148v-258h-103v494h94l6 -72c47 53 102 79 166 79c119 0 212 -84 212 -236v-265zM220 596l-55 33c17 56 54 92 107 79c23 -5 42 -20 63 -28s45 -9 56 26l61 -25c-11 -78 -66 -95 -109 -84
c-23 7 -42 21 -62 29c-21 8 -46 5 -61 -30z" />
    <glyph glyph-name="ograve" unicode="&#xf2;" horiz-adv-x="588" 
d="M293 503c152 0 256 -113 256 -257c0 -146 -100 -256 -256 -256c-155 0 -254 110 -254 256c0 144 101 257 254 257zM293 408c-93 0 -151 -75 -151 -162c0 -88 58 -160 151 -160c95 0 152 72 152 160c0 87 -61 162 -152 162zM173 673v4h124l74 -135v-5h-93z" />
    <glyph glyph-name="oacute" unicode="&#xf3;" horiz-adv-x="588" 
d="M293 503c152 0 256 -113 256 -257c0 -146 -100 -256 -256 -256c-155 0 -254 110 -254 256c0 144 101 257 254 257zM293 408c-93 0 -151 -75 -151 -162c0 -88 58 -160 151 -160c95 0 152 72 152 160c0 87 -61 162 -152 162zM417 674v-4l-105 -133h-93v5l74 132h124z" />
    <glyph glyph-name="ocircumflex" unicode="&#xf4;" horiz-adv-x="588" 
d="M293 503c152 0 256 -113 256 -257c0 -146 -100 -256 -256 -256c-155 0 -254 110 -254 256c0 144 101 257 254 257zM293 408c-93 0 -151 -75 -151 -162c0 -88 58 -160 151 -160c95 0 152 72 152 160c0 87 -61 162 -152 162zM264 680h60l147 -136v-6h-107l-70 60l-70 -60
h-107v6z" />
    <glyph glyph-name="otilde" unicode="&#xf5;" horiz-adv-x="588" 
d="M293 503c152 0 256 -113 256 -257c0 -146 -100 -256 -256 -256c-155 0 -254 110 -254 256c0 144 101 257 254 257zM293 408c-93 0 -151 -75 -151 -162c0 -88 58 -160 151 -160c95 0 152 72 152 160c0 87 -61 162 -152 162zM198 540l-61 33c19 56 58 94 118 81
c24 -7 45 -21 68 -29s51 -9 62 26l66 -25c-13 -80 -73 -96 -119 -85c-24 7 -45 21 -68 29s-50 5 -66 -30z" />
    <glyph glyph-name="odieresis" unicode="&#xf6;" horiz-adv-x="588" 
d="M133 647c0 82 124 82 124 0c0 -83 -124 -83 -124 0zM345 647c0 82 125 82 125 0c0 -83 -125 -83 -125 0zM293 503c152 0 256 -113 256 -257c0 -146 -100 -256 -256 -256c-155 0 -254 110 -254 256c0 144 101 257 254 257zM293 408c-93 0 -151 -75 -151 -162
c0 -88 58 -160 151 -160c95 0 152 72 152 160c0 87 -61 162 -152 162z" />
    <glyph glyph-name="divide" unicode="&#xf7;" horiz-adv-x="552" 
d="M58 284v94h436v-94h-436zM215 147c0 83 125 83 125 0s-125 -83 -125 0zM215 503c0 82 125 82 125 0c0 -83 -125 -83 -125 0z" />
    <glyph glyph-name="oslash" unicode="&#xf8;" horiz-adv-x="588" 
d="M293 503c33 0 65 -6 95 -17l37 63h99l-63 -106c56 -47 88 -117 88 -197c0 -146 -100 -256 -256 -256c-32 0 -63 5 -92 14l-39 -66h-99l64 108c-56 45 -88 116 -88 200c0 144 101 257 254 257zM293 408c-93 0 -151 -75 -151 -162c0 -45 13 -81 39 -109l156 264
c-13 4 -29 7 -44 7zM293 86c95 0 152 72 152 160c0 40 -14 77 -38 105l-154 -260c12 -4 25 -5 40 -5z" />
    <glyph glyph-name="ugrave" unicode="&#xf9;" horiz-adv-x="609" 
d="M62 493h103v-264c0 -84 47 -142 134 -142c81 0 137 66 137 149v257h103v-494h-93l-6 73c-48 -56 -101 -80 -170 -80c-121 0 -208 87 -208 236v265zM173 673v4h124l74 -135v-5h-93z" />
    <glyph glyph-name="uacute" unicode="&#xfa;" horiz-adv-x="609" 
d="M62 493h103v-264c0 -84 47 -142 134 -142c81 0 137 66 137 149v257h103v-494h-93l-6 73c-48 -56 -101 -80 -170 -80c-121 0 -208 87 -208 236v265zM434 674v-4l-105 -133h-93v5l74 132h124z" />
    <glyph glyph-name="ucircumflex" unicode="&#xfb;" horiz-adv-x="609" 
d="M62 493h103v-264c0 -84 47 -142 134 -142c81 0 137 66 137 149v257h103v-494h-93l-6 73c-48 -56 -101 -80 -170 -80c-121 0 -208 87 -208 236v265zM283 710h58l142 -131v-5h-103l-68 57l-67 -57h-104v5z" />
    <glyph glyph-name="udieresis" unicode="&#xfc;" horiz-adv-x="609" 
d="M62 493h103v-264c0 -84 47 -142 134 -142c81 0 137 66 137 149v257h103v-494h-93l-6 73c-48 -56 -101 -80 -170 -80c-121 0 -208 87 -208 236v265zM129 644c0 82 124 82 124 0c0 -83 -124 -83 -124 0zM369 644c0 82 125 82 125 0c0 -83 -125 -83 -125 0z" />
    <glyph glyph-name="yacute" unicode="&#xfd;" horiz-adv-x="558" 
d="M427 493h115l-311 -722h-114l102 236l-197 486h120l85 -233l49 -140l53 138zM412 674v-4l-105 -133h-93v5l74 132h124z" />
    <glyph glyph-name="thorn" unicode="&#xfe;" horiz-adv-x="637" 
d="M338 89c86 0 155 57 155 157c0 102 -69 157 -155 157c-87 0 -155 -69 -155 -157s69 -157 155 -157zM174 -206h-104v906h103l1 -286c35 57 107 89 174 89c141 0 249 -91 249 -257c0 -169 -107 -257 -250 -257c-61 0 -133 25 -173 90v-285z" />
    <glyph glyph-name="ydieresis" unicode="&#xff;" horiz-adv-x="558" 
d="M427 493h115l-311 -722h-114l102 236l-197 486h120l85 -233l49 -140l53 138zM95 648c0 81 123 81 123 0c0 -83 -123 -83 -123 0zM333 648c0 81 124 81 124 0c0 -83 -124 -83 -124 0z" />
    <glyph glyph-name="Amacron" unicode="&#x100;" horiz-adv-x="768" 
d="M640 0l-67 147h-379l-66 -147h-119l314 700h122l314 -700h-119zM532 249l-148 333l-148 -333h296zM231 772v90h312v-90h-312z" />
    <glyph glyph-name="amacron" unicode="&#x101;" 
d="M463 415l3 78h100v-493h-98l-5 80c-32 -64 -110 -93 -170 -93c-144 0 -253 92 -253 260c0 165 114 257 255 257c71 0 137 -33 168 -89zM303 410c-88 0 -160 -63 -160 -163c0 -101 72 -164 160 -164c213 0 213 327 0 327zM164 604v87h311v-87h-311z" />
    <glyph glyph-name="Abreve" unicode="&#x102;" horiz-adv-x="768" 
d="M640 0l-67 147h-379l-66 -147h-119l314 700h122l314 -700h-119zM532 249l-148 333l-148 -333h296zM450 877h87c0 -91 -68 -140 -151 -140c-80 0 -156 48 -151 140h87c0 -37 25 -62 64 -62s64 25 64 62z" />
    <glyph glyph-name="abreve" unicode="&#x103;" 
d="M463 415l3 78h100v-493h-98l-5 80c-32 -64 -110 -93 -170 -93c-144 0 -253 92 -253 260c0 165 114 257 255 257c71 0 137 -33 168 -89zM303 410c-88 0 -160 -63 -160 -163c0 -101 72 -164 160 -164c213 0 213 327 0 327zM387 674h84c0 -89 -65 -139 -145 -139
c-78 0 -151 48 -146 139h84c0 -37 23 -62 62 -62c37 0 61 25 61 62z" />
    <glyph glyph-name="Aogonek" unicode="&#x104;" horiz-adv-x="769" 
d="M528 247l-144 330l-145 -330h289zM727 -67l55 -40c-23 -37 -67 -59 -110 -64c-162 -20 -207 162 -55 214l-44 99h-379l-64 -142h-121l314 700h122l316 -702c-35 4 -68 7 -95 0c-77 -16 -77 -100 0 -95c20 1 42 10 61 30z" />
    <glyph glyph-name="aogonek" unicode="&#x105;" 
d="M574 -108l55 -39c-23 -40 -66 -61 -111 -65c-65 -5 -123 22 -139 79c-11 37 1 105 92 134l-8 79c-32 -64 -110 -93 -170 -93c-144 -3 -253 92 -253 260c0 165 114 257 255 257c71 0 137 -33 168 -89l3 78h100v-537c-63 8 -130 -33 -93 -73c14 -20 61 -28 101 9zM303 410
c-88 0 -160 -63 -160 -163c0 -101 72 -164 160 -164c213 0 213 327 0 327z" />
    <glyph glyph-name="Cacute" unicode="&#x106;" horiz-adv-x="703" 
d="M600 167l77 -77c-72 -72 -164 -104 -263 -104c-253 0 -369 175 -369 359s118 367 369 367c95 0 184 -34 256 -106l-75 -72c-51 49 -116 72 -181 72c-179 0 -258 -131 -258 -260c0 -128 78 -255 258 -255c65 0 137 27 186 76zM546 899v-4l-104 -123h-92v5l73 122h123z" />
    <glyph glyph-name="cacute" unicode="&#x107;" horiz-adv-x="509" 
d="M417 133l70 -69c-56 -55 -115 -77 -187 -77c-142 0 -260 88 -260 259s117 259 260 259c68 0 125 -21 178 -73l-66 -69c-31 31 -72 44 -111 44c-89 0 -158 -63 -158 -161c0 -104 72 -159 157 -159c43 0 85 13 117 46zM412 701v-3l-99 -116h-86v5l69 114h116z" />
    <glyph glyph-name="Ccircumflex" unicode="&#x108;" horiz-adv-x="703" 
d="M600 167l77 -77c-72 -72 -164 -104 -263 -104c-253 0 -369 175 -369 359s118 367 369 367c95 0 184 -34 256 -106l-75 -72c-51 49 -116 72 -181 72c-179 0 -258 -131 -258 -260c0 -128 78 -255 258 -255c65 0 137 27 186 76zM388 918h58l142 -131v-5h-103l-68 57l-67 -57
h-104v5z" />
    <glyph glyph-name="ccircumflex" unicode="&#x109;" horiz-adv-x="509" 
d="M417 133l70 -69c-56 -55 -115 -77 -187 -77c-142 0 -260 88 -260 259s117 259 260 259c68 0 125 -21 178 -73l-66 -69c-31 31 -72 44 -111 44c-89 0 -158 -63 -158 -161c0 -104 72 -159 157 -159c43 0 85 13 117 46zM273 716h56l136 -126v-6h-99l-65 56l-65 -56h-100v6z
" />
    <glyph glyph-name="Cdotaccent" unicode="&#x10a;" horiz-adv-x="703" 
d="M600 167l77 -77c-72 -72 -164 -104 -263 -104c-253 0 -369 175 -369 359s118 367 369 367c95 0 184 -34 256 -106l-75 -72c-51 49 -116 72 -181 72c-179 0 -258 -131 -258 -260c0 -128 78 -255 258 -255c65 0 137 27 186 76zM341 844c0 87 136 87 136 0
c0 -88 -136 -88 -136 0z" />
    <glyph glyph-name="cdotaccent" unicode="&#x10b;" horiz-adv-x="509" 
d="M417 133l70 -69c-56 -55 -115 -77 -187 -77c-142 0 -260 88 -260 259s117 259 260 259c68 0 125 -21 178 -73l-66 -69c-31 31 -72 44 -111 44c-89 0 -158 -63 -158 -161c0 -104 72 -159 157 -159c43 0 85 13 117 46zM224 639c0 81 134 81 134 0s-134 -81 -134 0z" />
    <glyph glyph-name="Ccaron" unicode="&#x10c;" horiz-adv-x="703" 
d="M600 167l77 -77c-72 -72 -164 -104 -263 -104c-253 0 -369 175 -369 359s118 367 369 367c95 0 184 -34 256 -106l-75 -72c-51 49 -116 72 -181 72c-179 0 -258 -131 -258 -260c0 -128 78 -255 258 -255c65 0 137 27 186 76zM226 900v6h104l70 -58l74 58h101v-6
l-146 -128h-60z" />
    <glyph glyph-name="ccaron" unicode="&#x10d;" horiz-adv-x="509" 
d="M417 133l70 -69c-56 -55 -115 -77 -187 -77c-142 0 -260 88 -260 259s117 259 260 259c68 0 125 -21 178 -73l-66 -69c-31 31 -72 44 -111 44c-89 0 -158 -63 -158 -161c0 -104 72 -159 157 -159c43 0 85 13 117 46zM122 694v6h97l66 -57l69 57h95v-6l-137 -126h-56z" />
    <glyph glyph-name="Dcaron" unicode="&#x10e;" horiz-adv-x="750" 
d="M88 700h265c239 0 348 -171 351 -344c3 -177 -105 -356 -351 -356h-265v700zM199 593v-485h154c171 0 243 126 240 249c-3 117 -76 236 -240 236h-154zM155 900v6h102l68 -60l72 60h99v-6l-143 -131h-58z" />
    <glyph glyph-name="dcaron" unicode="&#x10f;" 
d="M299 407c-88 0 -156 -60 -156 -160s68 -161 156 -161c85 0 157 64 157 161c0 96 -72 160 -157 160zM463 699h103v-699h-97l-6 78c-39 -63 -106 -88 -171 -88c-143 0 -252 93 -252 257c0 168 107 257 250 257c60 0 141 -29 173 -88v283zM605 514l42 186h96l-65 -186h-73z
" />
    <glyph glyph-name="Dcroat" unicode="&#x110;" horiz-adv-x="755" 
d="M29 306v93h64v301h265c239 0 348 -171 351 -344c3 -177 -105 -356 -351 -356h-265v306h-64zM204 306v-198h154c171 0 243 126 240 249c-3 117 -76 236 -240 236h-154v-194h119v-93h-119z" />
    <glyph glyph-name="dcroat" unicode="&#x111;" 
d="M463 699h103v-81h52v-73h-52v-545h-97l-6 78c-39 -63 -106 -88 -171 -88c-143 0 -252 93 -252 257c0 168 107 257 250 257c60 0 141 -29 173 -88v129h-120v73h120v81zM299 407c-88 0 -156 -60 -156 -160s68 -161 156 -161c85 0 157 64 157 161c0 96 -72 160 -157 160z
" />
    <glyph glyph-name="Emacron" unicode="&#x112;" horiz-adv-x="661" 
d="M605 110v-110h-517v700h514v-109h-402v-189h386v-104h-386v-188h405zM196 783v95h301v-95h-301z" />
    <glyph glyph-name="emacron" unicode="&#x113;" horiz-adv-x="582" 
d="M547 208h-400c9 -76 70 -124 161 -124c51 0 112 18 143 53l67 -65c-51 -57 -136 -84 -212 -84c-162 0 -266 103 -266 261c0 150 105 257 259 257c159 0 267 -98 248 -298zM149 295h299c-7 79 -62 119 -146 119c-76 0 -137 -40 -153 -119zM152 600v84h295v-84h-295z" />
    <glyph glyph-name="Ebreve" unicode="&#x114;" horiz-adv-x="661" 
d="M605 110v-110h-517v700h514v-109h-402v-189h386v-104h-386v-188h405zM416 912h84c0 -89 -65 -139 -145 -139c-78 0 -151 48 -146 139h84c0 -37 23 -62 62 -62c37 0 61 25 61 62z" />
    <glyph glyph-name="ebreve" unicode="&#x115;" horiz-adv-x="582" 
d="M547 208h-400c9 -76 70 -124 161 -124c51 0 112 18 143 53l67 -65c-51 -57 -136 -84 -212 -84c-162 0 -266 103 -266 261c0 150 105 257 259 257c159 0 267 -98 248 -298zM149 295h299c-7 79 -62 119 -146 119c-76 0 -137 -40 -153 -119zM368 709h84
c0 -89 -65 -139 -145 -139c-78 0 -151 48 -146 139h84c0 -37 23 -62 62 -62c37 0 61 25 61 62z" />
    <glyph glyph-name="Edotaccent" unicode="&#x116;" horiz-adv-x="661" 
d="M605 110v-110h-517v700h514v-109h-402v-189h386v-104h-386v-188h405zM285 840c0 84 128 84 128 0c0 -85 -128 -85 -128 0z" />
    <glyph glyph-name="edotaccent" unicode="&#x117;" horiz-adv-x="582" 
d="M547 208h-400c9 -76 70 -124 161 -124c51 0 112 18 143 53l67 -65c-51 -57 -136 -84 -212 -84c-162 0 -266 103 -266 261c0 150 105 257 259 257c159 0 267 -98 248 -298zM149 295h299c-7 79 -62 119 -146 119c-76 0 -137 -40 -153 -119zM240 659c0 81 133 81 133 0
c0 -83 -133 -83 -133 0z" />
    <glyph glyph-name="Eogonek" unicode="&#x118;" horiz-adv-x="661" 
d="M605 110v-110c-109 8 -135 -47 -119 -74c16 -26 74 -43 106 6l48 -51c-50 -83 -183 -82 -226 -5c-21 36 -19 87 29 124h-355v700h514v-109h-402v-189h386v-104h-386v-188h405z" />
    <glyph glyph-name="eogonek" unicode="&#x119;" horiz-adv-x="583" 
d="M546 208h-400c9 -76 70 -124 161 -124c51 0 112 18 143 53l67 -65c-27 -29 -65 -51 -104 -66c-84 -48 13 -130 80 -59l55 -40c-53 -82 -176 -88 -225 -29c-23 28 -29 64 -2 113c-20 0 -52 3 -71 6c-128 21 -211 116 -211 252c0 150 105 257 259 257
c159 0 267 -98 248 -298zM148 295h299c-7 79 -62 119 -146 119c-76 0 -137 -40 -153 -119z" />
    <glyph glyph-name="Ecaron" unicode="&#x11a;" horiz-adv-x="661" 
d="M605 110v-110h-517v700h514v-109h-402v-189h386v-104h-386v-188h405zM193 903v6h102l70 -60l72 60h99v-6l-143 -132h-59z" />
    <glyph glyph-name="ecaron" unicode="&#x11b;" horiz-adv-x="582" 
d="M547 208h-400c9 -76 70 -124 161 -124c51 0 112 18 143 53l67 -65c-51 -57 -136 -84 -212 -84c-162 0 -266 103 -266 261c0 150 105 257 259 257c159 0 267 -98 248 -298zM149 295h299c-7 79 -62 119 -146 119c-76 0 -137 -40 -153 -119zM132 700v6h101l68 -59l71 59h98
v-6l-141 -130h-58z" />
    <glyph glyph-name="Gcircumflex" unicode="&#x11c;" horiz-adv-x="743" 
d="M672 611l-70 -72c-51 49 -124 75 -189 75c-165 0 -258 -123 -258 -271c0 -128 76 -252 258 -252c60 0 115 15 171 62v142h-195v100h299v-287c-71 -77 -156 -122 -275 -122c-256 0 -368 170 -368 357c0 203 129 374 368 374c93 0 187 -34 259 -106zM369 922h59l146 -134
v-6h-106l-69 59l-69 -59h-106v6z" />
    <glyph glyph-name="gcircumflex" unicode="&#x11d;" horiz-adv-x="614" 
d="M440 474l54 66l75 -58l-59 -69c41 -48 60 -92 60 -153c0 -88 -43 -157 -131 -192c101 -35 130 -102 130 -161c0 -134 -132 -201 -264 -201c-160 0 -265 82 -260 219h103c-3 -76 75 -119 157 -119c76 0 157 32 157 101s-63 107 -155 107c-160 0 -267 92 -267 246
c0 165 134 248 267 248c41 0 99 -10 133 -34zM307 412c-84 0 -163 -49 -163 -152c0 -98 74 -151 163 -151c92 0 160 62 160 151c0 97 -75 152 -160 152zM288 720h57l139 -129v-6h-101l-67 57l-67 -57h-101v6z" />
    <glyph glyph-name="Gbreve" unicode="&#x11e;" horiz-adv-x="743" 
d="M672 611l-70 -72c-51 49 -124 75 -189 75c-165 0 -258 -123 -258 -271c0 -128 76 -252 258 -252c60 0 115 15 171 62v142h-195v100h299v-287c-71 -77 -156 -122 -275 -122c-256 0 -368 170 -368 357c0 203 129 374 368 374c93 0 187 -34 259 -106zM463 914h87
c0 -84 -67 -131 -150 -131c-80 0 -155 46 -150 131h86c0 -35 25 -59 64 -59s63 24 63 59z" />
    <glyph glyph-name="gbreve" unicode="&#x11f;" horiz-adv-x="614" 
d="M440 474l54 66l75 -58l-59 -69c41 -48 60 -92 60 -153c0 -88 -43 -157 -131 -192c101 -35 130 -102 130 -161c0 -134 -132 -201 -264 -201c-160 0 -265 82 -260 219h103c-3 -76 75 -119 157 -119c76 0 157 32 157 101s-63 107 -155 107c-160 0 -267 92 -267 246
c0 165 134 248 267 248c41 0 99 -10 133 -34zM307 412c-84 0 -163 -49 -163 -152c0 -98 74 -151 163 -151c92 0 160 62 160 151c0 97 -75 152 -160 152zM379 706h85c0 -85 -66 -134 -147 -134c-79 0 -154 46 -149 134h86c0 -36 24 -60 63 -60s62 24 62 60z" />
    <glyph glyph-name="Gdotaccent" unicode="&#x120;" horiz-adv-x="743" 
d="M672 611l-70 -72c-51 49 -124 75 -189 75c-165 0 -258 -123 -258 -271c0 -128 76 -252 258 -252c60 0 115 15 171 62v142h-195v100h299v-287c-71 -77 -156 -122 -275 -122c-256 0 -368 170 -368 357c0 203 129 374 368 374c93 0 187 -34 259 -106zM341 845
c0 81 131 81 131 0c0 -83 -131 -83 -131 0z" />
    <glyph glyph-name="gdotaccent" unicode="&#x121;" horiz-adv-x="614" 
d="M440 474l54 66l75 -58l-59 -69c41 -48 60 -92 60 -153c0 -88 -43 -157 -131 -192c101 -35 130 -102 130 -161c0 -134 -132 -201 -264 -201c-160 0 -265 82 -260 219h103c-3 -76 75 -119 157 -119c76 0 157 32 157 101s-63 107 -155 107c-160 0 -267 92 -267 246
c0 165 134 248 267 248c41 0 99 -10 133 -34zM307 412c-84 0 -163 -49 -163 -152c0 -98 74 -151 163 -151c92 0 160 62 160 151c0 97 -75 152 -160 152zM244 647c0 81 131 81 131 0c0 -83 -131 -83 -131 0z" />
    <glyph glyph-name="Gcommaaccent" unicode="&#x122;" horiz-adv-x="743" 
d="M672 611l-70 -72c-51 49 -124 75 -189 75c-165 0 -258 -123 -258 -271c0 -128 76 -252 258 -252c60 0 115 15 171 62v142h-195v100h299v-287c-71 -77 -156 -122 -275 -122c-256 0 -368 170 -368 357c0 203 129 374 368 374c93 0 187 -34 259 -106zM465 -135
c0 -15 -6 -27 -44 -135h-61l21 90c-24 5 -41 21 -41 48c0 72 125 75 125 -3z" />
    <glyph glyph-name="gcommaaccent" unicode="&#x123;" horiz-adv-x="614" 
d="M254 642c0 16 7 26 44 135h61l-22 -90c25 -5 42 -21 42 -48c0 -72 -125 -75 -125 3zM440 474l54 66l75 -58l-59 -69c41 -48 60 -92 60 -153c0 -88 -43 -157 -131 -192c101 -35 130 -102 130 -161c0 -134 -132 -201 -264 -201c-160 0 -265 82 -260 219h103
c-3 -76 75 -119 157 -119c76 0 157 32 157 101s-63 107 -155 107c-160 0 -267 92 -267 246c0 165 134 248 267 248c41 0 99 -10 133 -34zM307 412c-84 0 -163 -49 -163 -152c0 -98 74 -151 163 -151c92 0 160 62 160 151c0 97 -75 152 -160 152z" />
    <glyph glyph-name="Hcircumflex" unicode="&#x124;" horiz-adv-x="769" 
d="M681 0h-111v291h-370v-291h-112v700h112v-305h370v305h111v-700zM358 917h59l142 -133v-6h-104l-68 58l-68 -58h-104v6z" />
    <glyph glyph-name="hcircumflex" unicode="&#x125;" horiz-adv-x="599" 
d="M70 700h103v-280c43 60 100 80 160 80c140 0 203 -93 203 -234v-266h-103v265c0 93 -48 139 -124 139c-80 0 -136 -66 -136 -147v-257h-103v700zM265 908h58l141 -131v-5h-103l-67 57l-67 -57h-103v5z" />
    <glyph glyph-name="Hbar" unicode="&#x126;" horiz-adv-x="779" 
d="M686 -1h-111v292h-370v-292h-112v523h-68v72h68v105h112v-105h370v105h111v-105h69v-72h-69v-523zM205 395h370v127h-370v-127z" />
    <glyph glyph-name="hbar" unicode="&#x127;" horiz-adv-x="599" 
d="M8 561v72h62v67h103v-67h113v-72h-113v-141c43 60 100 80 160 80c140 0 203 -93 203 -234v-266h-103v265c0 93 -48 139 -124 139c-80 0 -136 -66 -136 -147v-257h-103v561h-62z" />
    <glyph glyph-name="Itilde" unicode="&#x128;" horiz-adv-x="287" 
d="M199 0h-111v700h111v-700zM52 740l-61 33c19 56 58 94 118 81c24 -7 45 -21 68 -29s51 -9 62 26l66 -25c-13 -80 -73 -96 -119 -85c-24 7 -45 21 -68 29s-50 5 -66 -30z" />
    <glyph glyph-name="itilde" unicode="&#x129;" horiz-adv-x="248" 
d="M178 0h-108v481h108v-481zM46 540l-50 33c15 56 49 94 98 81c20 -7 37 -21 56 -29c20 -8 41 -9 52 26l54 -25c-11 -80 -60 -95 -99 -85c-19 7 -37 21 -56 29s-40 5 -55 -30z" />
    <glyph glyph-name="Imacron" unicode="&#x12a;" horiz-adv-x="287" 
d="M199 0h-111v700h111v-700zM11 765v86h260v-86h-260z" />
    <glyph glyph-name="imacron" unicode="&#x12b;" horiz-adv-x="248" 
d="M178 0h-108v481h108v-481zM22 615v86h203v-86h-203z" />
    <glyph glyph-name="Ibreve" unicode="&#x12c;" horiz-adv-x="287" 
d="M199 0h-111v700h111v-700zM196 902h74c0 -84 -57 -131 -128 -131c-69 0 -133 46 -128 131h74c0 -35 21 -58 54 -58s54 23 54 58z" />
    <glyph glyph-name="ibreve" unicode="&#x12d;" horiz-adv-x="248" 
d="M178 0h-108v481h108v-481zM175 698h74c0 -84 -57 -131 -128 -131c-69 0 -133 46 -128 131h74c0 -35 21 -58 54 -58s54 23 54 58z" />
    <glyph glyph-name="Iogonek" unicode="&#x12e;" horiz-adv-x="288" 
d="M229 -68l54 -40c-51 -96 -230 -92 -251 20c-8 33 2 88 57 112v676h111v-700c-152 0 -67 -156 29 -68z" />
    <glyph glyph-name="iogonek" unicode="&#x12f;" horiz-adv-x="246" 
d="M73 495h103v-495c-59 3 -100 -35 -82 -74c16 -26 62 -38 103 0l54 -40c-51 -86 -198 -66 -230 11c-16 37 -11 104 52 128v470zM61 638c0 84 128 84 128 0c0 -85 -128 -85 -128 0z" />
    <glyph glyph-name="Idotaccent" unicode="&#x130;" horiz-adv-x="287" 
d="M199 0h-111v700h111v-700zM75 837c0 84 128 84 128 0c0 -85 -128 -85 -128 0z" />
    <glyph glyph-name="dotlessi" unicode="&#x131;" horiz-adv-x="248" 
d="M178 0h-108v481h108v-481z" />
    <glyph glyph-name="IJ" unicode="&#x132;" horiz-adv-x="992" 
d="M199 0h-111v700h111v-700zM577 700h337v-410c0 -180 -116 -303 -300 -303c-174 0 -299 109 -299 297h110c0 -124 66 -192 189 -192s188 82 188 198v306h-225v104z" />
    <glyph glyph-name="ij" unicode="&#x133;" horiz-adv-x="486" 
d="M70 495h103v-495h-103v495zM58 638c0 84 128 84 128 0c0 -85 -128 -85 -128 0zM313 495h103v-553c0 -125 -44 -189 -156 -189c-35 0 -69 8 -104 31l37 81c23 -11 44 -16 63 -15c49 1 57 35 57 92v553zM301 640c0 84 128 84 128 0c0 -85 -128 -85 -128 0z" />
    <glyph glyph-name="Jcircumflex" unicode="&#x134;" horiz-adv-x="705" 
d="M290 700h337v-410c0 -180 -116 -303 -300 -303c-174 0 -299 109 -299 297h110c0 -124 66 -192 189 -192s188 82 188 198v306h-225v104zM402 917h59l146 -130v-6h-106l-70 57l-69 -57h-106v6z" />
    <glyph glyph-name="jcircumflex" unicode="&#x135;" horiz-adv-x="243" 
d="M70 495h103v-553c0 -125 -44 -189 -156 -189c-35 0 -69 8 -104 31l37 81c23 -11 44 -16 63 -15c49 1 57 35 57 92v553zM97 710h47l115 -129v-6h-91l-48 51l-48 -51h-90v6z" />
    <glyph glyph-name="Kcommaaccent" unicode="&#x136;" horiz-adv-x="648" 
d="M624 700v-4l-321 -334l349 -355v-7h-140l-312 319v-319h-112v700h112v-302l285 302h139zM408 -114c0 -15 -6 -27 -44 -135h-61l21 90c-24 5 -41 21 -41 48c0 72 125 75 125 -3z" />
    <glyph glyph-name="kcommaaccent" unicode="&#x137;" horiz-adv-x="514" 
d="M70 699h104v-408l183 202h125v-6l-213 -226l242 -254v-7h-126l-211 228v-228h-104v699zM341 -114c0 -13 -6 -26 -40 -126h-55l20 84c-23 5 -38 20 -38 45c0 67 113 70 113 -3z" />
    <glyph glyph-name="kgreenlandic" unicode="&#x138;" horiz-adv-x="514" 
d="M70 493h104v-202l183 202h125v-6l-213 -226l242 -254v-7h-126l-211 228v-228h-104v493z" />
    <glyph glyph-name="Lacute" unicode="&#x139;" horiz-adv-x="587" 
d="M88 700h112v-596h369v-104h-481v700zM285 898v-4l-103 -125h-91v5l72 124h122z" />
    <glyph glyph-name="lacute" unicode="&#x13a;" horiz-adv-x="251" 
d="M74 699h103v-699h-103v699zM260 888v-4l-100 -120h-88v4l70 120h118z" />
    <glyph glyph-name="Lcommaaccent" unicode="&#x13b;" horiz-adv-x="587" 
d="M88 700h112v-596h369v-104h-481v700zM396 -124c0 -15 -6 -27 -44 -135h-61l21 90c-24 5 -41 21 -41 48c0 72 125 75 125 -3z" />
    <glyph glyph-name="lcommaaccent" unicode="&#x13c;" horiz-adv-x="251" 
d="M74 699h103v-699h-103v699zM180 -108c0 -14 -6 -25 -40 -126h-54l19 84c-23 5 -37 20 -37 44c0 67 112 70 112 -2z" />
    <glyph glyph-name="Lcaron" unicode="&#x13d;" horiz-adv-x="587" 
d="M88 700h112v-596h369v-104h-481v700zM346 510l44 191h99l-67 -191h-76z" />
    <glyph glyph-name="lcaron" unicode="&#x13e;" horiz-adv-x="247" 
d="M74 699h103v-699h-103v699zM215 508l44 192h99l-67 -192h-76z" />
    <glyph glyph-name="Ldot" unicode="&#x13f;" horiz-adv-x="587" 
d="M88 700h112v-596h369v-104h-481v700zM324 330c0 88 134 88 134 0s-134 -88 -134 0z" />
    <glyph glyph-name="ldot" unicode="&#x140;" horiz-adv-x="368" 
d="M74 699h103v-699h-103v699zM240 310c0 88 134 88 134 0s-134 -88 -134 0z" />
    <glyph glyph-name="Lslash" unicode="&#x141;" horiz-adv-x="594" 
d="M207 402l109 51v-88l-109 -50v-211h369v-104h-481v261l-76 -35v86l76 36v352h112v-298z" />
    <glyph glyph-name="lslash" unicode="&#x142;" horiz-adv-x="284" 
d="M265 431v-80l-73 -35v-316h-103v267l-66 -30v80l66 31v351h103v-303z" />
    <glyph glyph-name="Nacute" unicode="&#x143;" horiz-adv-x="771" 
d="M174 700l397 -498v498h112v-700h-85l-397 494v-494h-113v700h86zM520 899v-4l-107 -130h-95v5l76 129h126z" />
    <glyph glyph-name="nacute" unicode="&#x144;" horiz-adv-x="610" 
d="M548 0h-104v264c0 85 -48 142 -133 142c-83 0 -138 -67 -138 -148v-258h-103v494h94l6 -72c47 53 102 79 166 79c119 0 212 -84 212 -236v-265zM436 700v-4l-99 -126h-87v5l69 125h117z" />
    <glyph glyph-name="Ncommaaccent" unicode="&#x145;" horiz-adv-x="771" 
d="M174 700l397 -498v498h112v-700h-85l-397 494v-494h-113v700h86zM454 -124c0 -15 -6 -27 -44 -135h-61l21 90c-24 5 -41 21 -41 48c0 72 125 75 125 -3z" />
    <glyph glyph-name="ncommaaccent" unicode="&#x146;" horiz-adv-x="610" 
d="M548 0h-104v264c0 85 -48 142 -133 142c-83 0 -138 -67 -138 -148v-258h-103v494h94l6 -72c47 53 102 79 166 79c119 0 212 -84 212 -236v-265zM368 -112c0 -13 -6 -25 -40 -128h-56l19 86c-23 5 -38 20 -38 45c0 69 115 71 115 -3z" />
    <glyph glyph-name="Ncaron" unicode="&#x147;" horiz-adv-x="771" 
d="M174 700l397 -498v498h112v-700h-85l-397 494v-494h-113v700h86zM221 900v6h101l68 -59l71 59h98v-6l-141 -130h-58z" />
    <glyph glyph-name="ncaron" unicode="&#x148;" horiz-adv-x="610" 
d="M548 0h-104v264c0 85 -48 142 -133 142c-83 0 -138 -67 -138 -148v-258h-103v494h94l6 -72c47 53 102 79 166 79c119 0 212 -84 212 -236v-265zM147 699v6h99l67 -58l70 58h97v-6l-140 -128h-57z" />
    <glyph glyph-name="napostrophe" unicode="&#x149;" horiz-adv-x="610" 
d="M548 0h-104v264c0 85 -48 142 -133 142c-83 0 -138 -67 -138 -148v-258h-103v494h94l6 -72c47 53 102 79 166 79c119 0 212 -84 212 -236v-265z" />
    <glyph glyph-name="Eng" unicode="&#x14a;" horiz-adv-x="771" 
d="M174 700l397 -499v499h112v-723c1 -125 -44 -189 -156 -189c-35 0 -69 8 -102 31l36 81c23 -11 42 -16 62 -15c49 1 57 35 57 92v45l-379 472v-494h-113v700h86z" />
    <glyph glyph-name="eng" unicode="&#x14b;" horiz-adv-x="610" 
d="M444 -26v290c0 85 -48 142 -133 142c-83 0 -138 -67 -138 -148v-258h-103v494h94l6 -72c47 53 102 79 166 79c119 0 212 -84 212 -236v-291c0 -125 -44 -189 -156 -189c-35 0 -69 10 -102 31l37 82c22 -11 42 -17 61 -16c49 3 56 35 56 92z" />
    <glyph glyph-name="Omacron" unicode="&#x14c;" horiz-adv-x="806" 
d="M405 713c239 0 356 -177 356 -366s-115 -362 -358 -362s-358 177 -358 361c0 213 149 367 360 367zM156 345c3 -124 73 -257 247 -257s247 124 247 257c0 129 -73 263 -245 266c-163 0 -249 -113 -249 -266zM254 787v87h298v-87h-298z" />
    <glyph glyph-name="omacron" unicode="&#x14d;" horiz-adv-x="588" 
d="M293 503c152 0 256 -113 256 -257c0 -146 -100 -256 -256 -256c-155 0 -254 110 -254 256c0 144 101 257 254 257zM293 408c-93 0 -151 -75 -151 -162c0 -88 58 -160 151 -160c95 0 152 72 152 160c0 87 -61 162 -152 162zM149 601v86h288v-86h-288z" />
    <glyph glyph-name="Obreve" unicode="&#x14e;" horiz-adv-x="806" 
d="M405 713c239 0 356 -177 356 -366s-115 -362 -358 -362s-358 177 -358 361c0 213 149 367 360 367zM156 345c3 -124 73 -257 247 -257s247 124 247 257c0 129 -73 263 -245 266c-163 0 -249 -113 -249 -266zM473 909h85c0 -80 -66 -125 -147 -125c-79 0 -157 42 -149 125
h85c0 -35 25 -56 64 -56c37 0 62 21 62 56z" />
    <glyph glyph-name="obreve" unicode="&#x14f;" horiz-adv-x="588" 
d="M293 503c152 0 256 -113 256 -257c0 -146 -100 -256 -256 -256c-155 0 -254 110 -254 256c0 144 101 257 254 257zM293 408c-93 0 -151 -75 -151 -162c0 -88 58 -160 151 -160c95 0 152 72 152 160c0 87 -61 162 -152 162zM355 698h83c0 -85 -63 -134 -143 -134
c-77 0 -149 46 -144 134h83c0 -36 22 -60 61 -60c36 0 60 24 60 60z" />
    <glyph glyph-name="Ohungarumlaut" unicode="&#x150;" horiz-adv-x="806" 
d="M405 713c239 0 356 -177 356 -366s-115 -362 -358 -362s-358 177 -358 361c0 213 149 367 360 367zM156 345c3 -124 73 -257 247 -257s247 124 247 257c0 129 -73 263 -245 266c-163 0 -249 -113 -249 -266zM613 910v-3l-97 -125h-84v1l81 127h100zM452 911v-4l-96 -124
h-85v1l81 127h100z" />
    <glyph glyph-name="ohungarumlaut" unicode="&#x151;" horiz-adv-x="588" 
d="M293 503c152 0 256 -113 256 -257c0 -146 -100 -256 -256 -256c-155 0 -254 110 -254 256c0 144 101 257 254 257zM293 408c-93 0 -151 -75 -151 -162c0 -88 58 -160 151 -160c95 0 152 72 152 160c0 87 -61 162 -152 162zM497 684v-2l-92 -109h-80l77 111h95zM343 685
v-3l-92 -109h-80v1l77 111h95z" />
    <glyph glyph-name="Racute" unicode="&#x154;" horiz-adv-x="721" 
d="M680 20l12 -20h-131l-213 242h-148v-242h-112v701c109 0 217 -1 326 -1c162 0 247 -111 247 -229c0 -99 -52 -199 -190 -218zM414 598h-214v-254h213c92 0 134 58 134 125c0 63 -41 129 -133 129zM463 910v-4l-100 -128h-89v5l71 127h118z" />
    <glyph glyph-name="racute" unicode="&#x155;" horiz-adv-x="440" 
d="M70 493h96l7 -65c36 63 92 76 145 76c48 0 94 -17 122 -42l-47 -90c-25 20 -48 30 -87 30c-71 0 -133 -44 -133 -135v-267h-103v493zM346 699v-3l-93 -118h-83v4l66 117h110z" />
    <glyph glyph-name="Rcommaaccent" unicode="&#x156;" horiz-adv-x="721" 
d="M680 20l12 -20h-131l-213 242h-148v-242h-112v701c109 0 217 -1 326 -1c162 0 247 -111 247 -229c0 -99 -52 -199 -190 -218zM414 598h-214v-254h213c92 0 134 58 134 125c0 63 -41 129 -133 129zM427 -124c0 -15 -6 -27 -44 -135h-61l21 90c-24 5 -41 21 -41 48
c0 72 125 75 125 -3z" />
    <glyph glyph-name="rcommaaccent" unicode="&#x157;" horiz-adv-x="440" 
d="M70 493h96l7 -65c36 63 92 76 145 76c48 0 94 -17 122 -42l-47 -90c-25 20 -48 30 -87 30c-71 0 -133 -44 -133 -135v-267h-103v493zM179 -118c0 -14 -7 -27 -41 -130h-57l20 87c-23 5 -39 19 -39 46c0 69 117 71 117 -3z" />
    <glyph glyph-name="Rcaron" unicode="&#x158;" horiz-adv-x="721" 
d="M680 20l12 -20h-131l-213 242h-148v-242h-112v701c109 0 217 -1 326 -1c162 0 247 -111 247 -229c0 -99 -52 -199 -190 -218zM414 598h-214v-254h213c92 0 134 58 134 125c0 63 -41 129 -133 129zM169 900v6h101l68 -59l71 59h98v-6l-141 -130h-58z" />
    <glyph glyph-name="rcaron" unicode="&#x159;" horiz-adv-x="440" 
d="M70 493h96l7 -65c36 63 92 76 145 76c48 0 94 -17 122 -42l-47 -90c-25 20 -48 30 -87 30c-71 0 -133 -44 -133 -135v-267h-103v493zM83 697v6h94l64 -58l67 58h91v-6l-132 -128h-55z" />
    <glyph glyph-name="Sacute" unicode="&#x15a;" horiz-adv-x="660" 
d="M591 602l-85 -57c-33 48 -100 77 -173 78c-94 0 -162 -38 -162 -106s78 -87 170 -100c144 -21 281 -59 281 -217c0 -157 -144 -216 -290 -216c-135 0 -237 41 -301 159l84 56c51 -85 137 -115 218 -115c84 0 177 27 177 116c0 76 -80 102 -179 115
c-139 19 -271 54 -271 204c0 145 143 201 270 201c101 0 202 -24 261 -118zM467 912v-4l-105 -132h-92v5l73 131h124z" />
    <glyph glyph-name="sacute" unicode="&#x15b;" horiz-adv-x="499" 
d="M443 440l-58 -68c-39 36 -81 46 -130 46c-64 1 -105 -20 -105 -59c1 -41 43 -56 107 -63c91 -8 209 -27 209 -155c0 -92 -83 -156 -210 -156c-80 0 -160 18 -225 91l54 73c47 -51 114 -72 173 -73c47 0 105 18 105 64c1 44 -41 61 -114 68c-92 8 -201 40 -201 148
c0 109 113 150 205 150c76 0 134 -17 190 -66zM372 700v-4l-97 -122h-86v4l69 122h114z" />
    <glyph glyph-name="Scircumflex" unicode="&#x15c;" horiz-adv-x="660" 
d="M591 602l-85 -57c-33 48 -100 77 -173 78c-94 0 -162 -38 -162 -106s78 -87 170 -100c144 -21 281 -59 281 -217c0 -157 -144 -216 -290 -216c-135 0 -237 41 -301 159l84 56c51 -85 137 -115 218 -115c84 0 177 27 177 116c0 76 -80 102 -179 115
c-139 19 -271 54 -271 204c0 145 143 201 270 201c101 0 202 -24 261 -118zM311 932h60l147 -136v-6h-107l-70 60l-70 -60h-107v6z" />
    <glyph glyph-name="scircumflex" unicode="&#x15d;" horiz-adv-x="499" 
d="M443 440l-58 -68c-39 36 -81 46 -130 46c-64 1 -105 -20 -105 -59c1 -41 43 -56 107 -63c91 -8 209 -27 209 -155c0 -92 -83 -156 -210 -156c-80 0 -160 18 -225 91l54 73c47 -51 114 -72 173 -73c47 0 105 18 105 64c1 44 -41 61 -114 68c-92 8 -201 40 -201 148
c0 109 113 150 205 150c76 0 134 -17 190 -66zM236 710h56l136 -126v-6h-99l-65 56l-65 -56h-100v6z" />
    <glyph glyph-name="Scedilla" unicode="&#x15e;" horiz-adv-x="665" 
d="M211 -189l48 40c25 -33 110 -54 126 -3c11 36 -41 63 -89 39l-24 18l26 80c-119 8 -216 52 -265 166l95 48c34 -79 122 -115 207 -115c84 0 177 27 177 116c0 76 -80 102 -179 115c-139 19 -271 54 -271 204c0 144 143 201 270 201c106 0 214 -27 270 -134l-90 -47
c-31 51 -101 82 -177 83c-94 0 -162 -38 -162 -106s78 -86 170 -99c144 -21 281 -52 281 -217c0 -140 -118 -204 -248 -215l-12 -42c90 0 113 -61 103 -108c-24 -113 -203 -104 -256 -24z" />
    <glyph glyph-name="scedilla" unicode="&#x15f;" horiz-adv-x="500" 
d="M143 -174l41 39c24 -30 102 -49 118 -3c11 34 -41 57 -84 35l-22 17l25 73c-68 4 -135 26 -190 89l54 73c47 -52 114 -72 173 -73c47 0 105 18 105 64c1 44 -41 61 -114 68c-92 8 -201 39 -201 148s113 150 205 150c76 0 134 -17 190 -66l-58 -68c-39 36 -81 46 -130 46
c-64 1 -105 -20 -105 -59c2 -111 317 -4 316 -218c-1 -84 -68 -143 -177 -154l-11 -38c76 3 101 -42 101 -79c-5 -125 -174 -127 -236 -44z" />
    <glyph glyph-name="Tcommaaccent" unicode="&#x162;" horiz-adv-x="606" 
d="M247 0v598h-230v102h572v-102h-229v-598h-37l-13 -45c92 0 112 -58 102 -108c-24 -114 -199 -108 -251 -24l47 40c27 -44 113 -40 124 -3c11 38 -40 64 -87 40l-24 19z" />
    <glyph glyph-name="tcommaaccent" unicode="&#x163;" horiz-adv-x="407" 
d="M125 624l104 11v-143h144v-89h-145v-224c0 -57 19 -92 71 -92c20 0 43 6 63 17l30 -88c-35 -15 -64 -22 -99 -22h-12l-13 -42c90 0 109 -56 101 -101c-21 -106 -171 -121 -242 -29l40 43c29 -37 113 -52 124 -3c8 36 -41 57 -88 36l-20 18l29 91c-60 25 -87 84 -87 172
v224h-95v89h95v132z" />
    <glyph glyph-name="Tcaron" unicode="&#x164;" horiz-adv-x="606" 
d="M247 0v599h-230v101h572v-101h-229v-599h-113zM126 912v6h106l72 -62l75 62h103v-6l-149 -137h-61z" />
    <glyph glyph-name="tcaron" unicode="&#x165;" horiz-adv-x="456" 
d="M122 624l104 11v-143h101v-89h-102v-235c0 -52 23 -81 71 -81c20 0 43 3 63 14l30 -85c-35 -15 -64 -22 -99 -22c-108 -3 -168 57 -168 174v235h-92v89h92v132zM366 459l43 188h97l-66 -188h-74z" />
    <glyph glyph-name="Tbar" unicode="&#x166;" horiz-adv-x="613" 
d="M138 297v82h112v219h-230v102h572v-102h-229v-219h116v-82h-116v-297h-113v297h-112z" />
    <glyph glyph-name="tbar" unicode="&#x167;" horiz-adv-x="407" 
d="M51 231v74h74v98h-95v89h95v132l104 11v-143h144v-89h-145v-98h109v-74h-109v-63c0 -52 23 -81 71 -81c20 0 43 6 63 17l30 -88c-35 -15 -64 -22 -99 -22c-108 -3 -168 57 -168 174v63h-74z" />
    <glyph glyph-name="Utilde" unicode="&#x168;" horiz-adv-x="751" 
d="M561 699h111v-409c0 -206 -136 -308 -305 -303c-156 3 -289 105 -289 303v409h111v-409c0 -126 74 -197 178 -200c112 -5 194 66 194 200v409zM277 740l-61 33c19 56 58 94 118 81c24 -7 45 -21 68 -29s51 -9 62 26l66 -25c-13 -80 -73 -96 -119 -85c-24 7 -45 21 -68 29
s-50 5 -66 -30z" />
    <glyph glyph-name="utilde" unicode="&#x169;" horiz-adv-x="609" 
d="M62 493h103v-264c0 -84 47 -142 134 -142c81 0 137 66 137 149v257h103v-494h-93l-6 73c-48 -56 -101 -80 -170 -80c-121 0 -208 87 -208 236v265zM204 540l-61 33c19 56 58 94 118 81c24 -7 45 -21 68 -29s51 -9 62 26l66 -25c-13 -80 -73 -96 -119 -85
c-24 7 -45 21 -68 29s-50 5 -66 -30z" />
    <glyph glyph-name="Umacron" unicode="&#x16a;" horiz-adv-x="751" 
d="M561 699h111v-409c0 -206 -136 -308 -305 -303c-156 3 -289 105 -289 303v409h111v-409c0 -126 74 -197 178 -200c112 -5 194 66 194 200v409zM236 780v88h286v-88h-286z" />
    <glyph glyph-name="umacron" unicode="&#x16b;" horiz-adv-x="609" 
d="M62 493h103v-264c0 -84 47 -142 134 -142c81 0 137 66 137 149v257h103v-494h-93l-6 73c-48 -56 -101 -80 -170 -80c-121 0 -208 87 -208 236v265zM168 617v81h286v-81h-286z" />
    <glyph glyph-name="Ubreve" unicode="&#x16c;" horiz-adv-x="751" 
d="M561 699h111v-409c0 -206 -136 -308 -305 -303c-156 3 -289 105 -289 303v409h111v-409c0 -126 74 -197 178 -200c112 -5 194 66 194 200v409zM443 904h84c0 -89 -65 -139 -145 -139c-78 0 -151 48 -146 139h84c0 -37 23 -62 62 -62c37 0 61 25 61 62z" />
    <glyph glyph-name="ubreve" unicode="&#x16d;" horiz-adv-x="609" 
d="M62 493h103v-264c0 -84 47 -142 134 -142c81 0 137 66 137 149v257h103v-494h-93l-6 73c-48 -56 -101 -80 -170 -80c-121 0 -208 87 -208 236v265zM369 700h82c0 -85 -63 -134 -141 -134c-77 0 -148 46 -143 134h82c0 -36 24 -60 61 -60c36 0 59 24 59 60z" />
    <glyph glyph-name="Uring" unicode="&#x16e;" horiz-adv-x="751" 
d="M561 699h111v-409c0 -206 -136 -308 -305 -303c-156 3 -289 105 -289 303v409h111v-409c0 -126 74 -197 178 -200c112 -5 194 66 194 200v409zM271 840c0 69 55 104 117 104c61 0 120 -35 120 -104c0 -68 -55 -105 -119 -105s-118 38 -118 105zM388 889
c-72 0 -72 -95 0 -95c74 0 72 95 0 95z" />
    <glyph glyph-name="uring" unicode="&#x16f;" horiz-adv-x="609" 
d="M62 493h103v-264c0 -84 47 -142 134 -142c81 0 137 66 137 149v257h103v-494h-93l-6 73c-48 -56 -101 -80 -170 -80c-121 0 -208 87 -208 236v265zM194 624c0 67 54 101 114 101c59 0 116 -34 116 -101s-54 -102 -115 -102c-62 0 -115 35 -115 102zM308 672
c-72 0 -70 -93 0 -93c72 0 70 93 0 93z" />
    <glyph glyph-name="Uhungarumlaut" unicode="&#x170;" horiz-adv-x="751" 
d="M561 699h111v-409c0 -206 -136 -308 -305 -303c-156 3 -289 105 -289 303v409h111v-409c0 -126 74 -197 178 -200c112 -5 194 66 194 200v409zM575 900v-3l-98 -127h-84v1l81 129h101zM412 901v-4l-97 -126h-85v1l82 129h100z" />
    <glyph glyph-name="uhungarumlaut" unicode="&#x171;" horiz-adv-x="609" 
d="M62 493h103v-264c0 -84 47 -142 134 -142c81 0 137 66 137 149v257h103v-494h-93l-6 73c-48 -56 -101 -80 -170 -80c-121 0 -208 87 -208 236v265zM490 701v-3l-93 -120h-80v1l77 122h96zM335 702v-4l-92 -119h-81v1l77 122h96z" />
    <glyph glyph-name="Uogonek" unicode="&#x172;" horiz-adv-x="751" 
d="M561 700h111v-392c0 -161 -61 -258 -173 -301h1c-59 -24 -59 -99 10 -99c23 1 50 11 73 34l58 -44c-25 -43 -75 -70 -124 -75c-128 -13 -177 96 -134 165c-169 -3 -305 99 -305 302v410h111v-410c0 -136 87 -206 199 -201c105 4 173 76 173 201v410z" />
    <glyph glyph-name="uogonek" unicode="&#x173;" horiz-adv-x="609" 
d="M555 -126l41 -52c-69 -63 -207 -65 -237 32c-13 40 3 115 87 133l-6 85c-48 -56 -101 -80 -170 -80c-131 0 -208 93 -208 250v251h103v-250c0 -92 38 -156 134 -156c81 0 137 66 137 149v257h103v-549c-48 5 -114 -17 -103 -61c5 -26 59 -51 119 -9z" />
    <glyph glyph-name="Wcircumflex" unicode="&#x174;" horiz-adv-x="1074" 
d="M1056 700l-250 -701h-99l-93 247l-77 235l-77 -236l-92 -246h-98l-254 701h125l178 -539l181 539h72l185 -539l174 539h125zM507 925h59l144 -133v-6h-105l-69 58l-68 -58h-105v6z" />
    <glyph glyph-name="wcircumflex" unicode="&#x175;" horiz-adv-x="848" 
d="M380 494h89l118 -388l122 388h115l-173 -496h-120l-58 164l-48 172l-49 -172l-58 -164h-120l-174 496h116l122 -388zM396 710h57l142 -131v-5h-103l-67 57l-68 -57h-103v5z" />
    <glyph glyph-name="Ycircumflex" unicode="&#x176;" horiz-adv-x="686" 
d="M149 700l193 -309l199 309h135v-5l-278 -408v-287h-112v287l-270 408v5h133zM316 920h57l141 -130v-6h-103l-67 58l-67 -58h-102v6z" />
    <glyph glyph-name="ycircumflex" unicode="&#x177;" horiz-adv-x="558" 
d="M427 493h115l-311 -722h-114l102 236l-197 486h120l85 -233l49 -140l53 138zM251 710h56l137 -127v-6h-100l-65 56l-66 -56h-100v6z" />
    <glyph glyph-name="Zacute" unicode="&#x179;" horiz-adv-x="609" 
d="M58 597v103h511v-51l-385 -542h385v-107h-543v63l378 534h-346zM461 905v-4l-110 -126h-98v5l78 125h130z" />
    <glyph glyph-name="zacute" unicode="&#x17a;" horiz-adv-x="477" 
d="M47 493h389v-48l-248 -344h250v-101h-408v42l255 357h-238v94zM362 699v-4l-98 -124h-87v4l69 124h116z" />
    <glyph glyph-name="Zdotaccent" unicode="&#x17b;" horiz-adv-x="609" 
d="M58 597v103h511v-51l-385 -542h385v-107h-543v63l378 534h-346zM247 834c0 82 135 82 135 0c0 -83 -135 -83 -135 0z" />
    <glyph glyph-name="zdotaccent" unicode="&#x17c;" horiz-adv-x="477" 
d="M47 493h389v-48l-248 -344h250v-101h-408v42l255 357h-238v94zM185 646c0 84 133 84 133 0s-133 -84 -133 0z" />
    <glyph glyph-name="longs" unicode="&#x17f;" horiz-adv-x="316" 
d="M226 0h-104v396h-94v91h94v36c0 123 77 187 178 187c43 0 84 -14 121 -39l-40 -77c-27 17 -48 26 -75 26c-47 0 -80 -30 -80 -97v-523z" />
    <glyph glyph-name="Aringacute" unicode="&#x1fa;" horiz-adv-x="766" 
d="M383 873c136 0 173 -148 63 -199l312 -674h-122l-66 147h-375l-66 -147h-121l311 674c-109 56 -73 199 64 199zM238 247h289l-76 174l-68 153l-70 -156zM382 812c-77 0 -77 -90 0 -90c80 0 78 90 0 90zM531 988v-3l-110 -90h-97v3l77 90h130z" />
    <glyph glyph-name="aringacute" unicode="&#x1fb;" 
d="M463 415l3 78h100v-493h-98l-5 80c-32 -64 -110 -93 -170 -93c-144 0 -253 92 -253 260c0 165 114 257 255 257c71 0 137 -33 168 -89zM303 410c-88 0 -160 -63 -160 -163c0 -101 72 -164 160 -164c213 0 213 327 0 327zM199 642c0 61 51 94 110 94c57 0 113 -33 113 -94
c0 -63 -52 -95 -112 -95s-111 34 -111 95zM309 686c-68 0 -68 -86 0 -86c71 0 68 86 0 86zM446 877v-3l-98 -99h-87v4l69 98h116z" />
    <glyph glyph-name="AEacute" unicode="&#x1fc;" horiz-adv-x="913" 
d="M859 101v-101h-421v168h-231l-103 -168h-126l440 700h436v-98h-314v-200h300v-98h-300v-203h319zM270 268h168v139l7 160h-1zM651 905v-4l-105 -133h-93v5l74 132h124z" />
    <glyph glyph-name="aeacute" unicode="&#x1fd;" horiz-adv-x="1012" 
d="M973 208h-401c13 -83 82 -126 160 -126c56 0 115 17 150 53l62 -63c-60 -64 -136 -84 -212 -84c-79 0 -137 28 -173 83l-3 -71h-91l-1 78c-32 -63 -115 -91 -171 -91c-144 0 -253 89 -253 260c0 165 113 257 256 257c69 0 137 -33 169 -89l3 78h92v-72
c44 61 109 85 178 85c157 0 270 -111 235 -298zM304 410c-89 0 -160 -63 -160 -163c0 -101 71 -164 160 -164c219 0 219 327 0 327zM574 295h304c0 79 -59 119 -142 119c-75 0 -146 -41 -162 -119zM653 701v-4l-97 -122h-86v4l69 122h114z" />
    <glyph glyph-name="Oslashacute" unicode="&#x1fe;" horiz-adv-x="804" 
d="M404 713c55 0 102 -10 145 -27l46 79h109l-74 -126c88 -71 132 -180 132 -292c-3 -181 -115 -362 -358 -362c-55 0 -104 9 -147 26l-50 -85h-109l78 131c-87 68 -130 177 -130 289c0 184 118 367 358 367zM404 88c172 0 247 132 247 257c1 75 -24 150 -77 201l-262 -444
c28 -9 59 -14 92 -14zM404 611c-174 0 -250 -137 -247 -266c0 -72 25 -144 76 -192l261 442c-27 11 -55 16 -90 16zM558 911v-4l-105 -133h-93v5l74 132h124z" />
    <glyph glyph-name="oslashacute" unicode="&#x1ff;" horiz-adv-x="588" 
d="M293 503c33 0 65 -6 95 -17l37 63h99l-63 -106c56 -47 88 -117 88 -197c0 -146 -100 -256 -256 -256c-32 0 -63 5 -92 14l-39 -66h-99l64 108c-56 45 -88 116 -88 200c0 144 101 257 254 257zM293 408c-93 0 -151 -75 -151 -162c0 -45 13 -81 39 -109l156 264
c-13 4 -29 7 -44 7zM293 86c95 0 152 72 152 160c0 40 -14 77 -38 105l-154 -260c12 -4 25 -5 40 -5zM431 699v-3l-94 -120h-84v4l67 119h111z" />
    <glyph glyph-name="Scommaaccent" unicode="&#x218;" horiz-adv-x="660" 
d="M591 602l-85 -57c-33 48 -100 77 -173 78c-94 0 -162 -38 -162 -106s78 -87 170 -100c144 -21 281 -59 281 -217c0 -157 -144 -216 -290 -216c-135 0 -237 41 -301 159l84 56c51 -85 137 -115 218 -115c84 0 177 27 177 116c0 76 -80 102 -179 115
c-139 19 -271 54 -271 204c0 145 143 201 270 201c101 0 202 -24 261 -118zM400 -130c0 -15 -6 -27 -44 -135h-61l21 90c-24 5 -41 21 -41 48c0 72 125 75 125 -3z" />
    <glyph glyph-name="scommaaccent" unicode="&#x219;" horiz-adv-x="499" 
d="M443 440l-58 -68c-39 36 -81 46 -130 46c-64 1 -105 -20 -105 -59c1 -41 43 -56 107 -63c91 -8 209 -27 209 -155c0 -92 -83 -156 -210 -156c-80 0 -160 18 -225 91l54 73c47 -51 114 -72 173 -73c47 0 105 18 105 64c1 44 -41 61 -114 68c-92 8 -201 40 -201 148
c0 109 113 150 205 150c76 0 134 -17 190 -66zM307 -135c0 -13 -6 -25 -41 -124h-57l20 83c-23 4 -39 19 -39 44c0 66 117 69 117 -3z" />
    <glyph glyph-name="uni021A" unicode="&#x21a;" horiz-adv-x="606" 
d="M247 0v599h-230v101h572v-101h-229v-599h-113zM364 -130c0 -15 -6 -27 -44 -135h-61l21 90c-24 5 -41 21 -41 48c0 72 125 75 125 -3z" />
    <glyph glyph-name="uni021B" unicode="&#x21b;" horiz-adv-x="407" 
d="M125 624l104 11v-143h144v-89h-145v-235c0 -52 23 -81 71 -81c20 0 43 6 63 17l30 -88c-35 -15 -64 -22 -99 -22c-108 -3 -168 57 -168 174v235h-95v89h95v132zM313 -130c0 -15 -6 -27 -44 -135h-61l21 90c-24 5 -41 21 -41 48c0 72 125 75 125 -3z" />
    <glyph glyph-name="dotlessj" unicode="&#x237;" horiz-adv-x="243" 
d="M70 495h103v-553c0 -125 -44 -189 -156 -189c-35 0 -69 8 -104 31l37 81c23 -11 44 -16 63 -15c49 1 57 35 57 92v553z" />
    <glyph glyph-name="caron" unicode="&#x2c7;" horiz-adv-x="404" 
d="M21 694v6h106l72 -62l75 62h103v-6l-149 -137h-61z" />
    <glyph glyph-name="breve" unicode="&#x2d8;" horiz-adv-x="333" 
d="M235 698h84c0 -89 -65 -139 -145 -139c-78 0 -151 48 -146 139h84c0 -37 23 -62 62 -62c37 0 61 25 61 62z" />
    <glyph glyph-name="dotaccent" unicode="&#x2d9;" horiz-adv-x="206" 
d="M22 647c0 84 128 84 128 0c0 -85 -128 -85 -128 0z" />
    <glyph glyph-name="ring" unicode="&#x2da;" horiz-adv-x="329" 
d="M35 600c0 76 58 115 125 115c64 0 128 -39 128 -115s-59 -117 -127 -117s-126 41 -126 117zM160 654c-77 0 -77 -106 0 -106c80 0 78 106 0 106z" />
    <glyph glyph-name="ogonek" unicode="&#x2db;" horiz-adv-x="407" 
d="M255 -135l50 -39c-24 -41 -69 -61 -116 -64c-64 -3 -120 25 -135 85c-14 54 14 154 178 130l15 -47c-53 11 -132 -13 -113 -65c7 -19 28 -34 61 -30c19 3 41 10 60 30z" />
    <glyph glyph-name="hungarumlaut" unicode="&#x2dd;" horiz-adv-x="396" 
d="M373 701v-3l-101 -131h-87v1l84 133h104zM205 702v-4l-100 -130h-88v1l84 133h104z" />
    <glyph glyph-name="uni0394" unicode="&#x394;" horiz-adv-x="765" 
d="M419 700l335 -700h-750l334 700h81zM379 547l-226 -458h446z" />
    <glyph glyph-name="Omega.001" unicode="&#x3a9;" horiz-adv-x="801" 
d="M382 611c-168 0 -250 -128 -250 -256c0 -108 57 -221 174 -256v-99h-251v96h100c-95 58 -132 163 -132 266c0 195 142 351 359 351c219 0 360 -156 360 -351c0 -104 -33 -197 -132 -266h100v-96h-251v99c115 35 174 148 174 256c0 128 -84 256 -251 256z" />
    <glyph glyph-name="mu.001" unicode="&#x3bc;" horiz-adv-x="612" 
d="M557 0h-100l-10 71c-56 -99 -221 -108 -267 -1v-289h-103v714h109v-271c0 -181 260 -185 260 13v258h111v-495z" />
    <glyph glyph-name="pi" unicode="&#x3c0;" horiz-adv-x="682" 
d="M237 0h-103v403h-108v90h622v-90h-109v-247c0 -55 20 -89 89 -76l9 -83c-133 -25 -201 32 -201 157v249h-199v-403z" />
    <glyph glyph-name="Wgrave" unicode="&#x1e80;" horiz-adv-x="1074" 
d="M1056 700l-250 -701h-99l-93 247l-77 235l-77 -236l-92 -246h-98l-254 701h125l178 -539l181 539h72l185 -539l174 539h125zM401 898v4h122l73 -123v-4h-92z" />
    <glyph glyph-name="wgrave" unicode="&#x1e81;" horiz-adv-x="848" 
d="M380 494h89l118 -388l122 388h115l-173 -496h-120l-58 164l-48 172l-49 -172l-58 -164h-120l-174 496h116l122 -388zM292 698v4h116l70 -118v-4h-87z" />
    <glyph glyph-name="Wacute" unicode="&#x1e82;" horiz-adv-x="1074" 
d="M1056 700l-250 -701h-99l-93 247l-77 235l-77 -236l-92 -246h-98l-254 701h125l178 -539l181 539h72l185 -539l174 539h125zM673 902v-4l-105 -122h-92v4l74 122h123z" />
    <glyph glyph-name="wacute" unicode="&#x1e83;" horiz-adv-x="848" 
d="M380 494h89l118 -388l122 388h115l-173 -496h-120l-58 164l-48 172l-49 -172l-58 -164h-120l-174 496h116l122 -388zM560 699v-3l-100 -116h-87v5l69 114h118z" />
    <glyph glyph-name="Wdieresis" unicode="&#x1e84;" horiz-adv-x="1074" 
d="M1056 700l-250 -701h-99l-93 247l-77 235l-77 -236l-92 -246h-98l-254 701h125l178 -539l181 539h72l185 -539l174 539h125zM354 831c0 82 124 82 124 0c0 -83 -124 -83 -124 0zM594 831c0 82 125 82 125 0c0 -83 -125 -83 -125 0z" />
    <glyph glyph-name="wdieresis" unicode="&#x1e85;" horiz-adv-x="848" 
d="M380 494h89l118 -388l122 388h115l-173 -496h-120l-58 164l-48 172l-49 -172l-58 -164h-120l-174 496h116l122 -388zM255 653c0 76 115 76 115 0c0 -77 -115 -77 -115 0zM478 653c0 76 116 76 116 0c0 -77 -116 -77 -116 0z" />
    <glyph glyph-name="ygrave" unicode="&#x1ef3;" horiz-adv-x="558" 
d="M427 493h115l-311 -722h-114l102 236l-197 486h120l85 -233l49 -140l53 138zM156 673v4h124l74 -135v-5h-93z" />
    <glyph glyph-name="fraction" unicode="&#x2044;" horiz-adv-x="160" 
d="M226 706h93l-384 -710h-92z" />
    <glyph glyph-name="zerosuperior" unicode="&#x2070;" horiz-adv-x="396" 
d="M115 667v-54c0 -117 163 -117 163 0v54c0 120 -163 120 -163 0zM39 614v54c0 215 318 214 318 0v-54c0 -216 -318 -216 -318 0z" />
    <glyph glyph-name="foursuperior" unicode="&#x2074;" horiz-adv-x="378" 
d="M194 823h103v-227h45v-68h-45v-69h-77v69h-192l-4 65zM220 596v153l-114 -153h114z" />
    <glyph glyph-name="fivesuperior" unicode="&#x2075;" horiz-adv-x="364" 
d="M310 823v-69h-190v-60h63c84 0 149 -35 149 -122c0 -83 -66 -123 -146 -123c-76 0 -149 30 -149 115h77c1 -33 34 -44 69 -44c44 0 70 17 70 52c0 32 -21 54 -70 54h-139v197h266z" />
    <glyph glyph-name="sixsuperior" unicode="&#x2076;" horiz-adv-x="377" 
d="M191 520c36 0 72 14 72 50c0 37 -34 53 -71 53c-39 0 -73 -17 -72 -52c0 -37 34 -51 71 -51zM192 689c73 0 149 -26 149 -119c0 -84 -77 -118 -150 -118s-149 38 -149 119v139c0 81 73 118 146 118c78 0 148 -31 148 -104h-78c-3 25 -30 36 -69 36c-36 0 -69 -13 -69 -50
v-47c17 17 48 26 72 26z" />
    <glyph glyph-name="sevensuperior" unicode="&#x2077;" horiz-adv-x="320" 
d="M140 458h-88l151 295h-175v70h273l4 -34z" />
    <glyph glyph-name="eightsuperior" unicode="&#x2078;" horiz-adv-x="387" 
d="M116 560c0 -29 34 -49 78 -49c43 0 77 20 76 49c0 33 -37 51 -76 51c-40 0 -78 -16 -78 -51zM37 560c0 35 23 68 62 83c-33 13 -53 42 -53 75c0 76 72 109 147 109c74 0 149 -32 149 -109c0 -31 -16 -58 -53 -73c39 -15 61 -50 61 -85c0 -88 -79 -115 -157 -115
c-77 0 -156 27 -156 115zM124 717c0 -31 29 -45 70 -45c39 0 68 14 68 45c0 33 -36 46 -69 46s-69 -14 -69 -46z" />
    <glyph glyph-name="ninesuperior" unicode="&#x2079;" horiz-adv-x="378" 
d="M186 761c-35 0 -71 -14 -71 -50c0 -37 33 -53 70 -53c39 0 73 17 73 52c0 37 -35 51 -72 51zM185 592c-72 0 -149 26 -149 119c0 84 78 118 150 118c74 0 149 -38 149 -119v-139c0 -81 -73 -118 -146 -118c-78 0 -145 31 -148 104h78c3 -25 30 -36 69 -36
c36 0 69 13 69 50v47c-17 -17 -48 -26 -72 -26z" />
    <glyph glyph-name="zeroinferior" unicode="&#x2080;" horiz-adv-x="396" 
d="M115 124v-55c0 -116 163 -116 163 0v55c0 120 -163 120 -163 0zM39 71v53c0 215 318 215 318 0v-53c0 -216 -318 -216 -318 0z" />
    <glyph glyph-name="oneinferior" unicode="&#x2081;" horiz-adv-x="266" 
d="M36 -85v68h62v209l-53 -12v67l131 33v-297h65v-68h-205z" />
    <glyph glyph-name="twoinferior" unicode="&#x2082;" horiz-adv-x="368" 
d="M118 174h-77c0 79 72 112 140 112c82 0 149 -31 149 -115c0 -162 -213 -75 -213 -164v-16h208c0 -25 -1 -51 -1 -76h-285v92c0 148 211 78 211 164c0 35 -27 47 -68 47c-33 0 -63 -11 -64 -44z" />
    <glyph glyph-name="threeinferior" unicode="&#x2083;" horiz-adv-x="371" 
d="M184 74h-57v61h53c37 0 67 7 68 43c0 15 -15 44 -68 44c-32 0 -65 -7 -72 -43h-69c0 78 75 109 142 109c69 0 145 -34 145 -110c0 -32 -18 -63 -51 -74c39 -11 59 -46 59 -77c0 -88 -84 -117 -154 -117c-68 0 -147 30 -147 113h81c7 -35 39 -42 68 -42c32 0 71 10 71 45
c0 23 -16 48 -69 48z" />
    <glyph glyph-name="fourinferior" unicode="&#x2084;" horiz-adv-x="376" 
d="M194 279h103v-227h42v-69h-42v-68h-77v68h-192l-4 66zM220 52v152l-114 -152h114z" />
    <glyph glyph-name="fiveinferior" unicode="&#x2085;" horiz-adv-x="364" 
d="M310 281v-68h-190v-60h63c84 0 149 -35 149 -123c0 -83 -66 -122 -146 -122c-76 0 -149 30 -149 114h77c1 -33 34 -44 69 -44c44 0 70 19 70 52c0 32 -21 54 -70 54h-139v197h266z" />
    <glyph glyph-name="sixinferior" unicode="&#x2086;" horiz-adv-x="380" 
d="M194 -22c36 0 72 14 72 51c0 36 -34 52 -71 52c-39 0 -73 -17 -72 -52c0 -37 34 -51 71 -51zM195 147c73 0 149 -24 149 -118c0 -84 -77 -119 -150 -119s-149 37 -149 120v138c0 81 73 118 146 118c78 0 148 -31 148 -104h-78c-3 25 -30 37 -69 37c-36 0 -69 -14 -69 -51
v-47c17 19 48 26 72 26z" />
    <glyph glyph-name="seveninferior" unicode="&#x2087;" horiz-adv-x="321" 
d="M140 -85h-88l151 294h-175v70h273l4 -33z" />
    <glyph glyph-name="eightinferior" unicode="&#x2088;" horiz-adv-x="388" 
d="M118 23c-1 -29 33 -50 77 -50c43 0 77 19 77 50c0 32 -37 51 -76 51c-40 0 -78 -16 -78 -51zM38 23c0 35 23 69 63 82c-33 13 -54 41 -54 76c0 76 72 109 147 109c76 0 149 -33 149 -109c0 -31 -14 -59 -53 -74c39 -13 62 -51 62 -84c0 -88 -80 -115 -158 -115
c-77 0 -156 27 -156 115zM125 180c1 -31 29 -45 70 -45c40 0 68 14 69 45c0 32 -37 46 -70 46s-69 -14 -69 -46z" />
    <glyph glyph-name="nineinferior" unicode="&#x2089;" horiz-adv-x="379" 
d="M186 217c-35 0 -71 -14 -71 -50c0 -37 33 -53 70 -53c39 0 73 17 73 52c0 37 -35 51 -72 51zM185 48c-72 0 -149 26 -149 119c0 84 78 118 150 118c74 0 149 -38 149 -119v-139c0 -81 -73 -118 -146 -118c-78 0 -145 31 -148 104h78c3 -25 30 -36 69 -36
c36 0 69 13 69 50v47c-17 -17 -48 -26 -72 -26z" />
    <glyph glyph-name="afii61289" unicode="&#x2113;" horiz-adv-x="396" 
d="M201 242v-95c0 -60 58 -83 130 -66v-69c-125 -40 -231 -10 -231 151l-49 -24l-14 46c23 9 43 19 62 30v333c0 119 36 167 156 167c113 0 121 -102 110 -193c-13 -111 -84 -208 -164 -280zM198 548c0 -56 -1 -165 -1 -237c49 57 109 142 120 220c5 51 15 132 -60 132
c-40 0 -59 -59 -59 -115z" />
    <glyph glyph-name="uni2117" unicode="&#x2117;" horiz-adv-x="823" 
d="M411 715c232 0 362 -167 362 -365s-130 -365 -362 -365c-231 0 -361 167 -361 365s130 365 361 365zM142 350c0 -157 98 -282 269 -282c172 0 269 125 269 282s-97 283 -269 283c-171 0 -269 -126 -269 -283zM455 270h-89v-109h-85v371h174c177 0 183 -262 0 -262z
M455 455h-89v-111h88c67 0 71 100 12 108c-3 2 -7 3 -11 3z" />
    <glyph glyph-name="Omega" unicode="&#x2126;" horiz-adv-x="815" 
d="M407 611c-168 0 -250 -128 -250 -256c0 -108 57 -221 174 -256v-99h-251v96h100c-95 58 -132 163 -132 266c0 195 142 351 359 351c219 0 360 -156 360 -351c0 -104 -33 -197 -132 -266h100v-96h-251v99c115 35 174 148 174 256c0 128 -84 256 -251 256z" />
    <glyph glyph-name="estimated" unicode="&#x212e;" horiz-adv-x="635" 
d="M326 -7c-148 0 -268 102 -268 296c0 196 119 297 267 297c149 0 281 -80 262 -323h-402v-170c39 -35 88 -53 141 -53c79 0 142 24 190 93l37 -29c-60 -85 -134 -111 -227 -111zM325 539c-55 0 -101 -13 -140 -46v-183h283v186c-37 29 -84 43 -143 43z" />
    <glyph glyph-name="uni2153" unicode="&#x2153;" horiz-adv-x="776" 
d="M47 340v68h62v209l-54 -13v67l132 33v-296h64v-68h-204zM591 158h-56v61h52c39 0 67 7 68 43c0 15 -15 44 -67 44c-32 0 -65 -7 -72 -43h-69c0 78 74 109 142 109s144 -34 144 -110c0 -32 -18 -63 -50 -74c39 -11 59 -46 59 -77c0 -88 -83 -117 -155 -117
c-68 0 -147 30 -147 113h81c7 -35 40 -42 69 -42c31 0 70 10 70 45c0 23 -16 48 -69 48zM508 706h90l-384 -710h-89z" />
    <glyph glyph-name="uni2154" unicode="&#x2154;" horiz-adv-x="856" 
d="M670 158h-57v61h53c39 0 67 7 68 43c0 16 -15 44 -67 44c-32 0 -65 -7 -72 -43h-70c0 78 75 109 142 109c69 0 145 -34 145 -110c0 -32 -18 -63 -50 -74c37 -11 59 -46 59 -77c0 -88 -86 -117 -155 -117c-68 0 -147 30 -147 113h81c7 -35 39 -42 68 -42c32 0 71 10 71 45
c0 23 -16 48 -69 48zM586 706h91l-385 -710h-89zM127 597h-78c0 79 73 112 140 112c83 0 149 -32 149 -116c0 -162 -212 -75 -212 -164v-16h206c0 -25 -1 -51 -1 -76h-284v92c0 150 212 78 212 164c0 35 -28 48 -68 48c-33 0 -64 -11 -64 -44z" />
    <glyph glyph-name="oneeighth" unicode="&#x215b;" horiz-adv-x="796" 
d="M47 340v68h62v209l-54 -13v67l132 33v-296h64v-68h-204zM508 706h90l-384 -710h-89zM527 107c-1 -29 33 -50 77 -50c43 0 77 19 77 50c0 32 -37 51 -76 51c-40 0 -78 -16 -78 -51zM447 107c0 35 24 69 63 82c-33 13 -54 41 -54 76c0 76 72 109 147 109s150 -33 150 -109
c0 -31 -15 -59 -54 -74c39 -13 62 -51 62 -84c0 -88 -80 -115 -158 -115c-77 0 -156 27 -156 115zM534 264c1 -31 30 -45 70 -45s68 14 69 45c0 32 -36 46 -70 46c-33 0 -69 -14 -69 -46z" />
    <glyph glyph-name="threeeighths" unicode="&#x215c;" horiz-adv-x="860" 
d="M574 706h91l-385 -710h-89zM591 107c-1 -29 34 -50 77 -50s78 19 77 50c0 32 -37 51 -76 51c-40 0 -78 -16 -78 -51zM512 107c0 35 23 69 62 82c-33 13 -53 41 -53 76c0 76 71 109 147 109c74 0 149 -33 149 -109c0 -31 -16 -59 -53 -74c39 -13 61 -51 61 -84
c0 -88 -79 -115 -157 -115c-76 0 -159 27 -156 115zM598 264c1 -31 30 -45 70 -45s68 14 69 45c0 32 -36 46 -69 46s-70 -14 -70 -46zM189 493h-56v61h52c39 0 68 7 68 44c0 15 -14 43 -67 43c-32 0 -65 -7 -72 -43h-69c0 78 74 109 142 109s145 -34 145 -110
c0 -32 -18 -63 -51 -74c39 -11 59 -45 59 -76c0 -90 -83 -118 -155 -118c-68 0 -147 30 -147 113h81c7 -35 40 -42 69 -42c32 0 71 10 71 45c0 23 -17 48 -70 48z" />
    <glyph glyph-name="fiveeighths" unicode="&#x215d;" horiz-adv-x="859" 
d="M573 706h91l-385 -710h-89zM590 107c-1 -29 34 -50 77 -50s78 19 77 50c0 32 -37 51 -76 51c-40 0 -78 -16 -78 -51zM511 107c0 35 23 69 62 82c-33 13 -53 41 -53 76c0 76 71 109 147 109c74 0 149 -33 149 -109c0 -31 -16 -59 -53 -74c39 -13 61 -51 61 -84
c0 -88 -79 -115 -157 -115c-76 0 -159 27 -156 115zM597 264c1 -31 30 -45 70 -45s68 14 69 45c0 32 -36 46 -69 46s-70 -14 -70 -46zM314 700v-69h-190v-60h63c86 0 149 -35 149 -122c0 -83 -65 -123 -146 -123c-76 0 -148 30 -148 115h77c0 -33 33 -44 68 -44
c45 0 71 17 71 52c0 32 -22 54 -71 54h-139v197h266z" />
    <glyph glyph-name="seveneighths" unicode="&#x215e;" horiz-adv-x="776" 
d="M483 706h90l-384 -710h-89zM507 107c-1 -29 34 -50 77 -50s78 19 77 50c0 32 -37 51 -76 51c-40 0 -78 -16 -78 -51zM428 107c0 35 23 69 62 82c-33 13 -53 41 -53 76c0 76 71 109 147 109c74 0 149 -33 149 -109c0 -31 -16 -59 -53 -74c39 -13 61 -51 61 -84
c0 -88 -79 -115 -157 -115c-76 0 -159 27 -156 115zM514 264c1 -31 30 -45 70 -45s68 14 69 45c0 32 -36 46 -69 46s-70 -14 -70 -46zM150 336h-88l150 294h-174v70h273l4 -33z" />
    <glyph glyph-name="arrowleft" unicode="&#x2190;" horiz-adv-x="629" 
d="M262 121l-230 229l230 229l56 -53l-129 -130h383v-93h-384l127 -133z" />
    <glyph glyph-name="arrowup" unicode="&#x2191;" horiz-adv-x="523" 
d="M33 397l229 230l229 -231l-53 -55l-130 129v-383h-93v384l-133 -127z" />
    <glyph glyph-name="arrowright" unicode="&#x2192;" horiz-adv-x="630" 
d="M367 580l230 -229l-231 -229l-55 53l129 130h-383v93h383l-126 133z" />
    <glyph glyph-name="arrowdown" unicode="&#x2193;" horiz-adv-x="523" 
d="M490 303l-229 -230l-229 231l53 55l130 -129v383h93v-384l133 127z" />
    <glyph glyph-name="uni2196" unicode="&#x2196;" horiz-adv-x="508" 
d="M62 215v324h325l2 -77l-184 -1l271 -271l-66 -66l-271 271l-4 -182z" />
    <glyph glyph-name="uni2197" unicode="&#x2197;" horiz-adv-x="509" 
d="M121 466l3 73h324c0 -109 -1 -217 -1 -325l-76 -2c0 61 -1 122 -1 183l-271 -271l-66 67l271 271z" />
    <glyph glyph-name="uni2198" unicode="&#x2198;" horiz-adv-x="550" 
d="M130 157l-2 72l183 5l-271 271l65 66l271 -271c0 61 1 121 1 184l77 -3v-324h-324z" />
    <glyph glyph-name="uni2199" unicode="&#x2199;" horiz-adv-x="549" 
d="M422 229l-3 -72h-324c0 108 1 216 1 324l76 3c0 -63 1 -123 1 -184l271 271l66 -66l-271 -271z" />
    <glyph glyph-name="partialdiff" unicode="&#x2202;" horiz-adv-x="591" 
d="M294 84c100 0 148 77 148 155c0 77 -48 154 -148 154c-98 0 -148 -77 -148 -154c0 -78 50 -155 148 -155zM252 480c55 7 120 -4 161 -43c-32 91 -167 162 -255 178l20 85c225 -40 370 -212 370 -449c0 -152 -94 -261 -254 -261c-170 0 -254 123 -254 248
c0 114 70 223 212 242z" />
    <glyph glyph-name="increment" unicode="&#x2206;" horiz-adv-x="802" 
d="M441 700l335 -700h-750l334 700h81zM401 547l-226 -458h446z" />
    <glyph glyph-name="product" unicode="&#x220f;" horiz-adv-x="687" 
d="M601 -190h-112v786h-290v-786h-113v890h515v-890z" />
    <glyph glyph-name="summation" unicode="&#x2211;" horiz-adv-x="590" 
d="M370 364l-179 -258h347v-106h-500v63l211 303l-197 283v51h480v-99h-319z" />
    <glyph glyph-name="minus" unicode="&#x2212;" horiz-adv-x="527" 
d="M70 260v93h387v-93h-387z" />
    <glyph glyph-name="uni2215" unicode="&#x2215;" horiz-adv-x="457" 
d="M376 706h93l-384 -710h-92z" />
    <glyph glyph-name="uni2219" unicode="&#x2219;" horiz-adv-x="260" 
d="M63 314c0 88 134 88 134 0s-134 -88 -134 0z" />
    <glyph glyph-name="radical" unicode="&#x221a;" horiz-adv-x="613" 
d="M603 697l-233 -697h-79l-166 331l-83 -35l-27 67l173 78l149 -325l202 600z" />
    <glyph glyph-name="infinity" unicode="&#x221e;" horiz-adv-x="768" 
d="M216 163c-109 3 -165 79 -165 159c0 81 59 162 171 162c60 0 116 -49 161 -102c45 51 105 102 162 102c112 0 171 -81 171 -162s-53 -156 -165 -159c-67 0 -120 45 -168 101c-46 -54 -101 -101 -167 -101zM218 245c44 0 75 33 106 64c5 5 6 9 13 13l-9 11
c-32 35 -65 70 -110 70c-60 0 -91 -42 -88 -83c1 -39 31 -72 88 -75zM549 245c60 1 89 40 88 79c0 40 -28 79 -88 79c-45 0 -77 -36 -109 -71l-9 -10c4 -3 9 -8 12 -11c31 -32 62 -66 106 -66z" />
    <glyph glyph-name="integral" unicode="&#x222b;" horiz-adv-x="478" 
d="M179 -2v525c0 123 77 187 178 187c43 0 84 -14 121 -39l-40 -77c-27 17 -48 26 -75 26c-47 0 -80 -30 -80 -97v-525c0 -123 -74 -187 -175 -187c-41 0 -71 11 -108 36l39 76c25 -17 37 -22 64 -22c47 0 76 30 76 97z" />
    <glyph glyph-name="approxequal" unicode="&#x2248;" horiz-adv-x="578" 
d="M138 340l-68 42c27 52 77 82 129 82c65 3 113 -36 164 -44c36 -8 63 1 78 36l68 -33c-25 -64 -77 -104 -158 -87c-47 10 -105 47 -145 44c-27 3 -51 -16 -68 -40zM138 133l-68 41c27 56 76 82 129 82c64 5 113 -36 164 -44c36 -8 65 2 78 37l68 -34
c-25 -64 -77 -104 -158 -87c-47 10 -105 47 -145 44c-31 3 -49 -12 -68 -39z" />
    <glyph glyph-name="notequal" unicode="&#x2260;" horiz-adv-x="554" 
d="M64 155v95h152l73 124h-225v96h280l46 77l45 -26l-30 -51h83v-96h-138l-73 -124h211v-95h-266l-45 -78l-46 27l30 51h-97z" />
    <glyph glyph-name="lessequal" unicode="&#x2264;" horiz-adv-x="451" 
d="M62 84v86h324v-86h-324zM70 418v19l240 193l59 -64l-177 -139l178 -141l-60 -64z" />
    <glyph glyph-name="greaterequal" unicode="&#x2265;" horiz-adv-x="451" 
d="M388 170v-86h-323v86h323zM381 437v-19l-240 -196l-60 64l177 141l-176 139l58 64z" />
    <glyph glyph-name="lozenge" unicode="&#x25ca;" horiz-adv-x="580" 
d="M547 351l-215 -343h-86l-214 343l214 345h86zM145 351l144 -247l147 247l-147 247z" />
    <glyph glyph-name="fi" unicode="&#xfb01;" horiz-adv-x="613" 
d="M362 603l33 81c-33 17 -65 26 -98 26c-101 0 -178 -64 -178 -187v-36h-91v-90h91v-397h104v397h147v90h-147v36c0 67 33 97 80 97c21 0 39 -6 59 -17zM545 495h-104v-495h104v495zM429 638c0 84 128 84 128 0c0 -85 -128 -85 -128 0z" />
    <glyph glyph-name="fl" unicode="&#xfb02;" horiz-adv-x="618" 
d="M364 698l-15 -89c-16 7 -32 11 -47 11c-47 0 -80 -30 -80 -97v-36h129v-90h-129v-397h-104v397h-90v90h90v36c0 123 77 187 178 187c23 0 46 -4 68 -12zM440 701h104v-701h-104v701z" />
    <glyph glyph-name="uni1EA0" unicode="&#x1ea0;" horiz-adv-x="768" 
d="M640 0l-67 147h-379l-66 -147h-119l314 700h122l314 -700h-119zM532 249l-148 333l-148 -333h296zM318 -102c0 73 110 73 110 0s-110 -73 -110 0z" />
    <glyph glyph-name="uni1EA1" unicode="&#x1ea1;" 
d="M463 415l3 78h100v-493h-98l-5 80c-32 -64 -110 -93 -170 -93c-144 0 -253 92 -253 260c0 165 114 257 255 257c71 0 137 -33 168 -89zM303 410c-88 0 -160 -63 -160 -163c0 -101 72 -164 160 -164c213 0 213 327 0 327zM254 -102c0 73 110 73 110 0s-110 -73 -110 0z
" />
    <glyph glyph-name="uni1EA3" unicode="&#x1ea3;" 
d="M463 415l3 78h100v-493h-98l-5 80c-32 -64 -110 -93 -170 -93c-144 0 -253 92 -253 260c0 165 114 257 255 257c71 0 137 -33 168 -89zM303 410c-88 0 -160 -63 -160 -163c0 -101 72 -164 160 -164c213 0 213 327 0 327zM296 633l-65 -1c7 83 42 110 91 113
c48 3 102 -21 102 -86c0 -51 -25 -68 -46 -76c-12 -3 -14 -23 -19 -46h-66c3 55 24 87 49 99c7 1 15 15 15 23c0 16 -19 16 -35 16c-9 0 -23 -9 -26 -42z" />
    <glyph glyph-name="uni1EA4" unicode="&#x1ea4;" horiz-adv-x="768" 
d="M640 0l-67 147h-379l-66 -147h-119l314 700h122l314 -700h-119zM532 249l-148 333l-148 -333h296zM354 885h60l147 -136v-6h-107l-70 60l-70 -60h-107v6zM681 991v-4l-105 -133h-93v5l74 132h124z" />
    <glyph glyph-name="uni1EA5" unicode="&#x1ea5;" 
d="M463 415l3 78h100v-493h-98l-5 80c-32 -64 -110 -93 -170 -93c-144 0 -253 92 -253 260c0 165 114 257 255 257c71 0 137 -33 168 -89zM303 410c-88 0 -160 -63 -160 -163c0 -101 72 -164 160 -164c213 0 213 327 0 327zM297 680h60l147 -136v-6h-107l-70 60l-70 -60
h-107v6zM624 787v-4l-105 -133h-93v5l74 132h124z" />
    <glyph glyph-name="uni1EA6" unicode="&#x1ea6;" horiz-adv-x="768" 
d="M640 0l-67 147h-379l-66 -147h-119l314 700h122l314 -700h-119zM532 249l-148 333l-148 -333h296zM354 885h60l147 -136v-6h-107l-70 60l-70 -60h-107v6zM396 991v4h124l74 -135v-5h-93z" />
    <glyph glyph-name="uni1EA7" unicode="&#x1ea7;" 
d="M463 415l3 78h100v-493h-98l-5 80c-32 -64 -110 -93 -170 -93c-144 0 -253 92 -253 260c0 165 114 257 255 257c71 0 137 -33 168 -89zM303 410c-88 0 -160 -63 -160 -163c0 -101 72 -164 160 -164c213 0 213 327 0 327zM297 680h60l147 -136v-6h-107l-70 60l-70 -60
h-107v6zM339 786v4h124l74 -135v-5h-93z" />
    <glyph glyph-name="uni1EA8" unicode="&#x1ea8;" horiz-adv-x="768" 
d="M640 0l-67 147h-379l-66 -147h-119l314 700h122l314 -700h-119zM532 249l-148 333l-148 -333h296zM354 885h60l147 -136v-6h-107l-70 60l-70 -60h-107v6zM504 929l-65 -1c7 83 42 110 91 113c48 3 102 -21 102 -86c0 -51 -25 -68 -46 -76c-12 -3 -14 -23 -19 -46h-66
c3 55 24 87 49 99c7 1 15 15 15 23c0 16 -19 16 -35 16c-9 0 -23 -9 -26 -42z" />
    <glyph glyph-name="uni1EA9" unicode="&#x1ea9;" 
d="M463 415l3 78h100v-493h-98l-5 80c-32 -64 -110 -93 -170 -93c-144 0 -253 92 -253 260c0 165 114 257 255 257c71 0 137 -33 168 -89zM303 410c-88 0 -160 -63 -160 -163c0 -101 72 -164 160 -164c213 0 213 327 0 327zM297 680h60l147 -136v-6h-107l-70 60l-70 -60
h-107v6zM447 725l-65 -1c7 83 42 110 91 113c48 3 102 -21 102 -86c0 -51 -25 -68 -46 -76c-12 -3 -14 -23 -19 -46h-66c3 55 24 87 49 99c7 1 15 15 15 23c0 16 -19 16 -35 16c-9 0 -23 -9 -26 -42z" />
    <glyph glyph-name="uni1EAA" unicode="&#x1eaa;" horiz-adv-x="768" 
d="M640 0l-67 147h-379l-66 -147h-119l314 700h122l314 -700h-119zM532 249l-148 333l-148 -333h296zM354 885h60l147 -136v-6h-107l-70 60l-70 -60h-107v6zM287 916l-61 33c19 56 58 94 118 81c24 -7 45 -21 68 -29s51 -9 62 26l66 -25c-13 -80 -73 -96 -119 -85
c-24 7 -45 21 -68 29s-50 5 -66 -30z" />
    <glyph glyph-name="uni1EAB" unicode="&#x1eab;" 
d="M463 415l3 78h100v-493h-98l-5 80c-32 -64 -110 -93 -170 -93c-144 0 -253 92 -253 260c0 165 114 257 255 257c71 0 137 -33 168 -89zM303 410c-88 0 -160 -63 -160 -163c0 -101 72 -164 160 -164c213 0 213 327 0 327zM297 680h60l147 -136v-6h-107l-70 60l-70 -60
h-107v6zM230 711l-61 33c19 56 58 94 118 81c24 -7 45 -21 68 -29s51 -9 62 26l66 -25c-13 -80 -73 -96 -119 -85c-24 7 -45 21 -68 29s-50 5 -66 -30z" />
    <glyph glyph-name="uni1EAC" unicode="&#x1eac;" horiz-adv-x="768" 
d="M640 0l-67 147h-379l-66 -147h-119l314 700h122l314 -700h-119zM532 249l-148 333l-148 -333h296zM354 885h60l147 -136v-6h-107l-70 60l-70 -60h-107v6zM318 -102c0 73 110 73 110 0s-110 -73 -110 0z" />
    <glyph glyph-name="uni1EAD" unicode="&#x1ead;" 
d="M463 415l3 78h100v-493h-98l-5 80c-32 -64 -110 -93 -170 -93c-144 0 -253 92 -253 260c0 165 114 257 255 257c71 0 137 -33 168 -89zM303 410c-88 0 -160 -63 -160 -163c0 -101 72 -164 160 -164c213 0 213 327 0 327zM297 680h60l147 -136v-6h-107l-70 60l-70 -60
h-107v6zM245 -102c0 73 110 73 110 0s-110 -73 -110 0z" />
    <glyph glyph-name="uni1EAE" unicode="&#x1eae;" horiz-adv-x="768" 
d="M640 0l-67 147h-379l-66 -147h-119l314 700h122l314 -700h-119zM532 249l-148 333l-148 -333h296zM450 877h87c0 -91 -68 -140 -151 -140c-80 0 -156 48 -151 140h87c0 -37 25 -62 64 -62s64 25 64 62zM512 1040v-4l-105 -133h-93v5l74 132h124z" />
    <glyph glyph-name="uni1EAF" unicode="&#x1eaf;" 
d="M463 415l3 78h100v-493h-98l-5 80c-32 -64 -110 -93 -170 -93c-144 0 -253 92 -253 260c0 165 114 257 255 257c71 0 137 -33 168 -89zM303 410c-88 0 -160 -63 -160 -163c0 -101 72 -164 160 -164c213 0 213 327 0 327zM387 674h84c0 -89 -65 -139 -145 -139
c-78 0 -151 48 -146 139h84c0 -37 23 -62 62 -62c37 0 61 25 61 62zM445 831v-4l-105 -133h-93v5l74 132h124z" />
    <glyph glyph-name="uni1EB0" unicode="&#x1eb0;" horiz-adv-x="768" 
d="M640 0l-67 147h-379l-66 -147h-119l314 700h122l314 -700h-119zM532 249l-148 333l-148 -333h296zM450 877h87c0 -91 -68 -140 -151 -140c-80 0 -156 48 -151 140h87c0 -37 25 -62 64 -62s64 25 64 62zM267 1040v4h124l74 -135v-5h-93z" />
    <glyph glyph-name="uni1EB1" unicode="&#x1eb1;" 
d="M463 415l3 78h100v-493h-98l-5 80c-32 -64 -110 -93 -170 -93c-144 0 -253 92 -253 260c0 165 114 257 255 257c71 0 137 -33 168 -89zM303 410c-88 0 -160 -63 -160 -163c0 -101 72 -164 160 -164c213 0 213 327 0 327zM387 674h84c0 -89 -65 -139 -145 -139
c-78 0 -151 48 -146 139h84c0 -37 23 -62 62 -62c37 0 61 25 61 62zM207 830v4h124l74 -135v-5h-93z" />
    <glyph glyph-name="uni1EB2" unicode="&#x1eb2;" horiz-adv-x="768" 
d="M640 0l-67 147h-379l-66 -147h-119l314 700h122l314 -700h-119zM532 249l-148 333l-148 -333h296zM450 877h87c0 -91 -68 -140 -151 -140c-80 0 -156 48 -151 140h87c0 -37 25 -62 64 -62s64 25 64 62zM359 963l-65 -1c7 79 42 105 91 108c48 3 102 -20 102 -82
c0 -48 -25 -65 -46 -73c-12 -3 -14 -21 -19 -44h-66c3 52 24 83 49 95c7 1 15 14 15 22c0 15 -19 15 -35 15c-9 0 -23 -9 -26 -40z" />
    <glyph glyph-name="uni1EB3" unicode="&#x1eb3;" 
d="M463 415l3 78h100v-493h-98l-5 80c-32 -64 -110 -93 -170 -93c-144 0 -253 92 -253 260c0 165 114 257 255 257c71 0 137 -33 168 -89zM303 410c-88 0 -160 -63 -160 -163c0 -101 72 -164 160 -164c213 0 213 327 0 327zM387 674h84c0 -89 -65 -139 -145 -139
c-78 0 -151 48 -146 139h84c0 -37 23 -62 62 -62c37 0 61 25 61 62zM294 766l-65 -1c7 79 42 105 91 108c48 3 102 -20 102 -82c0 -48 -25 -65 -46 -73c-12 -3 -14 -21 -19 -44h-66c3 52 24 83 49 95c7 1 15 14 15 22c0 15 -19 15 -35 15c-9 0 -23 -9 -26 -40z" />
    <glyph glyph-name="uni1EB4" unicode="&#x1eb4;" horiz-adv-x="768" 
d="M640 0l-67 147h-379l-66 -147h-119l314 700h122l314 -700h-119zM532 249l-148 333l-148 -333h296zM450 877h87c0 -91 -68 -140 -151 -140c-80 0 -156 48 -151 140h87c0 -37 25 -62 64 -62s64 25 64 62zM287 909l-61 33c19 56 58 94 118 81c24 -7 45 -21 68 -29
s51 -9 62 26l66 -25c-13 -80 -73 -96 -119 -85c-24 7 -45 21 -68 29s-50 5 -66 -30z" />
    <glyph glyph-name="uni1EB5" unicode="&#x1eb5;" 
d="M463 415l3 78h100v-493h-98l-5 80c-32 -64 -110 -93 -170 -93c-144 0 -253 92 -253 260c0 165 114 257 255 257c71 0 137 -33 168 -89zM303 410c-88 0 -160 -63 -160 -163c0 -101 72 -164 160 -164c213 0 213 327 0 327zM387 674h84c0 -89 -65 -139 -145 -139
c-78 0 -151 48 -146 139h84c0 -37 23 -62 62 -62c37 0 61 25 61 62zM236 707l-61 33c19 56 58 94 118 81c24 -7 45 -21 68 -29s51 -9 62 26l66 -25c-13 -80 -73 -96 -119 -85c-24 7 -45 21 -68 29s-50 5 -66 -30z" />
    <glyph glyph-name="uni1EB6" unicode="&#x1eb6;" horiz-adv-x="768" 
d="M640 0l-67 147h-379l-66 -147h-119l314 700h122l314 -700h-119zM532 249l-148 333l-148 -333h296zM450 877h87c0 -91 -68 -140 -151 -140c-80 0 -156 48 -151 140h87c0 -37 25 -62 64 -62s64 25 64 62zM318 -102c0 73 110 73 110 0s-110 -73 -110 0z" />
    <glyph glyph-name="uni1EB7" unicode="&#x1eb7;" 
d="M463 415l3 78h100v-493h-98l-5 80c-32 -64 -110 -93 -170 -93c-144 0 -253 92 -253 260c0 165 114 257 255 257c71 0 137 -33 168 -89zM303 410c-88 0 -160 -63 -160 -163c0 -101 72 -164 160 -164c213 0 213 327 0 327zM387 674h84c0 -89 -65 -139 -145 -139
c-78 0 -151 48 -146 139h84c0 -37 23 -62 62 -62c37 0 61 25 61 62zM248 -102c0 73 110 73 110 0s-110 -73 -110 0z" />
    <glyph glyph-name="uni1EB8" unicode="&#x1eb8;" horiz-adv-x="661" 
d="M605 110v-110h-517v700h514v-109h-402v-189h386v-104h-386v-188h405zM284 -102c0 73 110 73 110 0s-110 -73 -110 0z" />
    <glyph glyph-name="uni1EB9" unicode="&#x1eb9;" horiz-adv-x="582" 
d="M547 208h-400c9 -76 70 -124 161 -124c51 0 112 18 143 53l67 -65c-51 -57 -136 -84 -212 -84c-162 0 -266 103 -266 261c0 150 105 257 259 257c159 0 267 -98 248 -298zM149 295h299c-7 79 -62 119 -146 119c-76 0 -137 -40 -153 -119zM250 -102c0 73 110 73 110 0
s-110 -73 -110 0z" />
    <glyph glyph-name="uni1EBA" unicode="&#x1eba;" horiz-adv-x="661" 
d="M605 110v-110h-517v700h514v-109h-402v-189h386v-104h-386v-188h405zM321 839l-65 -1c7 83 42 110 91 113c48 3 102 -21 102 -86c0 -51 -25 -68 -46 -76c-12 -3 -14 -23 -19 -46h-66c3 55 24 87 49 99c7 1 15 15 15 23c0 16 -19 16 -35 16c-9 0 -23 -9 -26 -42z" />
    <glyph glyph-name="uni1EBB" unicode="&#x1ebb;" horiz-adv-x="582" 
d="M547 208h-400c9 -76 70 -124 161 -124c51 0 112 18 143 53l67 -65c-51 -57 -136 -84 -212 -84c-162 0 -266 103 -266 261c0 150 105 257 259 257c159 0 267 -98 248 -298zM149 295h299c-7 79 -62 119 -146 119c-76 0 -137 -40 -153 -119zM276 633l-65 -1
c7 83 42 110 91 113c48 3 102 -21 102 -86c0 -51 -25 -68 -46 -76c-12 -3 -14 -23 -19 -46h-66c3 55 24 87 49 99c7 1 15 15 15 23c0 16 -19 16 -35 16c-9 0 -23 -9 -26 -42z" />
    <glyph glyph-name="uni1EBC" unicode="&#x1ebc;" horiz-adv-x="661" 
d="M605 110v-110h-517v700h514v-109h-402v-189h386v-104h-386v-188h405zM247 740l-61 33c19 56 58 94 118 81c24 -7 45 -21 68 -29s51 -9 62 26l66 -25c-13 -80 -73 -96 -119 -85c-24 7 -45 21 -68 29s-50 5 -66 -30z" />
    <glyph glyph-name="uni1EBD" unicode="&#x1ebd;" horiz-adv-x="582" 
d="M547 208h-400c9 -76 70 -124 161 -124c51 0 112 18 143 53l67 -65c-51 -57 -136 -84 -212 -84c-162 0 -266 103 -266 261c0 150 105 257 259 257c159 0 267 -98 248 -298zM149 295h299c-7 79 -62 119 -146 119c-76 0 -137 -40 -153 -119zM210 540l-61 33
c19 56 58 94 118 81c24 -7 45 -21 68 -29s51 -9 62 26l66 -25c-13 -80 -73 -96 -119 -85c-24 7 -45 21 -68 29s-50 5 -66 -30z" />
    <glyph glyph-name="uni1EBE" unicode="&#x1ebe;" horiz-adv-x="661" 
d="M605 110v-110h-517v700h514v-109h-402v-189h386v-104h-386v-188h405zM319 885h60l147 -136v-6h-107l-70 60l-70 -60h-107v6zM647 991v-4l-105 -133h-93v5l74 132h124z" />
    <glyph glyph-name="uni1EBF" unicode="&#x1ebf;" horiz-adv-x="582" 
d="M547 208h-400c9 -76 70 -124 161 -124c51 0 112 18 143 53l67 -65c-51 -57 -136 -84 -212 -84c-162 0 -266 103 -266 261c0 150 105 257 259 257c159 0 267 -98 248 -298zM149 295h299c-7 79 -62 119 -146 119c-76 0 -137 -40 -153 -119zM269 680h60l147 -136v-6h-107
l-70 60l-70 -60h-107v6zM596 787v-4l-105 -133h-93v5l74 132h124z" />
    <glyph glyph-name="uni1EC0" unicode="&#x1ec0;" horiz-adv-x="661" 
d="M605 110v-110h-517v700h514v-109h-402v-189h386v-104h-386v-188h405zM319 885h60l147 -136v-6h-107l-70 60l-70 -60h-107v6zM361 991v4h124l74 -135v-5h-93z" />
    <glyph glyph-name="uni1EC1" unicode="&#x1ec1;" horiz-adv-x="582" 
d="M547 208h-400c9 -76 70 -124 161 -124c51 0 112 18 143 53l67 -65c-51 -57 -136 -84 -212 -84c-162 0 -266 103 -266 261c0 150 105 257 259 257c159 0 267 -98 248 -298zM149 295h299c-7 79 -62 119 -146 119c-76 0 -137 -40 -153 -119zM269 680h60l147 -136v-6h-107
l-70 60l-70 -60h-107v6zM311 786v4h124l74 -135v-5h-93z" />
    <glyph glyph-name="uni1EC2" unicode="&#x1ec2;" horiz-adv-x="661" 
d="M605 110v-110h-517v700h514v-109h-402v-189h386v-104h-386v-188h405zM319 885h60l147 -136v-6h-107l-70 60l-70 -60h-107v6zM469 929l-65 -1c7 83 42 110 91 113c48 3 102 -21 102 -86c0 -51 -25 -68 -46 -76c-12 -3 -14 -23 -19 -46h-66c3 55 24 87 49 99
c7 1 15 15 15 23c0 16 -19 16 -35 16c-9 0 -23 -9 -26 -42z" />
    <glyph glyph-name="uni1EC3" unicode="&#x1ec3;" horiz-adv-x="582" 
d="M547 208h-400c9 -76 70 -124 161 -124c51 0 112 18 143 53l67 -65c-51 -57 -136 -84 -212 -84c-162 0 -266 103 -266 261c0 150 105 257 259 257c159 0 267 -98 248 -298zM149 295h299c-7 79 -62 119 -146 119c-76 0 -137 -40 -153 -119zM269 680h60l147 -136v-6h-107
l-70 60l-70 -60h-107v6zM419 725l-65 -1c7 83 42 110 91 113c48 3 102 -21 102 -86c0 -51 -25 -68 -46 -76c-12 -3 -14 -23 -19 -46h-66c3 55 24 87 49 99c7 1 15 15 15 23c0 16 -19 16 -35 16c-9 0 -23 -9 -26 -42z" />
    <glyph glyph-name="uni1EC4" unicode="&#x1ec4;" horiz-adv-x="661" 
d="M605 110v-110h-517v700h514v-109h-402v-189h386v-104h-386v-188h405zM319 885h60l147 -136v-6h-107l-70 60l-70 -60h-107v6zM252 916l-61 33c19 56 58 94 118 81c24 -7 45 -21 68 -29s51 -9 62 26l66 -25c-13 -80 -73 -96 -119 -85c-24 7 -45 21 -68 29s-50 5 -66 -30z
" />
    <glyph glyph-name="uni1EC5" unicode="&#x1ec5;" horiz-adv-x="582" 
d="M547 208h-400c9 -76 70 -124 161 -124c51 0 112 18 143 53l67 -65c-51 -57 -136 -84 -212 -84c-162 0 -266 103 -266 261c0 150 105 257 259 257c159 0 267 -98 248 -298zM149 295h299c-7 79 -62 119 -146 119c-76 0 -137 -40 -153 -119zM269 680h60l147 -136v-6h-107
l-70 60l-70 -60h-107v6zM202 711l-61 33c19 56 58 94 118 81c24 -7 45 -21 68 -29s51 -9 62 26l66 -25c-13 -80 -73 -96 -119 -85c-24 7 -45 21 -68 29s-50 5 -66 -30z" />
    <glyph glyph-name="uni1EC6" unicode="&#x1ec6;" horiz-adv-x="661" 
d="M605 110v-110h-517v700h514v-109h-402v-189h386v-104h-386v-188h405zM319 885h60l147 -136v-6h-107l-70 60l-70 -60h-107v6zM284 -102c0 73 110 73 110 0s-110 -73 -110 0z" />
    <glyph glyph-name="uni1EC7" unicode="&#x1ec7;" horiz-adv-x="582" 
d="M547 208h-400c9 -76 70 -124 161 -124c51 0 112 18 143 53l67 -65c-51 -57 -136 -84 -212 -84c-162 0 -266 103 -266 261c0 150 105 257 259 257c159 0 267 -98 248 -298zM149 295h299c-7 79 -62 119 -146 119c-76 0 -137 -40 -153 -119zM269 680h60l147 -136v-6h-107
l-70 60l-70 -60h-107v6zM250 -102c0 73 110 73 110 0s-110 -73 -110 0z" />
    <glyph glyph-name="uni1EC8" unicode="&#x1ec8;" horiz-adv-x="287" 
d="M199 0h-111v700h111v-700zM114 839l-65 -1c7 83 42 110 91 113c48 3 102 -21 102 -86c0 -51 -25 -68 -46 -76c-12 -3 -14 -23 -19 -46h-66c3 55 24 87 49 99c7 1 15 15 15 23c0 16 -19 16 -35 16c-9 0 -23 -9 -26 -42z" />
    <glyph glyph-name="uni1EC9" unicode="&#x1ec9;" horiz-adv-x="243" 
d="M70 495h103v-495h-103v495zM91 633l-65 -1c7 83 42 110 91 113c48 3 102 -21 102 -86c0 -51 -25 -68 -46 -76c-12 -3 -14 -23 -19 -46h-66c3 55 24 87 49 99c7 1 15 15 15 23c0 16 -19 16 -35 16c-9 0 -23 -9 -26 -42z" />
    <glyph glyph-name="uni1ECA" unicode="&#x1eca;" horiz-adv-x="287" 
d="M199 0h-111v700h111v-700zM89 -102c0 73 110 73 110 0s-110 -73 -110 0z" />
    <glyph glyph-name="uni1ECB" unicode="&#x1ecb;" horiz-adv-x="243" 
d="M70 495h103v-495h-103v495zM58 638c0 84 128 84 128 0c0 -85 -128 -85 -128 0zM66 -102c0 73 110 73 110 0s-110 -73 -110 0z" />
    <glyph glyph-name="Ohorn" unicode="&#x1a0;" horiz-adv-x="839" 
d="M712 609v90h91v-90c0 -65 -21 -108 -63 -129c14 -42 21 -86 21 -133c0 -189 -115 -362 -358 -362s-358 177 -358 361c0 213 149 367 360 367c137 -1 233 -59 292 -144c10 8 15 21 15 40zM156 345c3 -124 73 -257 247 -257s247 124 247 257c0 129 -73 263 -245 266
c-163 0 -249 -113 -249 -266z" />
    <glyph glyph-name="ohorn" unicode="&#x1a1;" horiz-adv-x="624" 
d="M529 408v85h92v-85c0 -66 -25 -108 -74 -125c1 -12 2 -25 2 -37c0 -146 -100 -256 -256 -256c-155 0 -254 110 -254 256c0 144 101 257 254 257c103 0 182 -50 225 -129c7 7 11 18 11 34zM293 408c-93 0 -151 -75 -151 -162c0 -88 58 -160 151 -160c95 0 152 72 152 160
c0 87 -61 162 -152 162z" />
    <glyph glyph-name="uni1ECC" unicode="&#x1ecc;" horiz-adv-x="806" 
d="M405 713c239 0 356 -177 356 -366s-115 -362 -358 -362s-358 177 -358 361c0 213 149 367 360 367zM156 345c3 -124 73 -257 247 -257s247 124 247 257c0 129 -73 263 -245 266c-163 0 -249 -113 -249 -266zM347 -102c0 73 110 73 110 0s-110 -73 -110 0z" />
    <glyph glyph-name="uni1ECD" unicode="&#x1ecd;" horiz-adv-x="588" 
d="M293 503c152 0 256 -113 256 -257c0 -146 -100 -256 -256 -256c-155 0 -254 110 -254 256c0 144 101 257 254 257zM293 408c-93 0 -151 -75 -151 -162c0 -88 58 -160 151 -160c95 0 152 72 152 160c0 87 -61 162 -152 162zM237 -102c0 73 110 73 110 0s-110 -73 -110 0z
" />
    <glyph glyph-name="uni1ECE" unicode="&#x1ece;" horiz-adv-x="806" 
d="M405 713c239 0 356 -177 356 -366s-115 -362 -358 -362s-358 177 -358 361c0 213 149 367 360 367zM156 345c3 -124 73 -257 247 -257s247 124 247 257c0 129 -73 263 -245 266c-163 0 -249 -113 -249 -266zM376 839l-65 -1c7 83 42 110 91 113c48 3 102 -21 102 -86
c0 -51 -25 -68 -46 -76c-12 -3 -14 -23 -19 -46h-66c3 55 24 87 49 99c7 1 15 15 15 23c0 16 -19 16 -35 16c-9 0 -23 -9 -26 -42z" />
    <glyph glyph-name="uni1ECF" unicode="&#x1ecf;" horiz-adv-x="588" 
d="M293 503c152 0 256 -113 256 -257c0 -146 -100 -256 -256 -256c-155 0 -254 110 -254 256c0 144 101 257 254 257zM293 408c-93 0 -151 -75 -151 -162c0 -88 58 -160 151 -160c95 0 152 72 152 160c0 87 -61 162 -152 162zM264 633l-65 -1c7 83 42 110 91 113
c48 3 102 -21 102 -86c0 -51 -25 -68 -46 -76c-12 -3 -14 -23 -19 -46h-66c3 55 24 87 49 99c7 1 15 15 15 23c0 16 -19 16 -35 16c-9 0 -23 -9 -26 -42z" />
    <glyph glyph-name="uni1ED0" unicode="&#x1ed0;" horiz-adv-x="806" 
d="M405 713c239 0 356 -177 356 -366s-115 -362 -358 -362s-358 177 -358 361c0 213 149 367 360 367zM156 345c3 -124 73 -257 247 -257s247 124 247 257c0 129 -73 263 -245 266c-163 0 -249 -113 -249 -266zM375 885h60l147 -136v-6h-107l-70 60l-70 -60h-107v6zM703 991
v-4l-105 -133h-93v5l74 132h124z" />
    <glyph glyph-name="uni1ED1" unicode="&#x1ed1;" horiz-adv-x="588" 
d="M293 503c152 0 256 -113 256 -257c0 -146 -100 -256 -256 -256c-155 0 -254 110 -254 256c0 144 101 257 254 257zM293 408c-93 0 -151 -75 -151 -162c0 -88 58 -160 151 -160c95 0 152 72 152 160c0 87 -61 162 -152 162zM264 680h60l147 -136v-6h-107l-70 60l-70 -60
h-107v6zM591 787v-4l-105 -133h-93v5l74 132h124z" />
    <glyph glyph-name="uni1ED2" unicode="&#x1ed2;" horiz-adv-x="806" 
d="M405 713c239 0 356 -177 356 -366s-115 -362 -358 -362s-358 177 -358 361c0 213 149 367 360 367zM156 345c3 -124 73 -257 247 -257s247 124 247 257c0 129 -73 263 -245 266c-163 0 -249 -113 -249 -266zM375 885h60l147 -136v-6h-107l-70 60l-70 -60h-107v6zM417 991
v4h124l74 -135v-5h-93z" />
    <glyph glyph-name="uni1ED3" unicode="&#x1ed3;" horiz-adv-x="588" 
d="M293 503c152 0 256 -113 256 -257c0 -146 -100 -256 -256 -256c-155 0 -254 110 -254 256c0 144 101 257 254 257zM293 408c-93 0 -151 -75 -151 -162c0 -88 58 -160 151 -160c95 0 152 72 152 160c0 87 -61 162 -152 162zM264 680h60l147 -136v-6h-107l-70 60l-70 -60
h-107v6zM306 786v4h124l74 -135v-5h-93z" />
    <glyph glyph-name="uni1ED4" unicode="&#x1ed4;" horiz-adv-x="806" 
d="M405 713c239 0 356 -177 356 -366s-115 -362 -358 -362s-358 177 -358 361c0 213 149 367 360 367zM156 345c3 -124 73 -257 247 -257s247 124 247 257c0 129 -73 263 -245 266c-163 0 -249 -113 -249 -266zM375 885h60l147 -136v-6h-107l-70 60l-70 -60h-107v6zM525 929
l-65 -1c7 83 42 110 91 113c48 3 102 -21 102 -86c0 -51 -25 -68 -46 -76c-12 -3 -14 -23 -19 -46h-66c3 55 24 87 49 99c7 1 15 15 15 23c0 16 -19 16 -35 16c-9 0 -23 -9 -26 -42z" />
    <glyph glyph-name="uni1ED5" unicode="&#x1ed5;" horiz-adv-x="588" 
d="M293 503c152 0 256 -113 256 -257c0 -146 -100 -256 -256 -256c-155 0 -254 110 -254 256c0 144 101 257 254 257zM293 408c-93 0 -151 -75 -151 -162c0 -88 58 -160 151 -160c95 0 152 72 152 160c0 87 -61 162 -152 162zM264 680h60l147 -136v-6h-107l-70 60l-70 -60
h-107v6zM414 725l-65 -1c7 83 42 110 91 113c48 3 102 -21 102 -86c0 -51 -25 -68 -46 -76c-12 -3 -14 -23 -19 -46h-66c3 55 24 87 49 99c7 1 15 15 15 23c0 16 -19 16 -35 16c-9 0 -23 -9 -26 -42z" />
    <glyph glyph-name="uni1ED6" unicode="&#x1ed6;" horiz-adv-x="806" 
d="M405 713c239 0 356 -177 356 -366s-115 -362 -358 -362s-358 177 -358 361c0 213 149 367 360 367zM156 345c3 -124 73 -257 247 -257s247 124 247 257c0 129 -73 263 -245 266c-163 0 -249 -113 -249 -266zM375 885h60l147 -136v-6h-107l-70 60l-70 -60h-107v6zM309 916
l-61 33c19 56 58 94 118 81c24 -7 45 -21 68 -29s51 -9 62 26l66 -25c-13 -80 -73 -96 -119 -85c-24 7 -45 21 -68 29s-50 5 -66 -30z" />
    <glyph glyph-name="uni1ED7" unicode="&#x1ed7;" horiz-adv-x="588" 
d="M293 503c152 0 256 -113 256 -257c0 -146 -100 -256 -256 -256c-155 0 -254 110 -254 256c0 144 101 257 254 257zM293 408c-93 0 -151 -75 -151 -162c0 -88 58 -160 151 -160c95 0 152 72 152 160c0 87 -61 162 -152 162zM264 680h60l147 -136v-6h-107l-70 60l-70 -60
h-107v6zM197 711l-61 33c19 56 58 94 118 81c24 -7 45 -21 68 -29s51 -9 62 26l66 -25c-13 -80 -73 -96 -119 -85c-24 7 -45 21 -68 29s-50 5 -66 -30z" />
    <glyph glyph-name="uni1ED8" unicode="&#x1ed8;" horiz-adv-x="806" 
d="M405 713c239 0 356 -177 356 -366s-115 -362 -358 -362s-358 177 -358 361c0 213 149 367 360 367zM156 345c3 -124 73 -257 247 -257s247 124 247 257c0 129 -73 263 -245 266c-163 0 -249 -113 -249 -266zM375 885h60l147 -136v-6h-107l-70 60l-70 -60h-107v6z
M347 -102c0 73 110 73 110 0s-110 -73 -110 0z" />
    <glyph glyph-name="uni1ED9" unicode="&#x1ed9;" horiz-adv-x="588" 
d="M293 503c152 0 256 -113 256 -257c0 -146 -100 -256 -256 -256c-155 0 -254 110 -254 256c0 144 101 257 254 257zM293 408c-93 0 -151 -75 -151 -162c0 -88 58 -160 151 -160c95 0 152 72 152 160c0 87 -61 162 -152 162zM264 680h60l147 -136v-6h-107l-70 60l-70 -60
h-107v6zM237 -102c0 73 110 73 110 0s-110 -73 -110 0z" />
    <glyph glyph-name="Uhorn" unicode="&#x1af;" horiz-adv-x="852" 
d="M716 609v90h91v-90c0 -96 -39 -138 -134 -146v-173c0 -206 -136 -308 -305 -303c-156 3 -289 105 -289 303v409h111v-409c0 -126 74 -197 178 -200c112 -5 194 66 194 200v409h111v-140c32 5 43 18 43 50z" />
    <glyph glyph-name="uhorn" unicode="&#x1b0;" horiz-adv-x="673" 
d="M577 408v85h92v-85c0 -88 -38 -128 -130 -137v-272h-93l-6 73c-48 -56 -101 -80 -170 -80c-121 0 -208 87 -208 236v265h103v-264c0 -84 47 -142 134 -142c81 0 137 66 137 149v257h103v-131c28 5 38 18 38 46z" />
    <glyph glyph-name="uni1EE4" unicode="&#x1ee4;" horiz-adv-x="752" 
d="M562 699h111v-409c0 -206 -136 -308 -305 -303c-156 3 -289 105 -289 303v409h111v-409c0 -126 74 -197 178 -200c112 -5 194 66 194 200v409zM312 -102c0 73 110 73 110 0s-110 -73 -110 0z" />
    <glyph glyph-name="uni1EE5" unicode="&#x1ee5;" horiz-adv-x="609" 
d="M62 493h103v-264c0 -84 47 -142 134 -142c81 0 137 66 137 149v257h103v-494h-93l-6 73c-48 -56 -101 -80 -170 -80c-121 0 -208 87 -208 236v265zM237 -102c0 73 110 73 110 0s-110 -73 -110 0z" />
    <glyph glyph-name="uni1EE6" unicode="&#x1ee6;" horiz-adv-x="752" 
d="M562 699h111v-409c0 -206 -136 -308 -305 -303c-156 3 -289 105 -289 303v409h111v-409c0 -126 74 -197 178 -200c112 -5 194 66 194 200v409zM353 839l-65 -1c7 83 42 110 91 113c48 3 102 -21 102 -86c0 -51 -25 -68 -46 -76c-12 -3 -14 -23 -19 -46h-66
c3 55 24 87 49 99c7 1 15 15 15 23c0 16 -19 16 -35 16c-9 0 -23 -9 -26 -42z" />
    <glyph glyph-name="uni1EE7" unicode="&#x1ee7;" horiz-adv-x="609" 
d="M62 493h103v-264c0 -84 47 -142 134 -142c81 0 137 66 137 149v257h103v-494h-93l-6 73c-48 -56 -101 -80 -170 -80c-121 0 -208 87 -208 236v265zM271 633l-65 -1c7 83 42 110 91 113c48 3 102 -21 102 -86c0 -51 -25 -68 -46 -76c-12 -3 -14 -23 -19 -46h-66
c3 55 24 87 49 99c7 1 15 15 15 23c0 16 -19 16 -35 16c-9 0 -23 -9 -26 -42z" />
    <glyph glyph-name="uni1EF4" unicode="&#x1ef4;" horiz-adv-x="686" 
d="M149 700l193 -309l199 309h135v-5l-278 -408v-287h-112v287l-270 408v5h133zM285 -102c0 73 110 73 110 0s-110 -73 -110 0z" />
    <glyph glyph-name="uni1EF5" unicode="&#x1ef5;" horiz-adv-x="558" 
d="M427 493h115l-311 -722h-114l102 236l-197 486h120l85 -233l49 -140l53 138zM345 -102c0 73 110 73 110 0s-110 -73 -110 0z" />
    <glyph glyph-name="uni1EF6" unicode="&#x1ef6;" horiz-adv-x="686" 
d="M149 700l193 -309l199 309h135v-5l-278 -408v-287h-112v287l-270 408v5h133zM321 839l-65 -1c7 83 42 110 91 113c48 3 102 -21 102 -86c0 -51 -25 -68 -46 -76c-12 -3 -14 -23 -19 -46h-66c3 55 24 87 49 99c7 1 15 15 15 23c0 16 -19 16 -35 16c-9 0 -23 -9 -26 -42z
" />
    <glyph glyph-name="uni1EF7" unicode="&#x1ef7;" horiz-adv-x="558" 
d="M427 493h115l-311 -722h-114l102 236l-197 486h120l85 -233l49 -140l53 138zM260 633l-65 -1c7 83 42 110 91 113c48 3 102 -21 102 -86c0 -51 -25 -68 -46 -76c-12 -3 -14 -23 -19 -46h-66c3 55 24 87 49 99c7 1 15 15 15 23c0 16 -19 16 -35 16c-9 0 -23 -9 -26 -42z
" />
    <glyph glyph-name="uni1EF8" unicode="&#x1ef8;" horiz-adv-x="686" 
d="M149 700l193 -309l199 309h135v-5l-278 -408v-287h-112v287l-270 408v5h133zM252 740l-61 33c19 56 58 94 118 81c24 -7 45 -21 68 -29s51 -9 62 26l66 -25c-13 -80 -73 -96 -119 -85c-24 7 -45 21 -68 29s-50 5 -66 -30z" />
    <glyph glyph-name="uni1EF9" unicode="&#x1ef9;" horiz-adv-x="558" 
d="M427 493h115l-311 -722h-114l102 236l-197 486h120l85 -233l49 -140l53 138zM189 540l-61 33c19 56 58 94 118 81c24 -7 45 -21 68 -29s51 -9 62 26l66 -25c-13 -80 -73 -96 -119 -85c-24 7 -45 21 -68 29s-50 5 -66 -30z" />
    <glyph glyph-name="uni1EDA" unicode="&#x1eda;" horiz-adv-x="839" 
d="M712 609v90h91v-90c0 -65 -21 -108 -63 -129c14 -42 21 -86 21 -133c0 -189 -115 -362 -358 -362s-358 177 -358 361c0 213 149 367 360 367c137 -1 233 -59 292 -144c10 8 15 21 15 40zM156 345c3 -124 73 -257 247 -257s247 124 247 257c0 129 -73 263 -245 266
c-163 0 -249 -113 -249 -266zM509 881v-4l-105 -133h-93v5l74 132h124z" />
    <glyph glyph-name="uni1EDB" unicode="&#x1edb;" horiz-adv-x="624" 
d="M529 408v85h92v-85c0 -66 -25 -108 -74 -125c1 -12 2 -25 2 -37c0 -146 -100 -256 -256 -256c-155 0 -254 110 -254 256c0 144 101 257 254 257c103 0 182 -50 225 -129c7 7 11 18 11 34zM293 408c-93 0 -151 -75 -151 -162c0 -88 58 -160 151 -160c95 0 152 72 152 160
c0 87 -61 162 -152 162zM398 674v-4l-105 -133h-93v5l74 132h124z" />
    <glyph glyph-name="uni1EDC" unicode="&#x1edc;" horiz-adv-x="839" 
d="M712 609v90h91v-90c0 -65 -21 -108 -63 -129c14 -42 21 -86 21 -133c0 -189 -115 -362 -358 -362s-358 177 -358 361c0 213 149 367 360 367c137 -1 233 -59 292 -144c10 8 15 21 15 40zM156 345c3 -124 73 -257 247 -257s247 124 247 257c0 129 -73 263 -245 266
c-163 0 -249 -113 -249 -266zM301 879v4h124l74 -135v-5h-93z" />
    <glyph glyph-name="uni1EDD" unicode="&#x1edd;" horiz-adv-x="624" 
d="M529 408v85h92v-85c0 -66 -25 -108 -74 -125c1 -12 2 -25 2 -37c0 -146 -100 -256 -256 -256c-155 0 -254 110 -254 256c0 144 101 257 254 257c103 0 182 -50 225 -129c7 7 11 18 11 34zM293 408c-93 0 -151 -75 -151 -162c0 -88 58 -160 151 -160c95 0 152 72 152 160
c0 87 -61 162 -152 162zM186 673v4h124l74 -135v-5h-93z" />
    <glyph glyph-name="uni1EDE" unicode="&#x1ede;" horiz-adv-x="839" 
d="M712 609v90h91v-90c0 -65 -21 -108 -63 -129c14 -42 21 -86 21 -133c0 -189 -115 -362 -358 -362s-358 177 -358 361c0 213 149 367 360 367c137 -1 233 -59 292 -144c10 8 15 21 15 40zM156 345c3 -124 73 -257 247 -257s247 124 247 257c0 129 -73 263 -245 266
c-163 0 -249 -113 -249 -266zM376 839l-65 -1c7 83 42 110 91 113c48 3 102 -21 102 -86c0 -51 -25 -68 -46 -76c-12 -3 -14 -23 -19 -46h-66c3 55 24 87 49 99c7 1 15 15 15 23c0 16 -19 16 -35 16c-9 0 -23 -9 -26 -42z" />
    <glyph glyph-name="uni1EDF" unicode="&#x1edf;" horiz-adv-x="624" 
d="M529 408v85h92v-85c0 -66 -25 -108 -74 -125c1 -12 2 -25 2 -37c0 -146 -100 -256 -256 -256c-155 0 -254 110 -254 256c0 144 101 257 254 257c103 0 182 -50 225 -129c7 7 11 18 11 34zM293 408c-93 0 -151 -75 -151 -162c0 -88 58 -160 151 -160c95 0 152 72 152 160
c0 87 -61 162 -152 162zM264 633l-65 -1c7 83 42 110 91 113c48 3 102 -21 102 -86c0 -51 -25 -68 -46 -76c-12 -3 -14 -23 -19 -46h-66c3 55 24 87 49 99c7 1 15 15 15 23c0 16 -19 16 -35 16c-9 0 -23 -9 -26 -42z" />
    <glyph glyph-name="uni1EE0" unicode="&#x1ee0;" horiz-adv-x="839" 
d="M712 609v90h91v-90c0 -65 -21 -108 -63 -129c14 -42 21 -86 21 -133c0 -189 -115 -362 -358 -362s-358 177 -358 361c0 213 149 367 360 367c137 -1 233 -59 292 -144c10 8 15 21 15 40zM156 345c3 -124 73 -257 247 -257s247 124 247 257c0 129 -73 263 -245 266
c-163 0 -249 -113 -249 -266zM307 746l-61 33c19 56 58 94 118 81c24 -7 45 -21 68 -29s51 -9 62 26l66 -25c-13 -80 -73 -96 -119 -85c-24 7 -45 21 -68 29s-50 5 -66 -30z" />
    <glyph glyph-name="uni1EE1" unicode="&#x1ee1;" horiz-adv-x="624" 
d="M529 408v85h92v-85c0 -66 -25 -108 -74 -125c1 -12 2 -25 2 -37c0 -146 -100 -256 -256 -256c-155 0 -254 110 -254 256c0 144 101 257 254 257c103 0 182 -50 225 -129c7 7 11 18 11 34zM293 408c-93 0 -151 -75 -151 -162c0 -88 58 -160 151 -160c95 0 152 72 152 160
c0 87 -61 162 -152 162zM198 540l-61 33c19 56 58 94 118 81c24 -7 45 -21 68 -29s51 -9 62 26l66 -25c-13 -80 -73 -96 -119 -85c-24 7 -45 21 -68 29s-50 5 -66 -30z" />
    <glyph glyph-name="uni1EE2" unicode="&#x1ee2;" horiz-adv-x="839" 
d="M712 609v90h91v-90c0 -65 -21 -108 -63 -129c14 -42 21 -86 21 -133c0 -189 -115 -362 -358 -362s-358 177 -358 361c0 213 149 367 360 367c137 -1 233 -59 292 -144c10 8 15 21 15 40zM156 345c3 -124 73 -257 247 -257s247 124 247 257c0 129 -73 263 -245 266
c-163 0 -249 -113 -249 -266zM347 -102c0 73 110 73 110 0s-110 -73 -110 0z" />
    <glyph glyph-name="uni1EE3" unicode="&#x1ee3;" horiz-adv-x="624" 
d="M529 408v85h92v-85c0 -66 -25 -108 -74 -125c1 -12 2 -25 2 -37c0 -146 -100 -256 -256 -256c-155 0 -254 110 -254 256c0 144 101 257 254 257c103 0 182 -50 225 -129c7 7 11 18 11 34zM293 408c-93 0 -151 -75 -151 -162c0 -88 58 -160 151 -160c95 0 152 72 152 160
c0 87 -61 162 -152 162zM237 -102c0 73 110 73 110 0s-110 -73 -110 0z" />
    <glyph glyph-name="uni1EE8" unicode="&#x1ee8;" horiz-adv-x="852" 
d="M716 609v90h91v-90c0 -96 -39 -138 -134 -146v-173c0 -206 -136 -308 -305 -303c-156 3 -289 105 -289 303v409h111v-409c0 -126 74 -197 178 -200c112 -5 194 66 194 200v409h111v-140c32 5 43 18 43 50zM504 881v-4l-105 -133h-93v5l74 132h124z" />
    <glyph glyph-name="uni1EE9" unicode="&#x1ee9;" horiz-adv-x="673" 
d="M577 408v85h92v-85c0 -88 -38 -128 -130 -137v-272h-93l-6 73c-48 -56 -101 -80 -170 -80c-121 0 -208 87 -208 236v265h103v-264c0 -84 47 -142 134 -142c81 0 137 66 137 149v257h103v-131c28 5 38 18 38 46zM434 674v-4l-105 -133h-93v5l74 132h124z" />
    <glyph glyph-name="uni1EEA" unicode="&#x1eea;" horiz-adv-x="852" 
d="M716 609v90h91v-90c0 -96 -39 -138 -134 -146v-173c0 -206 -136 -308 -305 -303c-156 3 -289 105 -289 303v409h111v-409c0 -126 74 -197 178 -200c112 -5 194 66 194 200v409h111v-140c32 5 43 18 43 50zM260 879v4h124l74 -135v-5h-93z" />
    <glyph glyph-name="uni1EEB" unicode="&#x1eeb;" horiz-adv-x="673" 
d="M577 408v85h92v-85c0 -88 -38 -128 -130 -137v-272h-93l-6 73c-48 -56 -101 -80 -170 -80c-121 0 -208 87 -208 236v265h103v-264c0 -84 47 -142 134 -142c81 0 137 66 137 149v257h103v-131c28 5 38 18 38 46zM173 673v4h124l74 -135v-5h-93z" />
    <glyph glyph-name="uni1EEC" unicode="&#x1eec;" horiz-adv-x="852" 
d="M716 609v90h91v-90c0 -96 -39 -138 -134 -146v-173c0 -206 -136 -308 -305 -303c-156 3 -289 105 -289 303v409h111v-409c0 -126 74 -197 178 -200c112 -5 194 66 194 200v409h111v-140c32 5 43 18 43 50zM353 839l-65 -1c7 83 42 110 91 113c48 3 102 -21 102 -86
c0 -51 -25 -68 -46 -76c-12 -3 -14 -23 -19 -46h-66c3 55 24 87 49 99c7 1 15 15 15 23c0 16 -19 16 -35 16c-9 0 -23 -9 -26 -42z" />
    <glyph glyph-name="uni1EED" unicode="&#x1eed;" horiz-adv-x="673" 
d="M577 408v85h92v-85c0 -88 -38 -128 -130 -137v-272h-93l-6 73c-48 -56 -101 -80 -170 -80c-121 0 -208 87 -208 236v265h103v-264c0 -84 47 -142 134 -142c81 0 137 66 137 149v257h103v-131c28 5 38 18 38 46zM271 633l-65 -1c7 83 42 110 91 113c48 3 102 -21 102 -86
c0 -51 -25 -68 -46 -76c-12 -3 -14 -23 -19 -46h-66c3 55 24 87 49 99c7 1 15 15 15 23c0 16 -19 16 -35 16c-9 0 -23 -9 -26 -42z" />
    <glyph glyph-name="uni1EEE" unicode="&#x1eee;" horiz-adv-x="852" 
d="M716 609v90h91v-90c0 -96 -39 -138 -134 -146v-173c0 -206 -136 -308 -305 -303c-156 3 -289 105 -289 303v409h111v-409c0 -126 74 -197 178 -200c112 -5 194 66 194 200v409h111v-140c32 5 43 18 43 50zM277 740l-61 33c19 56 58 94 118 81c24 -7 45 -21 68 -29
s51 -9 62 26l66 -25c-13 -80 -73 -96 -119 -85c-24 7 -45 21 -68 29s-50 5 -66 -30z" />
    <glyph glyph-name="uni1EEF" unicode="&#x1eef;" horiz-adv-x="673" 
d="M577 408v85h92v-85c0 -88 -38 -128 -130 -137v-272h-93l-6 73c-48 -56 -101 -80 -170 -80c-121 0 -208 87 -208 236v265h103v-264c0 -84 47 -142 134 -142c81 0 137 66 137 149v257h103v-131c28 5 38 18 38 46zM204 540l-61 33c19 56 58 94 118 81c24 -7 45 -21 68 -29
s51 -9 62 26l66 -25c-13 -80 -73 -96 -119 -85c-24 7 -45 21 -68 29s-50 5 -66 -30z" />
    <glyph glyph-name="uni1EF0" unicode="&#x1ef0;" horiz-adv-x="852" 
d="M716 609v90h91v-90c0 -96 -39 -138 -134 -146v-173c0 -206 -136 -308 -305 -303c-156 3 -289 105 -289 303v409h111v-409c0 -126 74 -197 178 -200c112 -5 194 66 194 200v409h111v-140c32 5 43 18 43 50zM312 -102c0 73 110 73 110 0s-110 -73 -110 0z" />
    <glyph glyph-name="uni1EF1" unicode="&#x1ef1;" horiz-adv-x="673" 
d="M577 408v85h92v-85c0 -88 -38 -128 -130 -137v-272h-93l-6 73c-48 -56 -101 -80 -170 -80c-121 0 -208 87 -208 236v265h103v-264c0 -84 47 -142 134 -142c81 0 137 66 137 149v257h103v-131c28 5 38 18 38 46zM237 -102c0 73 110 73 110 0s-110 -73 -110 0z" />
    <glyph glyph-name="Ygrave" unicode="&#x1ef2;" horiz-adv-x="686" 
d="M149 700l193 -309l199 309h135v-5l-278 -408v-287h-112v287l-270 408v5h133zM224 879v4h124l74 -135v-5h-93z" />
    <glyph glyph-name="uni1EA2" unicode="&#x1ea2;" horiz-adv-x="768" 
d="M640 0l-67 147h-379l-66 -147h-119l314 700h122l314 -700h-119zM532 249l-148 333l-148 -333h296zM354 839l-65 -1c7 83 42 110 91 113c48 3 102 -21 102 -86c0 -51 -25 -68 -46 -76c-12 -3 -14 -23 -19 -46h-66c3 55 24 87 49 99c7 1 15 15 15 23c0 16 -19 16 -35 16
c-9 0 -23 -9 -26 -42z" />
    </font>
</defs>
</svg>
